<svg xmlns="http://www.w3.org/2000/svg" width="850" height="600" style="font-family:Lato,&quot;Helvetica Neue&quot;,Helvetica,Arial,&quot;Liberation Sans&quot;,sans-serif;font-size:18px;background-color:#fff;text-rendering:geometricPrecision;-webkit-font-smoothing:antialiased" version="1.1" viewBox="0 0 850 600"><defs><style>@import url(https://ourworldindata.org/fonts.css);</style></defs><defs><pattern id="noDataPattern" width="4" height="4" patternTransform="rotate(-45 2 2)" patternUnits="userSpaceOnUse"><path stroke="#ccc" stroke-width=".7" d="M-1 2h6"/></pattern></defs><path fill="#fff" d="M0 0h850v600H0z" class="background-fill"/><g id="header" class="HeaderView"><g id="logo" transform="translate(769 16)"><svg xmlns="http://www.w3.org/2000/svg" width="65" height="36" fill="none" className="owidLogo" viewBox="0 0 65 36"><path fill="#002147" d="M0 0h64.8v36H0z"/><path fill="#CE261E" d="M0 33.3h64.8V36H0z"/><path fill="#fff" d="M13.8 10.57c0 .64-.11 1.23-.32 1.77a4.2 4.2 0 0 1-.9 1.4 4.08 4.08 0 0 1-1.38.94c-.54.22-1.14.33-1.8.33-.65 0-1.25-.11-1.8-.33a4.15 4.15 0 0 1-1.39-.93 4.2 4.2 0 0 1-.9-1.4A4.83 4.83 0 0 1 5 10.56c0-.63.1-1.22.32-1.76a4.18 4.18 0 0 1 .9-1.4 4.08 4.08 0 0 1 1.38-.93 4.68 4.68 0 0 1 1.8-.34c.66 0 1.26.11 1.8.34a4.08 4.08 0 0 1 2.28 2.33c.21.54.32 1.13.32 1.76Zm-1.66 0c0-.47-.06-.9-.2-1.27a2.67 2.67 0 0 0-.53-.97 2.33 2.33 0 0 0-.87-.6A2.94 2.94 0 0 0 9.4 7.5c-.42 0-.8.07-1.14.21-.34.14-.63.35-.87.61a2.74 2.74 0 0 0-.55.97 3.96 3.96 0 0 0-.19 1.27c0 .48.06.9.2 1.29a2.42 2.42 0 0 0 1.42 1.56c.33.14.71.2 1.13.2.43 0 .8-.06 1.14-.2a2.37 2.37 0 0 0 1.4-1.56 4.01 4.01 0 0 0 .2-1.29Zm3.96-1.81v3.9c0 .39.09.68.26.89.18.2.44.3.79.3.25 0 .5-.06.72-.17a2.58 2.58 0 0 0 .63-.47V8.76H20v6.15h-.91c-.2 0-.32-.09-.38-.27l-.1-.49a4.65 4.65 0 0 1-.4.35 2.58 2.58 0 0 1-.43.27 2.35 2.35 0 0 1-.5.17 2.35 2.35 0 0 1-.57.07c-.34 0-.64-.06-.9-.17a1.82 1.82 0 0 1-.64-.49 2.16 2.16 0 0 1-.4-.73 3.23 3.23 0 0 1-.14-.95V8.76h1.48Zm5.23 6.15V8.76h.87c.15 0 .26.02.32.08s.1.15.12.29l.09.74c.22-.38.47-.68.77-.9.3-.22.63-.33 1-.33.3 0 .55.07.75.21l-.19 1.11c-.01.07-.04.13-.08.16a.28.28 0 0 1-.16.04 1.01 1.01 0 0 1-.25-.04 1.65 1.65 0 0 0-.41-.04c-.3 0-.57.08-.8.25-.21.17-.4.42-.55.75v3.83h-1.48Zm6.02-8.67h1.35a.57.57 0 0 1 .35.1c.1.06.16.15.2.26l1.47 5.2a10.12 10.12 0 0 1 .19.9 5.97 5.97 0 0 1 .22-.9l1.7-5.2a.57.57 0 0 1 .2-.25.54.54 0 0 1 .34-.11h.48a.57.57 0 0 1 .34.1.5.5 0 0 1 .2.26l1.69 5.2c.08.25.16.53.22.85a31.71 31.71 0 0 1 .19-.86l1.47-5.19c.03-.1.1-.18.19-.25a.56.56 0 0 1 .34-.11h1.27l-2.7 8.67h-1.45L33.7 9l-.08-.25a9.5 9.5 0 0 1-.07-.28 4.04 4.04 0 0 1-.15.53L31.5 14.9h-1.46l-2.7-8.67Zm15.42 2.42c.46 0 .88.07 1.25.22s.7.36.96.63.47.6.61 1 .22.83.22 1.31c0 .5-.08.93-.22 1.32a2.85 2.85 0 0 1-.61 1 2.65 2.65 0 0 1-.96.64 3.35 3.35 0 0 1-1.25.22 3.4 3.4 0 0 1-1.25-.22 2.71 2.71 0 0 1-.97-.63 2.92 2.92 0 0 1-.62-1 3.8 3.8 0 0 1-.21-1.33c0-.48.07-.92.21-1.31a2.75 2.75 0 0 1 1.58-1.63 3.4 3.4 0 0 1 1.26-.22Zm0 5.2c.51 0 .9-.17 1.13-.51.25-.35.38-.85.38-1.52s-.13-1.17-.38-1.51c-.24-.35-.62-.53-1.13-.53-.52 0-.9.18-1.15.53-.25.35-.37.85-.37 1.51s.12 1.17.37 1.52c.25.34.63.51 1.15.51Zm3.95 1.05V8.76h.87c.15 0 .26.02.32.08s.1.15.12.29l.1.74c.21-.38.47-.68.76-.9.3-.22.63-.33 1-.33.3 0 .56.07.76.21l-.2 1.11c0 .07-.03.13-.07.16a.28.28 0 0 1-.17.04 1.01 1.01 0 0 1-.24-.04 1.65 1.65 0 0 0-.42-.04c-.3 0-.57.08-.79.25-.22.17-.4.42-.56.75v3.83h-1.48ZM52.96 6v8.91h-1.48V6h1.48Zm5.77 8.91c-.19 0-.32-.09-.38-.27l-.12-.6a3.68 3.68 0 0 1-.4.4 2.5 2.5 0 0 1-.98.5 2.37 2.37 0 0 1-.6.06c-.33 0-.64-.07-.92-.2a2.1 2.1 0 0 1-.73-.61 3.03 3.03 0 0 1-.46-1 5.07 5.07 0 0 1-.17-1.34c0-.45.07-.88.19-1.27s.3-.73.53-1.02c.24-.29.51-.51.84-.67a2.38 2.38 0 0 1 1.09-.25 2.1 2.1 0 0 1 1.54.6V6h1.48v8.91h-.9Zm-1.97-1.08c.3 0 .57-.07.78-.2.22-.12.42-.3.62-.54v-2.76a1.45 1.45 0 0 0-.56-.43 1.6 1.6 0 0 0-.63-.13c-.23 0-.43.04-.61.13a1.21 1.21 0 0 0-.47.38c-.12.17-.22.39-.28.65a4.3 4.3 0 0 0-.02 1.84c.06.25.14.45.25.61.1.16.24.27.4.34.15.07.33.1.52.1Zm-40.43 6.93v6.15h-1.48v-6.15h1.48Zm.22-1.8a.84.84 0 0 1-.07.36.96.96 0 0 1-.21.3 1 1 0 0 1-.3.2.96.96 0 0 1-.38.07.95.95 0 0 1-.36-.07 1.02 1.02 0 0 1-.5-.5.96.96 0 0 1 0-.73 1 1 0 0 1 .2-.3.93.93 0 0 1 .3-.2.9.9 0 0 1 .73 0 .91.91 0 0 1 .3.2.94.94 0 0 1 .3.67Zm1.22 7.95v-6.15h.9c.2 0 .32.09.38.27l.1.48a2.93 2.93 0 0 1 .84-.61 2.3 2.3 0 0 1 1.07-.24c.34 0 .63.06.9.18.25.1.47.27.64.48.18.2.3.45.4.73.09.29.13.6.13.95v3.91h-1.48V23c0-.38-.08-.67-.26-.87-.17-.21-.43-.32-.78-.32-.26 0-.5.06-.72.18a2.58 2.58 0 0 0-.64.47v4.45h-1.48Zm16.45-4.34c0 .64-.1 1.22-.32 1.76-.21.53-.5.99-.9 1.37a4 4 0 0 1-1.38.9 4.87 4.87 0 0 1-1.8.31h-3.3v-8.67h3.3a4.79 4.79 0 0 1 1.8.32 4 4 0 0 1 1.39.9c.38.37.68.83.9 1.36.2.53.31 1.12.31 1.75Zm-1.65 0c0-.47-.06-.9-.2-1.27a2.68 2.68 0 0 0-.54-.96 2.33 2.33 0 0 0-.86-.6 2.94 2.94 0 0 0-1.14-.22h-1.69v6.1h1.69c.42 0 .8-.06 1.14-.2.34-.14.63-.34.86-.6a2.75 2.75 0 0 0 .55-.96 4.01 4.01 0 0 0 .19-1.29Zm7.41 4.34h-.67a.75.75 0 0 1-.33-.06c-.07-.04-.13-.13-.17-.25l-.14-.44c-.15.14-.3.26-.46.37a2.8 2.8 0 0 1-.46.26c-.16.08-.33.13-.51.17a3.07 3.07 0 0 1-1.32-.05 1.62 1.62 0 0 1-.57-.32 1.45 1.45 0 0 1-.37-.52 1.85 1.85 0 0 1-.13-.73c0-.23.06-.46.18-.68.12-.23.33-.44.61-.62.29-.18.67-.33 1.14-.45a8.01 8.01 0 0 1 1.75-.2v-.36c0-.42-.08-.72-.26-.92-.17-.2-.42-.3-.76-.3a1.84 1.84 0 0 0-1.01.28l-.33.19a.66.66 0 0 1-.33.08.43.43 0 0 1-.26-.08.61.61 0 0 1-.17-.2l-.27-.46c.7-.65 1.56-.98 2.56-.98.36 0 .68.06.96.18a1.99 1.99 0 0 1 1.16 1.25c.1.29.16.6.16.96v3.88ZM37.1 26c.15 0 .3-.01.42-.04a1.81 1.81 0 0 0 .69-.33c.1-.09.22-.19.32-.3v-1.04c-.43.02-.79.06-1.08.12a2.8 2.8 0 0 0-.7.2.92.92 0 0 0-.37.3.66.66 0 0 0-.11.36c0 .26.07.45.22.56.16.11.36.17.61.17ZM43.22 27c-.53 0-.94-.15-1.23-.45-.29-.3-.43-.72-.43-1.25v-3.44h-.63a.31.31 0 0 1-.2-.08c-.06-.05-.09-.13-.09-.23v-.6l.99-.15.31-1.68a.3.3 0 0 1 .11-.2.36.36 0 0 1 .22-.06h.77v1.94h1.62v1.06h-1.62v3.33c0 .2.05.35.14.45a.49.49 0 0 0 .39.17.73.73 0 0 0 .39-.1l.12-.07a.2.2 0 0 1 .11-.04.16.16 0 0 1 .11.04c.03.02.06.05.09.1l.44.71c-.21.18-.46.32-.74.41a2.77 2.77 0 0 1-.87.14Zm7.2-.1h-.66a.75.75 0 0 1-.33-.06c-.08-.04-.14-.13-.18-.25l-.13-.44c-.16.14-.31.26-.47.37a2.8 2.8 0 0 1-.46.26c-.16.08-.33.13-.5.17a3.07 3.07 0 0 1-1.33-.05 1.62 1.62 0 0 1-.57-.32 1.45 1.45 0 0 1-.36-.52 1.85 1.85 0 0 1-.14-.73c0-.23.06-.46.18-.68.13-.23.33-.44.62-.62.28-.18.66-.33 1.13-.45a8.01 8.01 0 0 1 1.76-.2v-.36c0-.42-.1-.72-.27-.92-.17-.2-.42-.3-.75-.3a1.84 1.84 0 0 0-1.02.28l-.33.19a.66.66 0 0 1-.33.08.43.43 0 0 1-.25-.08.61.61 0 0 1-.18-.2l-.27-.46c.7-.65 1.56-.98 2.56-.98.36 0 .68.06.96.18a1.99 1.99 0 0 1 1.17 1.25c.1.29.15.6.15.96v3.88ZM47.54 26c.16 0 .3-.01.42-.04a1.88 1.88 0 0 0 .69-.33l.33-.3v-1.04c-.44.02-.8.06-1.09.12a2.8 2.8 0 0 0-.7.2.92.92 0 0 0-.37.3.66.66 0 0 0-.11.36c0 .26.08.45.23.56.15.11.36.17.6.17Z"/></svg></g><a id="title" href="https://ourworldindata.org/grapher/share-of-cancer-deaths-by-cancer-type" rel="noopener" style="font-family:&quot;Playfair Display&quot;,Georgia,&quot;Times New Roman&quot;,&quot;Liberation Serif&quot;,serif" target="_blank"><text x="16" y="40" fill="#5b5b5b" font-size="24.75" font-weight="600"><tspan x="16" y="40.01">Share of cancer deaths by cancer type, 2021</tspan></text></a><g id="subtitle" class="markdown-text-wrap"><text x="16" y="63.9" fill="#5b5b5b" style="font-size:14.625px;line-height:1.2"><tspan x="16" y="63.9">The estimated percentage of deaths from different types of <tspan class="dod-span" data-id="cancer">cancers</tspan> as a proportion of all cancer-related deaths.</tspan></text></g></g><g id="chart-area" style="pointer-events:none"><g class="StackedDiscreteBarChart"><g id="vertical-zero-line" class="AxisGridLines verticalLines zeroLine"><path stroke="#999" stroke-width="1" d="M119.7 531.6V151.75"/></g><g id="categorical-color-legend" class="categoricalColorLegend"><g id="mark__Other cancers (OWID)" style="cursor:default"><path fill="#6D3E91" stroke-width=".4" d="M16 83.25h13.5v13.5H16z"/><text x="34.5" y="90" dy=".32em" font-size="14.4">Other cancers (OWID)</text></g><g id="mark__Bladder" style="cursor:default"><path fill="#C05917" stroke-width=".4" d="M189.92 83.25h13.5v13.5h-13.5z"/><text x="208.42" y="90" dy=".32em" font-size="14.4">Bladder</text></g><g id="mark__Leukemia" style="cursor:default"><path fill="#58AC8C" stroke-width=".4" d="M270.25 83.25h13.5v13.5h-13.5z"/><text x="288.75" y="90" dy=".32em" font-size="14.4">Leukemia</text></g><g id="mark__Liver" style="cursor:default"><path fill="#286BBB" stroke-width=".4" d="M363.39 83.25h13.5v13.5h-13.5z"/><text x="381.89" y="90" dy=".32em" font-size="14.4">Liver</text></g><g id="mark__Prostate" style="cursor:default"><path fill="#883039" stroke-width=".4" d="M425.14 83.25h13.5v13.5h-13.5z"/><text x="443.64" y="90" dy=".32em" font-size="14.4">Prostate</text></g><g id="mark__Pancreatic" style="cursor:default"><path fill="#BC8E5A" stroke-width=".4" d="M509.49 83.25h13.5v13.5h-13.5z"/><text x="527.99" y="90" dy=".32em" font-size="14.4">Pancreatic</text></g><g id="mark__Non-Hodgkin lymphoma" style="cursor:default"><path fill="#00295B" stroke-width=".4" d="M608.25 83.25h13.5v13.5h-13.5z"/><text x="626.75" y="90" dy=".32em" font-size="14.4">Non-Hodgkin lymphoma</text></g><g id="mark__Lip and oral cavity" style="cursor:default"><path fill="#C15065" stroke-width=".4" d="M16 101.75h13.5v13.5H16z"/><text x="34.5" y="108.5" dy=".32em" font-size="14.4">Lip and oral cavity</text></g><g id="mark__Cervical" style="cursor:default"><path fill="#18470F" stroke-width=".4" d="M163 101.75h13.5v13.5H163z"/><text x="181.5" y="108.5" dy=".32em" font-size="14.4">Cervical</text></g><g id="mark__Brain and central nervous system" style="cursor:default"><path fill="#9A5129" stroke-width=".4" d="M245.48 101.75h13.5v13.5h-13.5z"/><text x="263.98" y="108.5" dy=".32em" font-size="14.4">Brain and central nervous system</text></g><g id="mark__Breast" style="cursor:default"><path fill="#E56E5A" stroke-width=".4" d="M490.4 101.75h13.5v13.5h-13.5z"/><text x="508.9" y="108.5" dy=".32em" font-size="14.4">Breast</text></g><g id="mark__Esophageal" style="cursor:default"><path fill="#A2559C" stroke-width=".4" d="M562.66 101.75h13.5v13.5h-13.5z"/><text x="581.16" y="108.5" dy=".32em" font-size="14.4">Esophageal</text></g><g id="mark__Stomach" style="cursor:default"><path fill="#38AABA" stroke-width=".4" d="M669.62 101.75h13.5v13.5h-13.5z"/><text x="688.12" y="108.5" dy=".32em" font-size="14.4">Stomach</text></g><g id="mark__Colon and rectum" style="cursor:default"><path fill="#578145" stroke-width=".4" d="M16 120.25h13.5v13.5H16z"/><text x="34.5" y="127" dy=".32em" font-size="14.4">Colon and rectum</text></g><g id="mark__Lung, trachea and bronchus" style="cursor:default"><path fill="#970046" stroke-width=".4" d="M160.55 120.25h13.5v13.5h-13.5z"/><text x="179.05" y="127" dy=".32em" font-size="14.4">Lung, trachea and bronchus</text></g></g><g><g id="bar__Brazil" class="bar" transform="translate(0 175.5)"><text x="115.2" y="5" fill="#555" font-size="13.5" font-weight="700" text-anchor="end"><tspan x="115.2" y="5">Brazil</tspan></text><g id="stacked-bar__Other cancers (OWID)"><path fill="#6D3E91" d="M0 0h136.8v37.99H0z" opacity=".8" style="transition:height 200ms ease" transform="translate(120.2 -19)"/><text width="136.8" height="37.99" x="188.6" y="0" fill="#fff" dominant-baseline="middle" font-size="13.5" opacity="1" text-anchor="middle">20%</text></g><g id="stacked-bar__Bladder"><path fill="#C05917" d="M0 0h14.1v37.99H0z" opacity=".8" style="transition:height 200ms ease" transform="translate(257 -19)"/></g><g id="stacked-bar__Leukemia"><path fill="#58AC8C" d="M0 0h22.2v37.99H0z" opacity=".8" style="transition:height 200ms ease" transform="translate(271.1 -19)"/></g><g id="stacked-bar__Liver"><path fill="#286BBB" d="M0 0h11.4v37.99H0z" opacity=".8" style="transition:height 200ms ease" transform="translate(293.3 -19)"/></g><g id="stacked-bar__Prostate"><path fill="#883039" d="M0 0h51.3v37.99H0z" opacity=".8" style="transition:height 200ms ease" transform="translate(304.7 -19)"/><text width="51.3" height="37.99" x="330.35" y="0" fill="#fff" dominant-baseline="middle" font-size="13.5" opacity="1" text-anchor="middle">7.7%</text></g><g id="stacked-bar__Pancreatic"><path fill="#BC8E5A" d="M0 0h37.9v37.99H0z" opacity=".8" style="transition:height 200ms ease" transform="translate(356 -19)"/><text width="37.9" height="37.99" x="374.95" y="0" fill="#000" dominant-baseline="middle" font-size="13.5" opacity="1" text-anchor="middle">5.7%</text></g><g id="stacked-bar__Non-Hodgkin lymphoma"><path fill="#00295B" d="M0 0h16.7v37.99H0z" opacity=".8" style="transition:height 200ms ease" transform="translate(393.8 -19)"/></g><g id="stacked-bar__Lip and oral cavity"><path fill="#C15065" d="M0 0h13.6v37.99H0z" opacity=".8" style="transition:height 200ms ease" transform="translate(410.4 -19)"/></g><g id="stacked-bar__Cervical"><path fill="#18470F" d="M0 0h27.2v37.99H0z" opacity=".8" style="transition:height 200ms ease" transform="translate(424 -19)"/></g><g id="stacked-bar__Brain and central nervous system"><path fill="#9A5129" d="M0 0h29v37.99H0z" opacity=".8" style="transition:height 200ms ease" transform="translate(451.3 -19)"/></g><g id="stacked-bar__Breast"><path fill="#E56E5A" d="M0 0h57.7v37.99H0z" opacity=".8" style="transition:height 200ms ease" transform="translate(480.2 -19)"/><text width="57.7" height="37.99" x="509.05" y="0" fill="#000" dominant-baseline="middle" font-size="13.5" opacity="1" text-anchor="middle">8.6%</text></g><g id="stacked-bar__Esophageal"><path fill="#A2559C" d="M0 0h31.2v37.99H0z" opacity=".8" style="transition:height 200ms ease" transform="translate(537.9 -19)"/></g><g id="stacked-bar__Stomach"><path fill="#38AABA" d="M0 0h59v37.99H0z" opacity=".8" style="transition:height 200ms ease" transform="translate(569.1 -19)"/><text width="59" height="37.99" x="598.6" y="0" fill="#000" dominant-baseline="middle" font-size="13.5" opacity="1" text-anchor="middle">8.8%</text></g><g id="stacked-bar__Colon and rectum"><path fill="#578145" d="M0 0h69.8v37.99H0z" opacity=".8" style="transition:height 200ms ease" transform="translate(628.1 -19)"/><text width="69.8" height="37.99" x="663" y="0" fill="#fff" dominant-baseline="middle" font-size="13.5" opacity="1" text-anchor="middle">10%</text></g><g id="stacked-bar__Lung, trachea and bronchus"><path fill="#970046" d="M0 0h91.5v37.99H0z" opacity=".8" style="transition:height 200ms ease" transform="translate(697.8 -19)"/><text width="91.5" height="37.99" x="743.55" y="0" fill="#fff" dominant-baseline="middle" font-size="13.5" opacity="1" text-anchor="middle">14%</text></g><text id="total__Brazil" fill="#555" dominant-baseline="middle" font-size="13.5" style="fill:#fff;stroke:#fff;stroke-linecap:round;stroke-linejoin:round;stroke-width:.25em;user-select:none" transform="translate(794.3)">100%</text><text fill="#555" dominant-baseline="middle" font-size="13.5" transform="translate(794.3)">100%</text></g><g id="bar__China" class="bar" transform="translate(0 222.97)"><text x="115.2" y="5" fill="#555" font-size="13.5" font-weight="700" text-anchor="end"><tspan x="115.2" y="5">China</tspan></text><g><path fill="#6D3E91" d="M0 0h65.7v37.99H0z" opacity=".8" style="transition:height 200ms ease" transform="translate(120.2 -19)"/><text width="65.7" height="37.99" x="153.05" y="0" fill="#fff" dominant-baseline="middle" font-size="13.5" opacity="1" text-anchor="middle">9.8%</text></g><g><path fill="#C05917" d="M0 0h10.7v37.99H0z" opacity=".8" style="transition:height 200ms ease" transform="translate(185.9 -19)"/></g><g><path fill="#58AC8C" d="M0 0h14v37.99H0z" opacity=".8" style="transition:height 200ms ease" transform="translate(196.7 -19)"/></g><g><path fill="#286BBB" d="M0 0h40.9v37.99H0z" opacity=".8" style="transition:height 200ms ease" transform="translate(210.6 -19)"/><text width="40.9" height="37.99" x="231.05" y="0" fill="#fff" dominant-baseline="middle" font-size="13.5" opacity="1" text-anchor="middle">6.1%</text></g><g><path fill="#883039" d="M0 0h8.9v37.99H0z" opacity=".8" style="transition:height 200ms ease" transform="translate(251.5 -19)"/></g><g><path fill="#BC8E5A" d="M0 0h28.4v37.99H0z" opacity=".8" style="transition:height 200ms ease" transform="translate(260.4 -19)"/></g><g><path fill="#00295B" d="M0 0h10.2v37.99H0z" opacity=".8" style="transition:height 200ms ease" transform="translate(288.8 -19)"/></g><g><path fill="#C15065" d="M0 0h5.7v37.99H0z" opacity=".8" style="transition:height 200ms ease" transform="translate(298.9 -19)"/></g><g><path fill="#18470F" d="M0 0h11.9v37.99H0z" opacity=".8" style="transition:height 200ms ease" transform="translate(304.6 -19)"/></g><g><path fill="#9A5129" d="M0 0h16.4v37.99H0z" opacity=".8" style="transition:height 200ms ease" transform="translate(316.5 -19)"/></g><g><path fill="#E56E5A" d="M0 0h21.7v37.99H0z" opacity=".8" style="transition:height 200ms ease" transform="translate(332.8 -19)"/></g><g><path fill="#A2559C" d="M0 0h70.4v37.99H0z" opacity=".8" style="transition:height 200ms ease" transform="translate(354.5 -19)"/><text width="70.4" height="37.99" x="389.7" y="0" fill="#fff" dominant-baseline="middle" font-size="13.5" opacity="1" text-anchor="middle">11%</text></g><g><path fill="#38AABA" d="M0 0h105.7v37.99H0z" opacity=".8" style="transition:height 200ms ease" transform="translate(424.9 -19)"/><text width="105.7" height="37.99" x="477.75" y="0" fill="#000" dominant-baseline="middle" font-size="13.5" opacity="1" text-anchor="middle">16%</text></g><g><path fill="#578145" d="M0 0h65.4v37.99H0z" opacity=".8" style="transition:height 200ms ease" transform="translate(530.6 -19)"/><text width="65.4" height="37.99" x="563.3" y="0" fill="#fff" dominant-baseline="middle" font-size="13.5" opacity="1" text-anchor="middle">9.8%</text></g><g><path fill="#970046" d="M0 0h193.4v37.99H0z" opacity=".8" style="transition:height 200ms ease" transform="translate(595.9 -19)"/><text width="193.4" height="37.99" x="692.6" y="0" fill="#fff" dominant-baseline="middle" font-size="13.5" opacity="1" text-anchor="middle">29%</text></g><text id="total__China" fill="#555" dominant-baseline="middle" font-size="13.5" style="fill:#fff;stroke:#fff;stroke-linecap:round;stroke-linejoin:round;stroke-width:.25em;user-select:none" transform="translate(794.3)">100%</text><text fill="#555" dominant-baseline="middle" font-size="13.5" transform="translate(794.3)">100%</text></g><g id="bar__France" class="bar" transform="translate(0 270.45)"><text x="115.2" y="5" fill="#555" font-size="13.5" font-weight="700" text-anchor="end"><tspan x="115.2" y="5">France</tspan></text><g><path fill="#6D3E91" d="M0 0h126.8v37.99H0z" opacity=".8" style="transition:height 200ms ease" transform="translate(120.2 -19)"/><text width="126.8" height="37.99" x="183.6" y="0" fill="#fff" dominant-baseline="middle" font-size="13.5" opacity="1" text-anchor="middle">19%</text></g><g><path fill="#C05917" d="M0 0h26.9v37.99H0z" opacity=".8" style="transition:height 200ms ease" transform="translate(247 -19)"/><text width="26.9" height="37.99" x="260.45" y="0" fill="#fff" dominant-baseline="middle" font-size="13.5" opacity="1" text-anchor="middle">4%</text></g><g><path fill="#58AC8C" d="M0 0h26.1v37.99H0z" opacity=".8" style="transition:height 200ms ease" transform="translate(274 -19)"/></g><g><path fill="#286BBB" d="M0 0h29v37.99H0z" opacity=".8" style="transition:height 200ms ease" transform="translate(300.1 -19)"/></g><g><path fill="#883039" d="M0 0h44.6v37.99H0z" opacity=".8" style="transition:height 200ms ease" transform="translate(329 -19)"/><text width="44.6" height="37.99" x="351.3" y="0" fill="#fff" dominant-baseline="middle" font-size="13.5" opacity="1" text-anchor="middle">6.7%</text></g><g><path fill="#BC8E5A" d="M0 0h49.1v37.99H0z" opacity=".8" style="transition:height 200ms ease" transform="translate(373.6 -19)"/><text width="49.1" height="37.99" x="398.15" y="0" fill="#000" dominant-baseline="middle" font-size="13.5" opacity="1" text-anchor="middle">7.3%</text></g><g><path fill="#00295B" d="M0 0h21.4v37.99H0z" opacity=".8" style="transition:height 200ms ease" transform="translate(422.7 -19)"/></g><g><path fill="#C15065" d="M0 0h8.2v37.99H0z" opacity=".8" style="transition:height 200ms ease" transform="translate(444.1 -19)"/></g><g><path fill="#18470F" d="M0 0h6.1v37.99H0z" opacity=".8" style="transition:height 200ms ease" transform="translate(452.3 -19)"/></g><g><path fill="#9A5129" d="M0 0h17v37.99H0z" opacity=".8" style="transition:height 200ms ease" transform="translate(458.4 -19)"/></g><g><path fill="#E56E5A" d="M0 0h53.4v37.99H0z" opacity=".8" style="transition:height 200ms ease" transform="translate(475.4 -19)"/><text width="53.4" height="37.99" x="502.1" y="0" fill="#000" dominant-baseline="middle" font-size="13.5" opacity="1" text-anchor="middle">8%</text></g><g><path fill="#A2559C" d="M0 0h17.8v37.99H0z" opacity=".8" style="transition:height 200ms ease" transform="translate(528.7 -19)"/></g><g><path fill="#38AABA" d="M0 0h23.8v37.99H0z" opacity=".8" style="transition:height 200ms ease" transform="translate(546.5 -19)"/></g><g><path fill="#578145" d="M0 0h85.4v37.99H0z" opacity=".8" style="transition:height 200ms ease" transform="translate(570.2 -19)"/><text width="85.4" height="37.99" x="612.9" y="0" fill="#fff" dominant-baseline="middle" font-size="13.5" opacity="1" text-anchor="middle">13%</text></g><g><path fill="#970046" d="M0 0h133.7v37.99H0z" opacity=".8" style="transition:height 200ms ease" transform="translate(655.6 -19)"/><text width="133.7" height="37.99" x="722.45" y="0" fill="#fff" dominant-baseline="middle" font-size="13.5" opacity="1" text-anchor="middle">20%</text></g><text id="total__France" fill="#555" dominant-baseline="middle" font-size="13.5" style="fill:#fff;stroke:#fff;stroke-linecap:round;stroke-linejoin:round;stroke-width:.25em;user-select:none" transform="translate(794.3)">100%</text><text fill="#555" dominant-baseline="middle" font-size="13.5" transform="translate(794.3)">100%</text></g><g id="bar__India" class="bar" transform="translate(0 317.93)"><text x="115.2" y="5" fill="#555" font-size="13.5" font-weight="700" text-anchor="end"><tspan x="115.2" y="5">India</tspan></text><g><path fill="#6D3E91" d="M0 0h185.6v37.99H0z" opacity=".8" style="transition:height 200ms ease" transform="translate(120.2 -19)"/><text width="185.6" height="37.99" x="213" y="0" fill="#fff" dominant-baseline="middle" font-size="13.5" opacity="1" text-anchor="middle">28%</text></g><g><path fill="#C05917" d="M0 0h10.1v37.99H0z" opacity=".8" style="transition:height 200ms ease" transform="translate(305.8 -19)"/></g><g><path fill="#58AC8C" d="M0 0h25.2v37.99H0z" opacity=".8" style="transition:height 200ms ease" transform="translate(315.9 -19)"/></g><g><path fill="#286BBB" d="M0 0h27v37.99H0z" opacity=".8" style="transition:height 200ms ease" transform="translate(341 -19)"/><text width="27" height="37.99" x="354.5" y="0" fill="#fff" dominant-baseline="middle" font-size="13.5" opacity="1" text-anchor="middle">4%</text></g><g><path fill="#883039" d="M0 0h19.6v37.99H0z" opacity=".8" style="transition:height 200ms ease" transform="translate(368.1 -19)"/></g><g><path fill="#BC8E5A" d="M0 0h14v37.99H0z" opacity=".8" style="transition:height 200ms ease" transform="translate(387.6 -19)"/></g><g><path fill="#00295B" d="M0 0h21.7v37.99H0z" opacity=".8" style="transition:height 200ms ease" transform="translate(401.7 -19)"/></g><g><path fill="#C15065" d="M0 0h55.4v37.99H0z" opacity=".8" style="transition:height 200ms ease" transform="translate(423.3 -19)"/><text width="55.4" height="37.99" x="451" y="0" fill="#fff" dominant-baseline="middle" font-size="13.5" opacity="1" text-anchor="middle">8.3%</text></g><g><path fill="#18470F" d="M0 0h47v37.99H0z" opacity=".8" style="transition:height 200ms ease" transform="translate(478.7 -19)"/><text width="47" height="37.99" x="502.2" y="0" fill="#fff" dominant-baseline="middle" font-size="13.5" opacity="1" text-anchor="middle">7%</text></g><g><path fill="#9A5129" d="M0 0h16.3v37.99H0z" opacity=".8" style="transition:height 200ms ease" transform="translate(525.7 -19)"/></g><g><path fill="#E56E5A" d="M0 0h63.3v37.99H0z" opacity=".8" style="transition:height 200ms ease" transform="translate(542 -19)"/><text width="63.3" height="37.99" x="573.65" y="0" fill="#000" dominant-baseline="middle" font-size="13.5" opacity="1" text-anchor="middle">9.5%</text></g><g><path fill="#A2559C" d="M0 0h29.8v37.99H0z" opacity=".8" style="transition:height 200ms ease" transform="translate(605.2 -19)"/></g><g><path fill="#38AABA" d="M0 0h53.6v37.99H0z" opacity=".8" style="transition:height 200ms ease" transform="translate(635 -19)"/><text width="53.6" height="37.99" x="661.8" y="0" fill="#000" dominant-baseline="middle" font-size="13.5" opacity="1" text-anchor="middle">8%</text></g><g><path fill="#578145" d="M0 0h42.3v37.99H0z" opacity=".8" style="transition:height 200ms ease" transform="translate(688.6 -19)"/><text width="42.3" height="37.99" x="709.75" y="0" fill="#fff" dominant-baseline="middle" font-size="13.5" opacity="1" text-anchor="middle">6.3%</text></g><g><path fill="#970046" d="M0 0h58.4v37.99H0z" opacity=".8" style="transition:height 200ms ease" transform="translate(730.9 -19)"/><text width="58.4" height="37.99" x="760.1" y="0" fill="#fff" dominant-baseline="middle" font-size="13.5" opacity="1" text-anchor="middle">8.7%</text></g><text id="total__India" fill="#555" dominant-baseline="middle" font-size="13.5" style="fill:#fff;stroke:#fff;stroke-linecap:round;stroke-linejoin:round;stroke-width:.25em;user-select:none" transform="translate(794.3)">100%</text><text fill="#555" dominant-baseline="middle" font-size="13.5" transform="translate(794.3)">100%</text></g><g id="bar__Nigeria" class="bar" transform="translate(0 365.42)"><text x="115.2" y="5" fill="#555" font-size="13.5" font-weight="700" text-anchor="end"><tspan x="115.2" y="5">Nigeria</tspan></text><g><path fill="#6D3E91" d="M0 0h126.2v37.99H0z" opacity=".8" style="transition:height 200ms ease" transform="translate(120.2 -19)"/><text width="126.2" height="37.99" x="183.3" y="0" fill="#fff" dominant-baseline="middle" font-size="13.5" opacity="1" text-anchor="middle">19%</text></g><g><path fill="#C05917" d="M0 0h4.6v37.99H0z" opacity=".8" style="transition:height 200ms ease" transform="translate(246.4 -19)"/></g><g><path fill="#58AC8C" d="M0 0h17.1v37.99H0z" opacity=".8" style="transition:height 200ms ease" transform="translate(251 -19)"/></g><g><path fill="#286BBB" d="M0 0h39.5v37.99H0z" opacity=".8" style="transition:height 200ms ease" transform="translate(268.1 -19)"/><text width="39.5" height="37.99" x="287.85" y="0" fill="#fff" dominant-baseline="middle" font-size="13.5" opacity="1" text-anchor="middle">5.9%</text></g><g><path fill="#883039" d="M0 0h126.1v37.99H0z" opacity=".8" style="transition:height 200ms ease" transform="translate(307.6 -19)"/><text width="126.1" height="37.99" x="370.65" y="0" fill="#fff" dominant-baseline="middle" font-size="13.5" opacity="1" text-anchor="middle">19%</text></g><g><path fill="#BC8E5A" d="M0 0h8.1v37.99H0z" opacity=".8" style="transition:height 200ms ease" transform="translate(433.6 -19)"/></g><g><path fill="#00295B" d="M0 0h32v37.99H0z" opacity=".8" style="transition:height 200ms ease" transform="translate(441.7 -19)"/></g><g><path fill="#C15065" d="M0 0h5.9v37.99H0z" opacity=".8" style="transition:height 200ms ease" transform="translate(473.6 -19)"/></g><g><path fill="#18470F" d="M0 0h61.3v37.99H0z" opacity=".8" style="transition:height 200ms ease" transform="translate(479.5 -19)"/><text width="61.3" height="37.99" x="510.15" y="0" fill="#fff" dominant-baseline="middle" font-size="13.5" opacity="1" text-anchor="middle">9.2%</text></g><g><path fill="#9A5129" d="M0 0h6.5v37.99H0z" opacity=".8" style="transition:height 200ms ease" transform="translate(540.7 -19)"/></g><g><path fill="#E56E5A" d="M0 0h136.8v37.99H0z" opacity=".8" style="transition:height 200ms ease" transform="translate(547.2 -19)"/><text width="136.8" height="37.99" x="615.6" y="0" fill="#000" dominant-baseline="middle" font-size="13.5" opacity="1" text-anchor="middle">20%</text></g><g><path fill="#A2559C" d="M0 0h34.5v37.99H0z" opacity=".8" style="transition:height 200ms ease" transform="translate(684 -19)"/></g><g><path fill="#38AABA" d="M0 0h19.3v37.99H0z" opacity=".8" style="transition:height 200ms ease" transform="translate(718.5 -19)"/></g><g><path fill="#578145" d="M0 0h40.4v37.99H0z" opacity=".8" style="transition:height 200ms ease" transform="translate(737.8 -19)"/><text width="40.4" height="37.99" x="758" y="0" fill="#fff" dominant-baseline="middle" font-size="13.5" opacity="1" text-anchor="middle">6%</text></g><g><path fill="#970046" d="M0 0h11.2v37.99H0z" opacity=".8" style="transition:height 200ms ease" transform="translate(778.1 -19)"/></g><text id="total__Nigeria" fill="#555" dominant-baseline="middle" font-size="13.5" style="fill:#fff;stroke:#fff;stroke-linecap:round;stroke-linejoin:round;stroke-width:.25em;user-select:none" transform="translate(794.3)">100%</text><text fill="#555" dominant-baseline="middle" font-size="13.5" transform="translate(794.3)">100%</text></g><g id="bar__South Africa" class="bar" transform="translate(0 412.9)"><text x="115.2" y="5" fill="#555" font-size="13.5" font-weight="700" text-anchor="end"><tspan x="115.2" y="5">South Africa</tspan></text><g><path fill="#6D3E91" d="M0 0h96.2v37.99H0z" opacity=".8" style="transition:height 200ms ease" transform="translate(120.2 -19)"/><text width="96.2" height="37.99" x="168.3" y="0" fill="#fff" dominant-baseline="middle" font-size="13.5" opacity="1" text-anchor="middle">14%</text></g><g><path fill="#C05917" d="M0 0h10.4v37.99H0z" opacity=".8" style="transition:height 200ms ease" transform="translate(216.4 -19)"/></g><g><path fill="#58AC8C" d="M0 0h17.2v37.99H0z" opacity=".8" style="transition:height 200ms ease" transform="translate(226.8 -19)"/></g><g><path fill="#286BBB" d="M0 0h34.1v37.99H0z" opacity=".8" style="transition:height 200ms ease" transform="translate(244 -19)"/></g><g><path fill="#883039" d="M0 0h63.2v37.99H0z" opacity=".8" style="transition:height 200ms ease" transform="translate(278.1 -19)"/><text width="63.2" height="37.99" x="309.7" y="0" fill="#fff" dominant-baseline="middle" font-size="13.5" opacity="1" text-anchor="middle">9.4%</text></g><g><path fill="#BC8E5A" d="M0 0h29.4v37.99H0z" opacity=".8" style="transition:height 200ms ease" transform="translate(341.3 -19)"/></g><g><path fill="#00295B" d="M0 0h20.4v37.99H0z" opacity=".8" style="transition:height 200ms ease" transform="translate(370.7 -19)"/></g><g><path fill="#C15065" d="M0 0h13.5v37.99H0z" opacity=".8" style="transition:height 200ms ease" transform="translate(391 -19)"/></g><g><path fill="#18470F" d="M0 0h65.2v37.99H0z" opacity=".8" style="transition:height 200ms ease" transform="translate(404.5 -19)"/><text width="65.2" height="37.99" x="437.1" y="0" fill="#fff" dominant-baseline="middle" font-size="13.5" opacity="1" text-anchor="middle">9.7%</text></g><g><path fill="#9A5129" d="M0 0h9.4v37.99H0z" opacity=".8" style="transition:height 200ms ease" transform="translate(469.7 -19)"/></g><g><path fill="#E56E5A" d="M0 0h71.6v37.99H0z" opacity=".8" style="transition:height 200ms ease" transform="translate(479.1 -19)"/><text width="71.6" height="37.99" x="514.9" y="0" fill="#000" dominant-baseline="middle" font-size="13.5" opacity="1" text-anchor="middle">11%</text></g><g><path fill="#A2559C" d="M0 0h54.7v37.99H0z" opacity=".8" style="transition:height 200ms ease" transform="translate(550.7 -19)"/><text width="54.7" height="37.99" x="578.05" y="0" fill="#fff" dominant-baseline="middle" font-size="13.5" opacity="1" text-anchor="middle">8.2%</text></g><g><path fill="#38AABA" d="M0 0h30v37.99H0z" opacity=".8" style="transition:height 200ms ease" transform="translate(605.4 -19)"/></g><g><path fill="#578145" d="M0 0h52.8v37.99H0z" opacity=".8" style="transition:height 200ms ease" transform="translate(635.4 -19)"/><text width="52.8" height="37.99" x="661.8" y="0" fill="#fff" dominant-baseline="middle" font-size="13.5" opacity="1" text-anchor="middle">7.9%</text></g><g><path fill="#970046" d="M0 0h101.1v37.99H0z" opacity=".8" style="transition:height 200ms ease" transform="translate(688.2 -19)"/><text width="101.1" height="37.99" x="738.75" y="0" fill="#fff" dominant-baseline="middle" font-size="13.5" opacity="1" text-anchor="middle">15%</text></g><text id="total__South Africa" fill="#555" dominant-baseline="middle" font-size="13.5" style="fill:#fff;stroke:#fff;stroke-linecap:round;stroke-linejoin:round;stroke-width:.25em;user-select:none" transform="translate(794.3)">100%</text><text fill="#555" dominant-baseline="middle" font-size="13.5" transform="translate(794.3)">100%</text></g><g id="bar__United Kingdom" class="bar" transform="translate(0 460.38)"><text x="115.2" y="5" fill="#555" font-size="13.5" font-weight="700" text-anchor="end"><tspan x="115.2" y="5">United Kingdom</tspan></text><g><path fill="#6D3E91" d="M0 0h125.9v37.99H0z" opacity=".8" style="transition:height 200ms ease" transform="translate(120.2 -19)"/><text width="125.9" height="37.99" x="183.15" y="0" fill="#fff" dominant-baseline="middle" font-size="13.5" opacity="1" text-anchor="middle">19%</text></g><g><path fill="#C05917" d="M0 0h24.6v37.99H0z" opacity=".8" style="transition:height 200ms ease" transform="translate(246.1 -19)"/></g><g><path fill="#58AC8C" d="M0 0h20.5v37.99H0z" opacity=".8" style="transition:height 200ms ease" transform="translate(270.7 -19)"/></g><g><path fill="#286BBB" d="M0 0h25.5v37.99H0z" opacity=".8" style="transition:height 200ms ease" transform="translate(291.1 -19)"/></g><g><path fill="#883039" d="M0 0h53.7v37.99H0z" opacity=".8" style="transition:height 200ms ease" transform="translate(316.6 -19)"/><text width="53.7" height="37.99" x="343.45" y="0" fill="#fff" dominant-baseline="middle" font-size="13.5" opacity="1" text-anchor="middle">8%</text></g><g><path fill="#BC8E5A" d="M0 0h42.5v37.99H0z" opacity=".8" style="transition:height 200ms ease" transform="translate(370.2 -19)"/><text width="42.5" height="37.99" x="391.45" y="0" fill="#000" dominant-baseline="middle" font-size="13.5" opacity="1" text-anchor="middle">6.3%</text></g><g><path fill="#00295B" d="M0 0h20.5v37.99H0z" opacity=".8" style="transition:height 200ms ease" transform="translate(412.7 -19)"/></g><g><path fill="#C15065" d="M0 0h7.5v37.99H0z" opacity=".8" style="transition:height 200ms ease" transform="translate(433.2 -19)"/></g><g><path fill="#18470F" d="M0 0h4.7v37.99H0z" opacity=".8" style="transition:height 200ms ease" transform="translate(440.7 -19)"/></g><g><path fill="#9A5129" d="M0 0h17.6v37.99H0z" opacity=".8" style="transition:height 200ms ease" transform="translate(445.4 -19)"/></g><g><path fill="#E56E5A" d="M0 0h49.7v37.99H0z" opacity=".8" style="transition:height 200ms ease" transform="translate(462.9 -19)"/><text width="49.7" height="37.99" x="487.75" y="0" fill="#000" dominant-baseline="middle" font-size="13.5" opacity="1" text-anchor="middle">7.4%</text></g><g><path fill="#A2559C" d="M0 0h34.8v37.99H0z" opacity=".8" style="transition:height 200ms ease" transform="translate(512.7 -19)"/></g><g><path fill="#38AABA" d="M0 0h23.2v37.99H0z" opacity=".8" style="transition:height 200ms ease" transform="translate(547.5 -19)"/></g><g><path fill="#578145" d="M0 0h79.1v37.99H0z" opacity=".8" style="transition:height 200ms ease" transform="translate(570.7 -19)"/><text width="79.1" height="37.99" x="610.25" y="0" fill="#fff" dominant-baseline="middle" font-size="13.5" opacity="1" text-anchor="middle">12%</text></g><g><path fill="#970046" d="M0 0h139.6v37.99H0z" opacity=".8" style="transition:height 200ms ease" transform="translate(649.8 -19)"/><text width="139.6" height="37.99" x="719.6" y="0" fill="#fff" dominant-baseline="middle" font-size="13.5" opacity="1" text-anchor="middle">21%</text></g><text id="total__United Kingdom" fill="#555" dominant-baseline="middle" font-size="13.5" style="fill:#fff;stroke:#fff;stroke-linecap:round;stroke-linejoin:round;stroke-width:.25em;user-select:none" transform="translate(794.3)">100%</text><text fill="#555" dominant-baseline="middle" font-size="13.5" transform="translate(794.3)">100%</text></g><g id="bar__United States" class="bar" transform="translate(0 507.86)"><text x="115.2" y="5" fill="#555" font-size="13.5" font-weight="700" text-anchor="end"><tspan x="115.2" y="5">United States</tspan></text><g><path fill="#6D3E91" d="M0 0h123.1v37.99H0z" opacity=".8" style="transition:height 200ms ease" transform="translate(120.2 -19)"/><text width="123.1" height="37.99" x="181.75" y="0" fill="#fff" dominant-baseline="middle" font-size="13.5" opacity="1" text-anchor="middle">18%</text></g><g><path fill="#C05917" d="M0 0h20.1v37.99H0z" opacity=".8" style="transition:height 200ms ease" transform="translate(243.3 -19)"/></g><g><path fill="#58AC8C" d="M0 0h27.9v37.99H0z" opacity=".8" style="transition:height 200ms ease" transform="translate(263.4 -19)"/></g><g><path fill="#286BBB" d="M0 0h23.2v37.99H0z" opacity=".8" style="transition:height 200ms ease" transform="translate(291.3 -19)"/></g><g><path fill="#883039" d="M0 0h41.2v37.99H0z" opacity=".8" style="transition:height 200ms ease" transform="translate(314.5 -19)"/><text width="41.2" height="37.99" x="335.1" y="0" fill="#fff" dominant-baseline="middle" font-size="13.5" opacity="1" text-anchor="middle">6.2%</text></g><g><path fill="#BC8E5A" d="M0 0h53.4v37.99H0z" opacity=".8" style="transition:height 200ms ease" transform="translate(355.7 -19)"/><text width="53.4" height="37.99" x="382.4" y="0" fill="#000" dominant-baseline="middle" font-size="13.5" opacity="1" text-anchor="middle">8%</text></g><g><path fill="#00295B" d="M0 0h26.3v37.99H0z" opacity=".8" style="transition:height 200ms ease" transform="translate(409.1 -19)"/></g><g><path fill="#C15065" d="M0 0h7.4v37.99H0z" opacity=".8" style="transition:height 200ms ease" transform="translate(435.3 -19)"/></g><g><path fill="#18470F" d="M0 0h6.8v37.99H0z" opacity=".8" style="transition:height 200ms ease" transform="translate(442.7 -19)"/></g><g><path fill="#9A5129" d="M0 0h20.1v37.99H0z" opacity=".8" style="transition:height 200ms ease" transform="translate(449.5 -19)"/></g><g><path fill="#E56E5A" d="M0 0h50v37.99H0z" opacity=".8" style="transition:height 200ms ease" transform="translate(469.5 -19)"/><text width="50" height="37.99" x="494.5" y="0" fill="#000" dominant-baseline="middle" font-size="13.5" opacity="1" text-anchor="middle">7.5%</text></g><g><path fill="#A2559C" d="M0 0h20v37.99H0z" opacity=".8" style="transition:height 200ms ease" transform="translate(519.5 -19)"/></g><g><path fill="#38AABA" d="M0 0h15.4v37.99H0z" opacity=".8" style="transition:height 200ms ease" transform="translate(539.5 -19)"/></g><g><path fill="#578145" d="M0 0h70.3v37.99H0z" opacity=".8" style="transition:height 200ms ease" transform="translate(554.9 -19)"/><text width="70.3" height="37.99" x="590.05" y="0" fill="#fff" dominant-baseline="middle" font-size="13.5" opacity="1" text-anchor="middle">10%</text></g><g><path fill="#970046" d="M0 0h164.2v37.99H0z" opacity=".8" style="transition:height 200ms ease" transform="translate(625.1 -19)"/><text width="164.2" height="37.99" x="707.2" y="0" fill="#fff" dominant-baseline="middle" font-size="13.5" opacity="1" text-anchor="middle">25%</text></g><text id="total__United States" fill="#555" dominant-baseline="middle" font-size="13.5" style="fill:#fff;stroke:#fff;stroke-linecap:round;stroke-linejoin:round;stroke-width:.25em;user-select:none" transform="translate(794.3)">100%</text><text fill="#555" dominant-baseline="middle" font-size="13.5" transform="translate(794.3)">100%</text></g></g></g></g><g id="footer" class="SourcesFooter" style="fill:#5b5b5b"><g id="sources" class="markdown-text-wrap"><text x="16" y="562.7" style="font-size:13.5px;line-height:1.2"><tspan x="16" y="562.7"><tspan style="font-weight:700">Data source:</tspan> IHME, Global Burden of Disease (2024)</tspan></text></g><g id="note" class="markdown-text-wrap"><text x="16" y="580.9" style="font-size:13.5px;line-height:1.2"><tspan x="16" y="580.9"><tspan style="font-weight:700">Note:</tspan> The &apos;Other&apos; category includes cancer types with fewer than 200,000 deaths worldwide in the latest year of data.</tspan></text></g><text id="origin-url" x="616.9" y="562.7" font-size="13.5"><tspan x="616.92" y="562.7"><a href="https://ourworldindata.org/cancer" style="fill:#5b5b5b" target="_blank">OurWorldinData.org/cancer</a> | <a href="https://creativecommons.org/licenses/by/4.0/" style="fill:#5b5b5b" target="_blank">CC BY</a></tspan></text></g></svg>