<?xml version="1.0" encoding="UTF-8"?> <svg xmlns="http://www.w3.org/2000/svg" xmlns:xlink="http://www.w3.org/1999/xlink" fill="none" height="44" viewBox="0 0 44 44" width="44"><clipPath id="a"><path d="m12 12h20v20h-20z"></path></clipPath><rect fill="#ffeff7" height="44" rx="22" width="44"></rect><g clip-path="url(#a)"><path clip-rule="evenodd" d="m25.202 13.875c-.0046.0001-.0091.0019-.0125.005l-9.0813 8.8337c-.0446.0435-.0752.0993-.0878.1604-.0127.061-.0068.1243.0169.182.0236.0576.064.1069.1158.1414.0518.0346.1128.0528.1751.0525h4.11c.1538 0 .3053.0379.441.1103.1357.0723.2515.177.3373.3047.0857.1277.1387.2746.1542.4276.0156.153-.0067.3075-.065.4499l-2.1412 5.235 8.7275-8.4913c.0445-.0434.0751-.0991.0878-.16.0126-.0609.0069-.1242-.0166-.1818-.0235-.0575-.0637-.1068-.1153-.1415-.0517-.0346-.1125-.053-.1747-.0529h-4.11c-.1568 0-.3111-.0393-.4488-.1144s-.2544-.1835-.3393-.3153c-.085-.1319-.1355-.2829-.1469-.4393-.0115-.1564.0165-.3132.0813-.456l2.51-5.5225.0037-.0075c-.0007-.0041-.0024-.008-.005-.0113-.0019-.003-.0045-.0055-.0075-.0075l-.01-.0012zm-1.3213-1.3375c.3167-.3074.7306-.4946 1.1705-.5294s.8782.085 1.2392.3388c.361.2537.6221.6255.7383 1.0512.1163.4257.0803.8786-.1017 1.2806l-1.9075 4.1963h2.6537c1.9625 0 2.9325 2.3862 1.525 3.755l-9.175 8.9275c-.2915.2835-.682.4423-1.0887.4425h-.3775c-.2564 0-.5088-.0631-.735-.1837s-.4192-.295-.5621-.5078-.2313-.4575-.2573-.7125.0111-.5125.1081-.7498l1.9313-4.7212h-2.7138c-1.9625 0-2.9325-2.3863-1.525-3.755l9.0763-8.8338z" fill="#bf3989" fill-rule="evenodd"></path></g></svg> 