<?xml version="1.0" encoding="UTF-8"?> <svg xmlns="http://www.w3.org/2000/svg" fill="none" height="44" viewBox="0 0 44 44" width="44"><rect fill="#ffefee" height="44" rx="22" width="44"></rect><path clip-rule="evenodd" d="m21.2848 13.9059c.235-.0204.4732-.0309.714-.0309s.4789.0105.714.0309c.0443.0038.1351.046.1709.1828l.3614 1.3816c.1832.7006.6864 1.2082 1.2465 1.4856.2169.1074.4261.2285.6262.3621.5207.3478 1.2125.5299 1.9114.3382l1.3786-.3783c.1361-.0373.2181.02.2439.0566.2731.3886.5128.802.7153 1.2362.0185.0398.0277.1392-.073.2386l-1.0185 1.0064c-.5143.5083-.7028 1.1969-.6632 1.8208.0076.12.0115.2413.0115.3635s-.0039.2435-.0115.3635c-.0396.6239.1489 1.3125.6632 1.8208l1.0185 1.0063c.1007.0995.0915.1989.073.2388-.2025.4341-.4422.8475-.7153 1.2361-.0258.0366-.1078.0939-.2439.0566l-1.3786-.3783c-.6989-.1918-1.3907-.0096-1.9114.3382-.2001.1336-.4093.2546-.6262.3621-.5601.2774-1.0633.7849-1.2465 1.4856l-.3614 1.3817c-.0358.1367-.1266.1789-.1709.1827-.2351.0204-.4732.0309-.714.0309s-.479-.0105-.714-.0309c-.0444-.0038-.1352-.046-.171-.1827l-.3613-1.3818c-.1833-.7006-.6864-1.2081-1.2466-1.4855-.2169-.1075-.4259-.2285-.626-.3621-.5208-.3478-1.2126-.53-1.9114-.3382l-1.3787.3783c-.1362.0373-.2182-.02-.2439-.0566-.2731-.3886-.5129-.802-.7153-1.2361-.0186-.0399-.0277-.1393.0729-.2388l1.0186-1.0064c.5144-.5083.7029-1.1969.6632-1.8207-.0076-.1201-.0115-.2413-.0115-.3635s.0039-.2434.0115-.3635c.0397-.6238-.1488-1.3124-.6632-1.8207l-1.0186-1.0065c-.1006-.0994-.0915-.1988-.0729-.2386.2024-.4342.4422-.8476.7153-1.2362.0257-.0366.1077-.0939.2439-.0566l1.3787.3783c.6988.1918 1.3906.0096 1.9114-.3382.2001-.1336.4091-.2546.626-.3621.5602-.2774 1.0633-.7849 1.2466-1.4856l.3613-1.3816c.0358-.1368.1266-.179.171-.1828zm.714-1.9059c-.2951 0-.5874.0128-.8764.0379-.9285.0807-1.6112.7684-1.8225 1.5763l-.3614 1.3817c-.0218.0835-.0986.1975-.2648.2799-.2895.1434-.5683.3048-.835.4829-.1537.1026-.2908.1122-.3741.0894l-1.3787-.3783c-.8041-.2206-1.7393.0256-2.2741.7866-.3359.4781-.6312.987-.8806 1.5219-.3937.8443-.1389 1.7785.4544 2.3648l1.0186 1.0064c.0615.0607.1216.184.1099.368-.0101.1596-.0153.3205-.0153.4825s.0052.3229.0153.4825c.0117.184-.0484.3073-.1099.368l-1.0186 1.0064c-.5933.5863-.8481 1.5205-.4544 2.3649.2494.5348.5447 1.0437.8806 1.5217.5348.7611 1.47 1.0074 2.2741.7868l1.3787-.3783c.0833-.0229.2204-.0134.3741.0892.2667.1782.5455.3397.835.4831.1662.0822.243.1963.2648.2798l.3614 1.3816c.2113.8081.894 1.4957 1.8225 1.5764.289.0251.5813.0379.8764.0379s.5874-.0128.8764-.0379c.9284-.0807 1.6112-.7683 1.8225-1.5764l.3613-1.3816c.0219-.0835.0987-.1975.2649-.2798.2895-.1434.5684-.3049.835-.4831.1538-.1026.2908-.1121.3741-.0892l1.3787.3783c.8041.2206 1.7392-.0257 2.2741-.7867.3359-.4781.6311-.987.8805-1.5218.3937-.8444.139-1.7786-.4544-2.3649l-1.0185-1.0064c-.0615-.0607-.1216-.1839-.1099-.3679.0102-.1597.0153-.3206.0153-.4826s-.0051-.3229-.0153-.4826c-.0117-.184.0484-.3072.1099-.3679l1.0185-1.0064c.5934-.5863.8481-1.5205.4544-2.3648-.2494-.5349-.5446-1.0439-.8805-1.5219-.5349-.7611-1.47-1.0072-2.2741-.7866l-1.3787.3782c-.0833.0229-.2203.0133-.3741-.0893-.2666-.1781-.5455-.3396-.835-.483-.1662-.0823-.243-.1964-.2649-.2799l-.3613-1.3816c-.2113-.8079-.8941-1.4956-1.8225-1.5763-.289-.0251-.5813-.0379-.8764-.0379zm1.875 10c0 1.0355-.8395 1.875-1.875 1.875-1.0356 0-1.875-.8395-1.875-1.875s.8394-1.875 1.875-1.875c1.0355 0 1.875.8395 1.875 1.875zm1.875 0c0 2.0711-1.679 3.75-3.75 3.75-2.0711 0-3.75-1.6789-3.75-3.75s1.6789-3.75 3.75-3.75c2.071 0 3.75 1.6789 3.75 3.75z" fill="#d42a32" fill-rule="evenodd"></path></svg> 