<?xml version="1.0" encoding="UTF-8"?> <svg xmlns="http://www.w3.org/2000/svg" fill="none" height="44" viewBox="0 0 44 44" width="44"><rect fill="#eff2ff" height="44" rx="22" width="44"></rect><path clip-rule="evenodd" d="m12 14.1875c0-.5178.4197-.9375.9375-.9375h5.3161c1.5341 0 2.8961.737 3.7513 1.8763.8551-1.1393 2.2172-1.8763 3.7514-1.8763h5.3062c.5177 0 .9375.4197.9375.9375v13.125c0 .5177-.4198.9375-.9375.9375h-5.6342c-.7459 0-1.4613.2964-1.9887.8238l-.7767.7766c-.3661.3661-.9597.3661-1.3258 0l-.7767-.7766c-.5274-.5274-1.2428-.8238-1.9887-.8238h-5.6342c-.5178 0-.9375-.4198-.9375-.9375zm10.9438 3.75c0-1.5533 1.2592-2.8125 2.8125-2.8125h4.3687v11.25h-4.6967c-.8875 0-1.7491.2517-2.4893.7155zm-1.8798 9.155.0048-6.3416-.0027-2.8161c-.0015-1.5522-1.2603-2.8098-2.8125-2.8098h-4.3786v11.25h4.6967c.8888 0 1.7515.2524 2.4923.7175z" fill="#8250df" fill-rule="evenodd"></path></svg> 