<svg width="308" height="143" viewBox="0 0 308 143" fill="none" xmlns="http://www.w3.org/2000/svg">
<rect width="308" height="143" fill="white"/>
<path d="M1.416 60.2H4.104V62.96H1.416V60.2ZM1.416 65.096H4.104V77H1.416V65.096ZM12.8993 64.88C14.4513 64.88 15.6113 65.368 16.3793 66.344C17.1473 67.32 17.5312 68.664 17.5312 70.376V77H14.8673V70.544C14.8673 69.36 14.6593 68.496 14.2433 67.952C13.8433 67.408 13.1713 67.136 12.2273 67.136C11.1073 67.136 10.2433 67.528 9.63525 68.312V77H6.94725V65.096H9.32325L9.41925 66.08C10.4433 65.28 11.6033 64.88 12.8993 64.88ZM23.6438 77.24C22.1878 77.24 20.8358 76.928 19.5878 76.304L19.8518 73.928C21.0838 74.728 22.3158 75.128 23.5478 75.128C24.2038 75.128 24.6998 75.024 25.0358 74.816C25.3878 74.592 25.5638 74.264 25.5638 73.832C25.5638 73.352 25.3878 72.992 25.0358 72.752C24.6838 72.512 24.1078 72.248 23.3078 71.96C22.1398 71.56 21.2518 71.104 20.6438 70.592C20.0518 70.08 19.7558 69.336 19.7558 68.36C19.7558 67.336 20.1398 66.496 20.9078 65.84C21.6918 65.184 22.7878 64.856 24.1958 64.856C25.5078 64.856 26.6838 65.144 27.7238 65.72L27.4598 68.048C26.9318 67.664 26.4118 67.368 25.8997 67.16C25.3878 66.952 24.8358 66.848 24.2438 66.848C23.6518 66.848 23.1958 66.968 22.8758 67.208C22.5558 67.432 22.3958 67.76 22.3958 68.192C22.3958 68.512 22.4838 68.776 22.6598 68.984C22.8358 69.192 23.0838 69.368 23.4038 69.512C23.7398 69.656 24.2598 69.856 24.9638 70.112C26.0358 70.512 26.8518 70.976 27.4118 71.504C27.9878 72.016 28.2758 72.744 28.2758 73.688C28.2758 74.76 27.8918 75.624 27.1238 76.28C26.3558 76.92 25.1958 77.24 23.6438 77.24ZM30.3379 60.2H33.0259V62.96H30.3379V60.2ZM30.3379 65.096H33.0259V77H30.3379V65.096ZM40.6211 83.024C38.9411 83.024 37.5891 82.72 36.5651 82.112C35.5571 81.504 35.0531 80.656 35.0531 79.568C35.0531 78.384 35.7091 77.448 37.0211 76.76C36.3011 76.344 35.9411 75.808 35.9411 75.152C35.9411 74.384 36.3651 73.816 37.2131 73.448C36.5891 73.032 36.1091 72.488 35.7731 71.816C35.4531 71.144 35.2931 70.392 35.2931 69.56C35.2931 68.68 35.4851 67.888 35.8691 67.184C36.2531 66.464 36.8051 65.896 37.5251 65.48C38.2611 65.064 39.1331 64.856 40.1411 64.856C41.2291 64.856 42.1651 65.128 42.9491 65.672C43.2531 65.496 43.6371 65.352 44.1011 65.24C44.5811 65.128 45.0931 65.072 45.6371 65.072H46.1891L45.9731 66.776H45.0851C44.7811 66.776 44.4771 66.808 44.1731 66.872C44.7331 67.624 45.0131 68.52 45.0131 69.56C45.0131 70.44 44.8211 71.24 44.4371 71.96C44.0531 72.68 43.4931 73.256 42.7571 73.688C42.0211 74.104 41.1491 74.312 40.1411 74.312C39.6931 74.312 39.2371 74.248 38.7731 74.12C38.5171 74.216 38.3891 74.376 38.3891 74.6C38.3891 74.792 38.5091 74.952 38.7491 75.08C39.0051 75.208 39.3971 75.304 39.9251 75.368L42.3731 75.728C45.0931 76.112 46.4531 77.256 46.4531 79.16C46.4531 80.376 45.9331 81.32 44.8931 81.992C43.8691 82.68 42.4451 83.024 40.6211 83.024ZM40.1411 72.272C40.9091 72.272 41.5011 72.032 41.9171 71.552C42.3331 71.056 42.5411 70.392 42.5411 69.56C42.5411 68.728 42.3331 68.072 41.9171 67.592C41.5011 67.112 40.9091 66.872 40.1411 66.872C39.3731 66.872 38.7811 67.12 38.3651 67.616C37.9491 68.096 37.7411 68.744 37.7411 69.56C37.7411 70.392 37.9491 71.056 38.3651 71.552C38.7811 72.032 39.3731 72.272 40.1411 72.272ZM40.7651 80.888C42.9091 80.888 43.9811 80.368 43.9811 79.328C43.9811 78.896 43.7971 78.56 43.4291 78.32C43.0771 78.096 42.5091 77.92 41.7251 77.792L38.8451 77.336C38.3971 77.512 38.0371 77.744 37.7651 78.032C37.5091 78.336 37.3811 78.688 37.3811 79.088C37.3811 79.696 37.6771 80.144 38.2691 80.432C38.8611 80.736 39.6931 80.888 40.7651 80.888ZM53.7731 64.88C55.2771 64.88 56.4051 65.376 57.1571 66.368C57.9251 67.344 58.3091 68.68 58.3091 70.376V77H55.6211V70.616C55.6211 69.416 55.4211 68.536 55.0211 67.976C54.6211 67.416 53.9811 67.136 53.1011 67.136C52.0451 67.136 51.1891 67.544 50.5331 68.36V77H47.8451V59H50.5331V66.008C51.0131 65.64 51.5091 65.36 52.0211 65.168C52.5331 64.976 53.1171 64.88 53.7731 64.88ZM64.8135 77.24C63.7735 77.24 62.9815 76.944 62.4375 76.352C61.9095 75.76 61.6455 75.048 61.6455 74.216V67.256H59.8455L60.0855 65.096H61.6455V62.36L64.3335 62.072V65.096H67.1415V67.256H64.3335V72.968C64.3335 73.672 64.3735 74.16 64.4535 74.432C64.5335 74.688 64.7015 74.856 64.9575 74.936C65.2295 75.016 65.7095 75.056 66.3975 75.056H67.1175L66.8775 77.24H64.8135Z" fill="black"/>
<path d="M247.976 64.88C249.544 64.88 250.712 65.344 251.48 66.272C252.248 67.184 252.632 68.504 252.632 70.232V77H249.944V70.376C249.944 69.256 249.752 68.44 249.368 67.928C249 67.4 248.384 67.136 247.52 67.136C246.576 67.136 245.896 67.424 245.48 68C245.064 68.576 244.856 69.336 244.856 70.28V77H242.192V70.544C242.192 69.328 241.984 68.456 241.568 67.928C241.168 67.4 240.552 67.136 239.72 67.136C238.584 67.136 237.712 67.536 237.104 68.336V77H234.416V65.096H236.648L236.816 66.152C237.872 65.304 239.064 64.88 240.392 64.88C242.024 64.88 243.216 65.512 243.968 66.776C244.384 66.168 244.928 65.704 245.6 65.384C246.288 65.048 247.08 64.88 247.976 64.88ZM257.986 77.24C256.962 77.24 256.114 76.92 255.442 76.28C254.786 75.624 254.458 74.768 254.458 73.712C254.458 72.672 254.826 71.84 255.562 71.216C256.298 70.592 257.178 70.152 258.202 69.896C259.242 69.624 260.274 69.472 261.298 69.44C261.282 68.608 261.098 68.032 260.746 67.712C260.394 67.376 259.81 67.208 258.994 67.208C258.482 67.208 257.97 67.288 257.458 67.448C256.962 67.592 256.402 67.832 255.778 68.168L255.49 65.984C256.834 65.248 258.25 64.88 259.738 64.88C261.178 64.88 262.25 65.28 262.954 66.08C263.658 66.864 264.01 68.168 264.01 69.992V72.944C264.01 73.568 264.034 74.024 264.082 74.312C264.146 74.584 264.25 74.776 264.394 74.888C264.554 75 264.81 75.056 265.162 75.056H265.498L265.186 77.24H264.442C263.674 77.24 263.074 77.112 262.642 76.856C262.226 76.6 261.89 76.224 261.634 75.728C261.218 76.192 260.69 76.56 260.05 76.832C259.41 77.104 258.722 77.24 257.986 77.24ZM258.946 75.152C259.346 75.152 259.762 75.056 260.194 74.864C260.642 74.656 261.018 74.376 261.322 74.024V71.264C260.09 71.312 259.098 71.528 258.346 71.912C257.61 72.296 257.242 72.856 257.242 73.592C257.242 74.632 257.81 75.152 258.946 75.152ZM267.111 59H269.799V70.136L273.735 65.096H276.831L272.343 70.736L276.927 77H273.831L269.799 71.432V77H267.111V59ZM278.455 60.2H281.143V62.96H278.455V60.2ZM278.455 65.096H281.143V77H278.455V65.096ZM289.938 64.88C291.49 64.88 292.65 65.368 293.418 66.344C294.186 67.32 294.57 68.664 294.57 70.376V77H291.906V70.544C291.906 69.36 291.698 68.496 291.282 67.952C290.882 67.408 290.21 67.136 289.266 67.136C288.146 67.136 287.282 67.528 286.674 68.312V77H283.986V65.096H286.362L286.458 66.08C287.482 65.28 288.642 64.88 289.938 64.88ZM302.051 83.024C300.371 83.024 299.019 82.72 297.995 82.112C296.987 81.504 296.483 80.656 296.483 79.568C296.483 78.384 297.139 77.448 298.451 76.76C297.731 76.344 297.371 75.808 297.371 75.152C297.371 74.384 297.795 73.816 298.643 73.448C298.019 73.032 297.539 72.488 297.203 71.816C296.883 71.144 296.723 70.392 296.723 69.56C296.723 68.68 296.915 67.888 297.299 67.184C297.683 66.464 298.235 65.896 298.955 65.48C299.691 65.064 300.563 64.856 301.571 64.856C302.659 64.856 303.595 65.128 304.379 65.672C304.683 65.496 305.067 65.352 305.531 65.24C306.011 65.128 306.523 65.072 307.067 65.072H307.619L307.403 66.776H306.515C306.211 66.776 305.907 66.808 305.603 66.872C306.163 67.624 306.443 68.52 306.443 69.56C306.443 70.44 306.251 71.24 305.867 71.96C305.483 72.68 304.923 73.256 304.187 73.688C303.451 74.104 302.579 74.312 301.571 74.312C301.123 74.312 300.667 74.248 300.203 74.12C299.947 74.216 299.819 74.376 299.819 74.6C299.819 74.792 299.939 74.952 300.179 75.08C300.435 75.208 300.827 75.304 301.355 75.368L303.803 75.728C306.523 76.112 307.883 77.256 307.883 79.16C307.883 80.376 307.363 81.32 306.323 81.992C305.299 82.68 303.875 83.024 302.051 83.024ZM301.571 72.272C302.339 72.272 302.931 72.032 303.347 71.552C303.763 71.056 303.971 70.392 303.971 69.56C303.971 68.728 303.763 68.072 303.347 67.592C302.931 67.112 302.339 66.872 301.571 66.872C300.803 66.872 300.211 67.12 299.795 67.616C299.379 68.096 299.171 68.744 299.171 69.56C299.171 70.392 299.379 71.056 299.795 71.552C300.211 72.032 300.803 72.272 301.571 72.272ZM302.195 80.888C304.339 80.888 305.411 80.368 305.411 79.328C305.411 78.896 305.227 78.56 304.859 78.32C304.507 78.096 303.939 77.92 303.155 77.792L300.275 77.336C299.827 77.512 299.467 77.744 299.195 78.032C298.939 78.336 298.811 78.688 298.811 79.088C298.811 79.696 299.107 80.144 299.699 80.432C300.291 80.736 301.123 80.888 302.195 80.888Z" fill="black"/>
<path d="M265.799 43.9795C266.34 44.0907 266.868 43.7423 266.98 43.2013L268.791 34.3855C268.902 33.8445 268.554 33.3158 268.013 33.2047C267.472 33.0935 266.943 33.4419 266.832 33.9829L265.222 41.8192L257.385 40.2089C256.845 40.0977 256.316 40.4461 256.205 40.9871C256.094 41.5281 256.442 42.0568 256.983 42.1679L265.799 43.9795ZM41.8101 43.5863C51.7134 29.9039 68.3853 19.6861 88.4958 12.9208C108.592 6.1602 132.03 2.87962 155.337 3.00337C178.644 3.12713 201.774 6.65509 221.256 13.4759C240.756 20.3031 256.491 30.3896 265.165 43.5503L266.835 42.4497C257.823 28.7762 241.626 18.4886 221.917 11.5882C202.189 4.68137 178.834 1.12811 155.348 1.0034C131.861 0.878692 108.199 4.18241 87.8581 11.0252C67.5312 17.8633 50.4285 28.2681 40.1899 42.4137L41.8101 43.5863Z" fill="black"/>
<path d="M41.2013 98.0205C40.6603 97.9093 40.1316 98.2577 40.0205 98.7987L38.2089 107.614C38.0977 108.155 38.4461 108.684 38.9871 108.795C39.5281 108.906 40.0568 108.558 40.1679 108.017L41.7782 100.181L49.6145 101.791C50.1555 101.902 50.6842 101.554 50.7953 101.013C50.9065 100.472 50.5581 99.9432 50.0171 99.8321L41.2013 98.0205ZM265.19 98.4137C255.287 112.096 238.615 122.314 218.504 129.079C198.408 135.84 174.97 139.12 151.663 138.997C128.356 138.873 105.226 135.345 85.744 128.524C66.2439 121.697 50.5088 111.61 41.835 98.4497L40.165 99.5503C49.1768 113.224 65.374 123.511 85.0831 130.412C104.811 137.319 128.166 140.872 151.652 140.997C175.139 141.121 198.801 137.818 219.142 130.975C239.469 124.137 256.571 113.732 266.81 99.5863L265.19 98.4137Z" fill="black"/>
</svg>
