<?xml version="1.0" encoding="utf-8"?>
<!-- Generator: Adobe Illustrator 27.5.0, SVG Export Plug-In . SVG Version: 6.00 Build 0)  -->
<svg version="1.1" id="Layer_1" xmlns="http://www.w3.org/2000/svg" xmlns:xlink="http://www.w3.org/1999/xlink" x="0px" y="0px"
	 viewBox="0 0 1366 645" style="enable-background:new 0 0 1366 645;" xml:space="preserve">
<style type="text/css">
	.st0{fill:#FFFFFF;}
	.st1{fill:none;stroke:#231F20;stroke-width:0.75;stroke-miterlimit:10;}
	.st2{enable-background:new    ;}
	.st3{fill:#231F20;}
	.st4{fill:none;stroke:#F15B40;stroke-width:3;stroke-linejoin:round;stroke-dasharray:0,0,6.57,3.28;}
	.st5{fill:none;stroke:#60C3AD;stroke-width:3;stroke-linejoin:round;}
	.st6{fill:none;stroke:#FFCA05;stroke-width:3;stroke-linejoin:round;}
	.st7{fill:none;stroke:#F15B40;stroke-width:3;stroke-linejoin:round;}
	.st8{fill:none;stroke:#F15B40;stroke-width:3;stroke-linejoin:round;stroke-dasharray:0,0,4.07,2.04;}
	.st9{fill:none;stroke:#F15B40;stroke-width:3;stroke-linejoin:round;stroke-dasharray:0,0,4.28,2.14;}
	.st10{fill:none;stroke:#F15B40;stroke-width:3;stroke-linejoin:round;stroke-dasharray:0,0,6.61,3.3;}
</style>
<g>
	<g id="Layer_1_00000143619719663769484130000014295831807625485976_">
		<rect x="1.4" y="2.4" class="st0" width="1363.2" height="642.2"/>
		<path d="M1363.2,3.8v639.4H2.8V3.8H1363.2 M1366,1H0v645h1366L1366,1L1366,1L1366,1z"/>
		<polyline class="st1" points="141.8,200.4 141.8,520.6 566.6,520.6 		"/>
		<polyline class="st1" points="778.9,200.4 778.9,520.6 1209.5,520.6 		"/>
		<g>
			<g class="st2">
				<path class="st3" d="M140.2,532.9c2.8,0,4.5,2.1,4.5,6.5c0,4.4-1.8,6.5-4.5,6.5c-2.8,0-4.5-2.2-4.5-6.5
					C135.7,535,137.5,532.9,140.2,532.9z M143.1,539.4c0-3.5-1.1-5.3-2.9-5.3c-1.8,0-2.9,1.7-2.9,5.3c0,3.5,1.1,5.2,2.9,5.2
					C142,544.7,143.1,542.9,143.1,539.4z"/>
			</g>
		</g>
		<g>
			<g class="st2">
				<path class="st3" d="M239,576.5l-4.6-7.4h1.8l3.5,6h0l3.7-6h1.7l-4.6,7.3v5.7H239V576.5z"/>
			</g>
			<g class="st2">
				<path class="st3" d="M248.9,582.2c-2.7,0-4-2-4-4.7c0-2.7,1.4-4.7,4-4.7c2.7,0,3.7,2.1,3.7,4.3v0.8h-6.2
					c0.1,1.9,0.9,3.1,2.5,3.1c1.5,0,1.9-0.9,2-1.4h1.5C252.2,581.2,250.8,582.2,248.9,582.2z M251,576.6c0-1.5-0.6-2.7-2.2-2.7
					c-1.4,0-2.2,1.1-2.4,2.8h4.6V576.6z"/>
				<path class="st3" d="M254.7,575.5c0-1.6,1.2-2.7,3.4-2.7c2.2,0,3.3,0.9,3.3,3.3v3.7c0,0.7,0.2,1,0.8,1v1.2H262
					c-1.4,0-1.9-0.5-2.1-1.6h0c-0.5,1.1-1.5,1.7-2.9,1.7c-1.8,0-2.8-1-2.8-2.6c0-1,0.4-1.8,1.3-2.3c0.9-0.5,2.3-0.7,4.3-0.7v-0.4
					c0-1.6-0.6-2.2-1.9-2.2c-1.3,0-1.8,0.8-1.9,1.5H254.7z M259.9,577.9v-0.2c-1.9,0.1-3,0.2-3.6,0.7c-0.3,0.3-0.5,0.6-0.5,1.1
					c0,0.9,0.6,1.4,1.6,1.4C258.5,580.9,259.9,580.2,259.9,577.9z"/>
			</g>
			<g class="st2">
				<path class="st3" d="M264.4,573.1h1.4v1.7h0c0.4-0.9,1.5-1.9,2.8-1.9h0.2v1.6h-0.3c-1.6,0-2.7,0.9-2.7,2.7v4.9h-1.5V573.1z"/>
			</g>
			<g class="st2">
				<path class="st3" d="M275.3,575.3c-0.1-0.8-0.7-1.3-1.8-1.3c-1.1,0-1.8,0.6-1.8,1.4c0,0.7,0.4,1.1,1.3,1.2l1.4,0.2
					c1.9,0.3,2.5,1.1,2.5,2.6c0,1.8-1.5,2.8-3.5,2.8c-1.9,0-3.4-0.8-3.5-2.8h1.5c0.1,0.7,0.5,1.6,2,1.6c1.2,0,2-0.6,2-1.5
					c0-0.7-0.2-1.1-1.4-1.3l-1.4-0.2c-1.6-0.3-2.4-0.9-2.4-2.5c0-1.6,1.2-2.7,3.2-2.7c1.9,0,3,0.9,3.2,2.5H275.3z"/>
			</g>
			<g class="st2">
				<path class="st3" d="M288.5,575.3c-0.1-0.8-0.7-1.3-1.8-1.3c-1.1,0-1.8,0.6-1.8,1.4c0,0.7,0.4,1.1,1.3,1.2l1.4,0.2
					c1.9,0.3,2.5,1.1,2.5,2.6c0,1.8-1.5,2.8-3.5,2.8c-1.9,0-3.4-0.8-3.5-2.8h1.5c0.1,0.7,0.5,1.6,2,1.6c1.2,0,2-0.6,2-1.5
					c0-0.7-0.2-1.1-1.4-1.3L286,578c-1.6-0.3-2.4-0.9-2.4-2.5c0-1.6,1.2-2.7,3.2-2.7c1.9,0,3,0.9,3.2,2.5H288.5z"/>
			</g>
			<g class="st2">
				<path class="st3" d="M292.7,569.4h1.6v1.6h-1.6V569.4z M292.7,573.1h1.5v9h-1.5V573.1z"/>
				<path class="st3" d="M303.1,576.5c0-0.6,0-1.4-0.3-1.8c-0.3-0.4-0.8-0.6-1.4-0.6c-1.7,0-2.4,1.1-2.4,2.5v5.4h-1.5v-9h1.4v1.5h0
					c0.4-0.9,1.5-1.7,2.9-1.7c1.7,0,2.9,0.8,2.9,2.9v6.2h-1.5V576.5z"/>
			</g>
			<g class="st2">
				<path class="st3" d="M313,575.8c-0.1-0.9-0.7-1.8-2-1.8c-1.6,0-2.5,1.4-2.5,3.5c0,2.1,0.6,3.5,2.4,3.5c1.7,0,2.1-1.3,2.2-1.9
					h1.4c-0.2,2.1-1.7,3.1-3.6,3.1c-2.6,0-4-1.8-4-4.6c0-2.7,1.5-4.7,4-4.7c1.8,0,3.4,0.8,3.6,2.9H313z"/>
			</g>
			<g class="st2">
				<path class="st3" d="M320.2,582.2c-2.7,0-4-2-4-4.7c0-2.7,1.4-4.7,4-4.7c2.7,0,3.7,2.1,3.7,4.3v0.8h-6.2
					c0.1,1.9,0.9,3.1,2.5,3.1c1.5,0,1.9-0.9,2-1.4h1.5C323.5,581.2,322.1,582.2,320.2,582.2z M322.3,576.6c0-1.5-0.6-2.7-2.2-2.7
					c-1.4,0-2.2,1.1-2.4,2.8h4.6V576.6z"/>
			</g>
			<g class="st2">
				<path class="st3" d="M330.9,573.1h1.4v1.7h0c0.4-0.9,1.5-1.9,2.8-1.9h0.2v1.6h-0.3c-1.6,0-2.7,0.9-2.7,2.7v4.9h-1.5V573.1z"/>
			</g>
			<g class="st2">
				<path class="st3" d="M337.1,575.5c0-1.6,1.2-2.7,3.4-2.7c2.2,0,3.3,0.9,3.3,3.3v3.7c0,0.7,0.2,1,0.8,1v1.2h-0.2
					c-1.4,0-1.9-0.5-2.1-1.6h0c-0.5,1.1-1.5,1.7-2.9,1.7c-1.8,0-2.8-1-2.8-2.6c0-1,0.4-1.8,1.3-2.3c0.9-0.5,2.3-0.7,4.3-0.7v-0.4
					c0-1.6-0.6-2.2-1.9-2.2c-1.3,0-1.8,0.8-1.9,1.5H337.1z M342.3,577.9v-0.2c-1.9,0.1-3,0.2-3.6,0.7c-0.3,0.3-0.5,0.6-0.5,1.1
					c0,0.9,0.6,1.4,1.6,1.4C340.9,580.9,342.3,580.2,342.3,577.9z"/>
				<path class="st3" d="M352.5,576.5c0-0.6,0-1.4-0.3-1.8c-0.3-0.4-0.8-0.6-1.4-0.6c-1.7,0-2.4,1.1-2.4,2.5v5.4h-1.5v-9h1.4v1.5h0
					c0.4-0.9,1.5-1.7,2.9-1.7c1.7,0,2.9,0.8,2.9,2.9v6.2h-1.5V576.5z"/>
				<path class="st3" d="M364.4,582h-1.5v-1.5h-0.1c-0.5,0.9-1.4,1.7-2.8,1.7c-1.9,0-3.7-1.2-3.7-4.6c0-3.1,1.6-4.8,3.9-4.8
					c1.3,0,2.2,0.7,2.6,1.6h0v-5.8h1.5V582z M362.9,577.2c0-1.9-1-3.1-2.4-3.1c-1.7,0-2.5,1.4-2.5,3.5c0,2,0.6,3.5,2.4,3.5
					c1.6,0,2.5-1.3,2.5-2.9V577.2z"/>
				<path class="st3" d="M366.8,577.5c0-2.8,1.5-4.7,4-4.7c2.7,0,4,1.9,4,4.7c0,2.8-1.5,4.7-4,4.7
					C368.1,582.2,366.8,580.3,366.8,577.5z M368.3,577.5c0,2.2,0.7,3.5,2.5,3.5c1.7,0,2.4-1.3,2.4-3.5c0-2.2-0.7-3.5-2.4-3.5
					C369.1,574,368.3,575.3,368.3,577.5z"/>
				<path class="st3" d="M377.2,573.1h1.4v1.5h0c0.4-0.9,1.4-1.7,2.9-1.7c1.4,0,2.4,0.6,2.7,1.9h0c0.3-0.9,1.4-1.9,2.9-1.9
					c1.7,0,2.8,0.8,2.8,2.9v6.2h-1.5v-5.5c0-0.6,0-1.3-0.3-1.8c-0.3-0.4-0.8-0.6-1.4-0.6c-1.7,0-2.4,1.1-2.4,2.5v5.4h-1.5v-5.5
					c0-0.6,0-1.3-0.3-1.8c-0.3-0.4-0.8-0.6-1.4-0.6c-1.7,0-2.4,1.1-2.4,2.5v5.4h-1.5V573.1z"/>
				<path class="st3" d="M393.1,569.4h1.6v1.6h-1.6V569.4z M393.2,573.1h1.5v9h-1.5V573.1z"/>
				<path class="st3" d="M397.4,573.1h6.7v1.3l-5.3,6.4h5.4v1.3h-7.1v-1.3l5.2-6.4h-5V573.1z"/>
				<path class="st3" d="M406.3,575.5c0-1.6,1.2-2.7,3.4-2.7c2.2,0,3.3,0.9,3.3,3.3v3.7c0,0.7,0.2,1,0.8,1v1.2h-0.2
					c-1.4,0-1.9-0.5-2.1-1.6h0c-0.5,1.1-1.5,1.7-2.9,1.7c-1.8,0-2.8-1-2.8-2.6c0-1,0.4-1.8,1.3-2.3c0.9-0.5,2.3-0.7,4.3-0.7v-0.4
					c0-1.6-0.6-2.2-1.9-2.2c-1.3,0-1.8,0.8-1.9,1.5H406.3z M411.5,577.9v-0.2c-1.9,0.1-3,0.2-3.6,0.7c-0.3,0.3-0.5,0.6-0.5,1.1
					c0,0.9,0.6,1.4,1.6,1.4C410.1,580.9,411.5,580.2,411.5,577.9z"/>
			</g>
			<g class="st2">
				<path class="st3" d="M418,570.5v2.6h2.2v1.2H418v5.3c0,1,0.4,1.3,1.4,1.3c0.5,0,1-0.1,1-0.1v1.3c0,0-0.6,0.1-1.4,0.1
					c-1.8,0-2.4-0.8-2.4-2.4v-5.5h-1.6v-1.1h0.3c1.2,0,1.5-0.3,1.5-2v-0.6H418z"/>
			</g>
			<g class="st2">
				<path class="st3" d="M422.4,569.4h1.6v1.6h-1.6V569.4z M422.4,573.1h1.5v9h-1.5V573.1z"/>
				<path class="st3" d="M426.4,577.5c0-2.8,1.5-4.7,4-4.7c2.7,0,4,1.9,4,4.7c0,2.8-1.5,4.7-4,4.7
					C427.7,582.2,426.4,580.3,426.4,577.5z M428,577.5c0,2.2,0.7,3.5,2.5,3.5c1.7,0,2.4-1.3,2.4-3.5c0-2.2-0.7-3.5-2.4-3.5
					C428.8,574,428,575.3,428,577.5z"/>
				<path class="st3" d="M442.5,576.5c0-0.6,0-1.4-0.3-1.8c-0.3-0.4-0.8-0.6-1.4-0.6c-1.7,0-2.4,1.1-2.4,2.5v5.4h-1.5v-9h1.4v1.5h0
					c0.4-0.9,1.5-1.7,2.9-1.7c1.7,0,2.9,0.8,2.9,2.9v6.2h-1.5V576.5z"/>
			</g>
		</g>
		<g>
			<g class="st2">
				<path class="st3" d="M213.3,536.9c0-2.5,1.8-4,4.1-4c2.8,0,3.9,1.7,3.9,3.4c0,1.7-0.7,2.7-2.8,4.7l-3.4,3.3v0h6.3v1.4H213v-1.2
					l4.3-4.3c1.4-1.5,2.3-2.4,2.3-3.8c0-1.3-0.9-2.2-2.3-2.2c-1.3,0-2.5,0.8-2.5,2.8H213.3z"/>
			</g>
		</g>
		<g>
			<g class="st2">
				<path class="st3" d="M302.6,542.6v3.1h-1.5v-3.1h-5.9v-1.2l5.7-8.3h1.7v8.2h1.6v1.3H302.6z M301.1,541.3v-6.4h0
					c0,0-0.2,0.5-0.8,1.3l-3.5,5.1H301.1z"/>
			</g>
		</g>
		<g>
			<g class="st2">
				<path class="st3" d="M380.7,535.8c-0.2-1-0.9-1.7-2.2-1.7c-2.2,0-3,2.3-3.1,5.3h0.1c0.6-1.1,1.8-1.8,3.2-1.8
					c1.9,0,3.9,1.2,3.9,4c0,2.5-1.6,4.3-4.3,4.3c-2.3,0-4.4-1.1-4.4-5.8c0-4.8,1.5-7.2,4.6-7.2c2.3,0,3.5,1.1,3.7,2.9H380.7z
					 M380.9,541.7c0-1.9-1.2-2.9-2.7-2.9c-1.5,0-2.7,0.9-2.7,2.9c0,2,1.3,2.9,2.7,2.9C379.5,544.6,380.9,543.8,380.9,541.7z"/>
			</g>
		</g>
		<g>
			<g class="st2">
				<path class="st3" d="M457.6,532.9c2.4,0,4,1.5,4,3.4c0,1.5-1,2.6-2.1,2.9v0c1.1,0.3,2.4,1.2,2.4,3.1c0,2-1.7,3.6-4.4,3.6
					c-2.7,0-4.3-1.5-4.3-3.6c0-1.9,1.4-2.8,2.4-3.1v0c-1-0.3-2-1.4-2-2.9C453.6,534.4,455.2,532.9,457.6,532.9z M460.4,542.3
					c0-1.7-1.3-2.4-2.8-2.4c-1.4,0-2.8,0.7-2.8,2.4s1.3,2.4,2.8,2.4C459.1,544.7,460.4,544,460.4,542.3z M455.2,536.4
					c0,1.5,1.1,2.3,2.4,2.3c1.2,0,2.4-0.8,2.4-2.3c0-1.6-1.1-2.3-2.4-2.3C456.3,534.1,455.2,534.8,455.2,536.4z"/>
			</g>
		</g>
		<g>
			<g class="st2">
				<path class="st3" d="M531.9,536.4h-2.5v-1.1h0.4c0.9,0,1.5-0.2,1.9-0.6c0.4-0.4,0.5-0.9,0.6-1.7h1.3v12.6h-1.5V536.4z"/>
				<path class="st3" d="M541.3,532.9c2.8,0,4.5,2.1,4.5,6.5c0,4.4-1.8,6.5-4.5,6.5c-2.8,0-4.5-2.2-4.5-6.5
					C536.8,535,538.6,532.9,541.3,532.9z M544.2,539.4c0-3.5-1.1-5.3-2.9-5.3c-1.8,0-2.9,1.7-2.9,5.3c0,3.5,1.1,5.2,2.9,5.2
					C543,544.7,544.2,542.9,544.2,539.4z"/>
			</g>
		</g>
		<g>
			<g class="st2">
				<path class="st3" d="M98.5,215.4H96v-1.1h0.4c0.8,0,1.5-0.2,1.9-0.6c0.4-0.4,0.5-0.9,0.6-1.7h1.3v12.6h-1.5V215.4z"/>
			</g>
			<g class="st2">
				<path class="st3" d="M103,222.6h2.1v2.1H103V222.6z"/>
			</g>
			<g class="st2">
				<path class="st3" d="M111.2,217.7c-1,0-1.9,0.4-2.3,1.1h-1.3l0.5-6.7h6.7v1.3h-5.4l-0.3,4h0c0.4-0.5,1.3-1,2.4-1
					c2,0,3.9,1.2,3.9,4.2c0,2.6-1.7,4.3-4.3,4.3c-2.8,0-3.9-1.8-4-3.5h1.5c0.1,1.6,1.1,2.2,2.5,2.2c1.3,0,2.7-0.9,2.7-3
					C113.9,218.7,112.7,217.7,111.2,217.7z"/>
			</g>
			<g class="st2">
				<path class="st3" d="M117.4,215.1c0-2.1,1.3-3.1,2.9-3.1c1.6,0,2.9,1,2.9,3.1c0,2-1.3,3.1-2.9,3.1
					C118.7,218.2,117.4,217.1,117.4,215.1z M128,211.4h1.4l-9.3,14h-1.4L128,211.4z M121.8,215.1c0-1.3-0.6-2-1.5-2
					c-0.9,0-1.5,0.6-1.5,2c0,1.3,0.6,2,1.5,2C121.2,217.1,121.8,216.4,121.8,215.1z M124.9,221.7c0-2.1,1.3-3.1,2.9-3.1
					c1.6,0,2.9,1,2.9,3.1c0,2-1.3,3.1-2.9,3.1C126.2,224.8,124.9,223.7,124.9,221.7z M129.3,221.7c0-1.3-0.6-2-1.5-2
					c-0.9,0-1.5,0.6-1.5,2c0,1.3,0.6,2,1.5,2C128.7,223.7,129.3,223,129.3,221.7z"/>
			</g>
		</g>
		<g>
			<path class="st3" d="M546.5,200.4h1.8l2,7.1c0.2,0.7,0.3,1.3,0.3,1.3h0c0,0,0.2-0.7,0.4-1.3l2.2-7.1h1.8l2.2,7.1
				c0.2,0.6,0.4,1.3,0.4,1.3h0c0,0,0.2-0.7,0.3-1.3l2.1-7.1h1.7l-3.3,10.5h-1.9l-1.9-6.2c-0.3-1-0.7-2.2-0.7-2.2h0
				c0,0-0.4,1.3-0.7,2.2l-1.9,6.2h-1.9L546.5,200.4z"/>
			<path class="st3" d="M563.4,205.7c0-3.3,1.8-5.5,4.7-5.5c3.1,0,4.7,2.3,4.7,5.5s-1.8,5.5-4.7,5.5S563.4,209,563.4,205.7z
				 M565.3,205.7c0,2.6,0.9,4.1,2.9,4.1s2.8-1.6,2.8-4.1s-0.8-4.1-2.9-4.1S565.3,203.1,565.3,205.7L565.3,205.7z"/>
			<path class="st3" d="M577.5,206.9c0,0.8,0,1.6,0.4,2.1c0.4,0.5,0.9,0.7,1.6,0.7c2,0,2.9-1.3,2.9-3.6v-5.7h1.8v10.5h-1.7v-1.8h0
				c-0.5,1.1-1.6,2.1-3.3,2.1c-2,0-3.4-1-3.4-3.5v-7.3h1.8L577.5,206.9L577.5,206.9z"/>
			<path class="st3" d="M587.9,195.2h1.8v15.8h-1.8V195.2z"/>
			<path class="st3" d="M601.9,210.9h-1.7v-1.7h-0.1c-0.6,1-1.7,2-3.3,2c-2.2,0-4.3-1.4-4.3-5.5c0-3.6,1.9-5.6,4.5-5.6
				c1.6,0,2.6,0.9,3,1.9h0v-6.8h1.8V210.9L601.9,210.9z M600.1,205.3c0-2.2-1.2-3.7-2.9-3.7c-2,0-2.9,1.6-2.9,4.1s0.7,4.1,2.8,4.1
				c1.9,0,3-1.5,3-3.4V205.3L600.1,205.3z"/>
			<path class="st3" d="M605,203.6h5.6v1.6H605V203.6z"/>
			<path class="st3" d="M613.6,195.2h1.8v7h0c0.6-1.1,1.7-2,3.3-2c2.2,0,4.2,1.4,4.2,5.4s-2,5.7-4.3,5.7c-1.7,0-2.8-0.9-3.3-1.9h0
				v1.7h-1.7V195.2z M621.2,205.5c0-2.2-0.7-3.9-2.8-3.9c-1.9,0-3,1.6-3,3.4v1.1c0,2.1,1,3.7,3,3.7
				C620.2,209.8,621.2,208.3,621.2,205.5z"/>
			<path class="st3" d="M629.8,211.2c-3.2,0-4.8-2.3-4.8-5.5s1.7-5.6,4.7-5.6s4.4,2.4,4.4,5.1v0.9h-7.3c0.1,2.2,1,3.7,3,3.7
				c1.8,0,2.2-1,2.4-1.6h1.7C633.7,210,632.1,211.2,629.8,211.2L629.8,211.2z M632.3,204.6c0-1.8-0.7-3.1-2.6-3.1
				c-1.7,0-2.6,1.3-2.8,3.2h5.4V204.6L632.3,204.6z"/>
			<path class="st3" d="M547.5,227.3c0-1.9,1.5-3.1,4-3.1s3.9,1.1,3.9,3.9v4.3c0,0.8,0.2,1.2,1,1.2v1.5h-0.2c-1.7,0-2.2-0.6-2.4-1.9
				h0c-0.6,1.2-1.8,2-3.4,2c-2.1,0-3.3-1.1-3.3-3c0-1.2,0.5-2.1,1.6-2.7c1.1-0.6,2.7-0.8,5.1-0.9v-0.5c0-1.9-0.7-2.6-2.2-2.6
				c-1.6,0-2.1,0.9-2.2,1.8H547.5L547.5,227.3z M553.6,230.2v-0.2c-2.3,0.1-3.6,0.3-4.3,0.8c-0.4,0.3-0.6,0.7-0.6,1.3
				c0,1.1,0.7,1.7,1.8,1.7C551.9,233.7,553.6,232.8,553.6,230.2z"/>
			<path class="st3" d="M565.2,227.6c-0.1-1.1-0.9-2.1-2.4-2.1c-1.9,0-2.9,1.7-2.9,4.1s0.7,4.1,2.9,4.1c2,0,2.5-1.5,2.6-2.3h1.7
				c-0.3,2.4-2,3.7-4.3,3.7c-3,0-4.7-2.1-4.7-5.5s1.8-5.6,4.7-5.6c2.1,0,4,1,4.2,3.4L565.2,227.6L565.2,227.6z"/>
			<path class="st3" d="M576,227.6c-0.1-1.1-0.9-2.1-2.4-2.1c-1.9,0-2.9,1.7-2.9,4.1s0.7,4.1,2.9,4.1c2,0,2.5-1.5,2.6-2.3h1.7
				c-0.3,2.4-2,3.7-4.3,3.7c-3,0-4.7-2.1-4.7-5.5s1.8-5.6,4.7-5.6c2.1,0,4,1,4.2,3.4L576,227.6L576,227.6z"/>
			<path class="st3" d="M584.5,235.2c-3.2,0-4.8-2.3-4.8-5.5s1.7-5.6,4.7-5.6s4.4,2.4,4.4,5.1v0.9h-7.3c0.1,2.2,1,3.7,3,3.7
				c1.8,0,2.2-1,2.4-1.6h1.7C588.3,234,586.7,235.2,584.5,235.2L584.5,235.2z M587,228.6c0-1.8-0.7-3.1-2.6-3.1
				c-1.7,0-2.6,1.3-2.8,3.2h5.4V228.6L587,228.6z"/>
			<path class="st3" d="M591.5,224.4h1.7v1.8h0c0.6-1.1,1.8-2,3.4-2c2.2,0,4.2,1.4,4.2,5.4s-2,5.7-4.4,5.7c-1.5,0-2.8-0.9-3.2-1.8h0
				v5.3h-1.8V224.4L591.5,224.4z M596.3,233.8c1.9,0,2.8-1.5,2.8-4.3c0-2.2-0.7-3.9-2.8-3.9c-1.9,0-3,1.6-3,3.4v1.1
				C593.3,232.1,594.3,233.8,596.3,233.8z"/>
			<path class="st3" d="M606,221.3v3.1h2.6v1.4H606v6.2c0,1.1,0.5,1.6,1.6,1.6c0.5,0,1.2-0.1,1.2-0.1v1.5c0,0-0.7,0.1-1.7,0.1
				c-2.1,0-2.9-1-2.9-2.8v-6.5h-1.9v-1.3h0.3c1.4,0,1.7-0.3,1.7-2.4v-0.8L606,221.3L606,221.3z"/>
			<path class="st3" d="M610.3,229.7c0-3.3,1.8-5.5,4.7-5.5c3.1,0,4.7,2.3,4.7,5.5s-1.8,5.5-4.7,5.5S610.3,233,610.3,229.7z
				 M612.1,229.7c0,2.6,0.9,4.1,2.9,4.1s2.8-1.6,2.8-4.1s-0.8-4.1-2.9-4.1S612.2,227.1,612.1,229.7L612.1,229.7z"/>
			<path class="st3" d="M622.6,224.4h1.7v2h0c0.5-1.1,1.8-2.2,3.3-2.2h0.2v1.9h-0.3c-1.9,0-3.1,1.1-3.1,3.1v5.7h-1.8V224.4
				L622.6,224.4z"/>
			<path class="st3" d="M635.4,227c-0.1-0.9-0.9-1.5-2.1-1.5s-2.1,0.7-2.1,1.7c0,0.9,0.5,1.3,1.6,1.4l1.6,0.2c2.2,0.3,3,1.2,3,3.1
				c0,2.1-1.7,3.3-4.1,3.3c-2.2,0-4-1-4.1-3.2h1.8c0.1,0.8,0.5,1.9,2.4,1.9c1.4,0,2.3-0.7,2.3-1.8c0-0.8-0.2-1.3-1.7-1.5l-1.6-0.2
				c-1.9-0.3-2.9-1.1-2.9-2.9s1.4-3.2,3.8-3.2s3.6,1.1,3.8,2.9H635.4L635.4,227z"/>
		</g>
		<g>
			<path class="st3" d="M1192.9,202.2h1.8l2,7.1c0.2,0.7,0.3,1.3,0.3,1.3h0c0,0,0.2-0.7,0.4-1.3l2.2-7.1h1.8l2.2,7.1
				c0.2,0.6,0.4,1.3,0.4,1.3h0c0,0,0.2-0.7,0.3-1.3l2.1-7.1h1.7l-3.3,10.5h-1.9l-1.9-6.2c-0.3-1-0.7-2.2-0.7-2.2h0
				c0,0-0.4,1.3-0.7,2.2l-1.9,6.2h-1.9L1192.9,202.2L1192.9,202.2z"/>
			<path class="st3" d="M1209.8,207.5c0-3.3,1.8-5.5,4.7-5.5c3.1,0,4.7,2.3,4.7,5.5s-1.8,5.5-4.7,5.5S1209.8,210.8,1209.8,207.5z
				 M1211.7,207.5c0,2.6,0.9,4.1,2.9,4.1s2.8-1.6,2.8-4.1s-0.8-4.1-2.9-4.1S1211.7,204.9,1211.7,207.5z"/>
			<path class="st3" d="M1223.8,208.7c0,0.8,0,1.6,0.4,2.1c0.4,0.5,0.9,0.7,1.6,0.7c2,0,2.9-1.3,2.9-3.6v-5.7h1.8v10.5h-1.7v-1.8h0
				c-0.5,1.1-1.6,2.1-3.3,2.1c-2,0-3.4-1-3.4-3.5v-7.3h1.8L1223.8,208.7L1223.8,208.7z"/>
			<path class="st3" d="M1234.2,197h1.8v15.8h-1.8V197z"/>
			<path class="st3" d="M1248.2,212.7h-1.7V211h-0.1c-0.6,1-1.7,2-3.3,2c-2.2,0-4.3-1.4-4.3-5.5c0-3.6,1.9-5.6,4.5-5.6
				c1.6,0,2.6,0.9,3,1.9h0V197h1.8L1248.2,212.7L1248.2,212.7z M1246.5,207.1c0-2.2-1.2-3.7-2.9-3.7c-2,0-2.9,1.6-2.9,4.1
				s0.7,4.1,2.8,4.1c1.9,0,3-1.5,3-3.4L1246.5,207.1L1246.5,207.1z"/>
			<path class="st3" d="M1251.3,205.4h5.6v1.6h-5.6V205.4z"/>
			<path class="st3" d="M1259.9,197h1.8v7h0c0.6-1.1,1.7-2,3.3-2c2.2,0,4.2,1.4,4.2,5.4s-2,5.7-4.3,5.7c-1.7,0-2.8-0.9-3.3-1.9h0
				v1.7h-1.7V197z M1267.5,207.3c0-2.2-0.7-3.9-2.8-3.9c-1.9,0-3,1.6-3,3.4v1.1c0,2.1,1,3.7,3,3.7
				C1266.6,211.6,1267.5,210.1,1267.5,207.3L1267.5,207.3z"/>
			<path class="st3" d="M1276.2,213c-3.2,0-4.8-2.3-4.8-5.5s1.7-5.6,4.7-5.6s4.4,2.4,4.4,5.1v0.9h-7.3c0.1,2.2,1,3.7,3,3.7
				c1.8,0,2.2-1,2.4-1.6h1.7C1280,211.8,1278.4,213,1276.2,213L1276.2,213z M1278.7,206.4c0-1.8-0.7-3.1-2.6-3.1
				c-1.7,0-2.6,1.3-2.8,3.2h5.4L1278.7,206.4L1278.7,206.4z"/>
			<path class="st3" d="M1193.8,229.1c0-1.9,1.5-3.1,4-3.1s3.9,1.1,3.9,3.9v4.3c0,0.8,0.2,1.2,1,1.2v1.5h-0.2
				c-1.7,0-2.2-0.6-2.4-1.9h0c-0.6,1.2-1.8,2-3.4,2c-2.1,0-3.3-1.1-3.3-3c0-1.2,0.5-2.1,1.6-2.7c1.1-0.6,2.7-0.8,5.1-0.9v-0.5
				c0-1.9-0.7-2.6-2.2-2.6c-1.6,0-2.1,0.9-2.2,1.8H1193.8z M1199.9,232v-0.2c-2.3,0.1-3.6,0.3-4.3,0.8c-0.4,0.3-0.6,0.7-0.6,1.3
				c0,1.1,0.7,1.7,1.8,1.7C1198.3,235.5,1199.9,234.6,1199.9,232z"/>
			<path class="st3" d="M1211.6,229.4c-0.1-1.1-0.9-2.1-2.4-2.1c-1.9,0-2.9,1.7-2.9,4.1s0.7,4.1,2.9,4.1c2,0,2.5-1.5,2.6-2.3h1.7
				c-0.3,2.4-2,3.7-4.3,3.7c-3,0-4.7-2.1-4.7-5.5s1.8-5.6,4.7-5.6c2.1,0,4,1,4.2,3.4L1211.6,229.4L1211.6,229.4z"/>
			<path class="st3" d="M1222.4,229.4c-0.1-1.1-0.9-2.1-2.4-2.1c-1.9,0-2.9,1.7-2.9,4.1s0.7,4.1,2.9,4.1c2,0,2.5-1.5,2.6-2.3h1.7
				c-0.3,2.4-2,3.7-4.3,3.7c-3,0-4.7-2.1-4.7-5.5s1.8-5.6,4.7-5.6c2.1,0,4,1,4.2,3.4L1222.4,229.4L1222.4,229.4z"/>
			<path class="st3" d="M1230.8,237c-3.2,0-4.8-2.3-4.8-5.5s1.7-5.6,4.7-5.6s4.4,2.4,4.4,5.1v0.9h-7.3c0.1,2.2,1,3.7,3,3.7
				c1.8,0,2.2-1,2.4-1.6h1.7C1234.6,235.8,1233.1,237,1230.8,237L1230.8,237z M1233.3,230.4c0-1.8-0.7-3.1-2.6-3.1
				c-1.7,0-2.6,1.3-2.8,3.2h5.4L1233.3,230.4L1233.3,230.4z"/>
			<path class="st3" d="M1237.9,226.2h1.7v1.8h0c0.6-1.1,1.8-2,3.4-2c2.2,0,4.2,1.4,4.2,5.4s-2,5.7-4.4,5.7c-1.5,0-2.8-0.9-3.2-1.8
				h0v5.3h-1.8L1237.9,226.2L1237.9,226.2z M1242.7,235.6c1.9,0,2.8-1.5,2.8-4.3c0-2.2-0.7-3.9-2.8-3.9c-1.9,0-3,1.6-3,3.4v1.1
				C1239.7,233.9,1240.7,235.6,1242.7,235.6L1242.7,235.6z"/>
			<path class="st3" d="M1252.3,223.1v3.1h2.6v1.4h-2.6v6.2c0,1.1,0.5,1.6,1.6,1.6c0.5,0,1.2-0.1,1.2-0.1v1.5c0,0-0.7,0.1-1.7,0.1
				c-2.1,0-2.9-1-2.9-2.8v-6.5h-1.9v-1.3h0.3c1.4,0,1.7-0.3,1.7-2.4v-0.8L1252.3,223.1L1252.3,223.1z"/>
			<path class="st3" d="M1256.7,231.5c0-3.3,1.8-5.5,4.7-5.5c3.1,0,4.7,2.3,4.7,5.5s-1.8,5.5-4.7,5.5S1256.7,234.8,1256.7,231.5z
				 M1258.5,231.5c0,2.6,0.9,4.1,2.9,4.1s2.8-1.6,2.8-4.1s-0.8-4.1-2.9-4.1S1258.5,228.9,1258.5,231.5z"/>
			<path class="st3" d="M1268.9,226.2h1.7v2h0c0.5-1.1,1.8-2.2,3.3-2.2h0.2v1.9h-0.3c-1.9,0-3.1,1.1-3.1,3.1v5.7h-1.8V226.2
				L1268.9,226.2z"/>
			<path class="st3" d="M1281.8,228.8c-0.1-0.9-0.9-1.5-2.1-1.5s-2.1,0.7-2.1,1.7c0,0.9,0.5,1.3,1.6,1.4l1.6,0.2
				c2.2,0.3,3,1.2,3,3.1c0,2.1-1.7,3.3-4.1,3.3c-2.2,0-4-1-4.1-3.2h1.8c0.1,0.8,0.5,1.9,2.4,1.9c1.4,0,2.3-0.7,2.3-1.8
				c0-0.8-0.2-1.3-1.7-1.5l-1.6-0.2c-1.9-0.3-2.9-1.1-2.9-2.9s1.4-3.2,3.8-3.2s3.6,1.1,3.8,2.9H1281.8L1281.8,228.8z"/>
		</g>
		<g>
			<g class="st2">
				<path class="st3" d="M554.1,267.3c-0.1-1.1-0.9-2.1-2.4-2.1c-1.9,0-2.9,1.7-2.9,4.1c0,2.4,0.7,4.1,2.9,4.1c2,0,2.5-1.5,2.6-2.3
					h1.7c-0.3,2.4-2,3.7-4.3,3.7c-3,0-4.7-2.1-4.7-5.5c0-3.2,1.8-5.6,4.7-5.6c2.1,0,4,1,4.2,3.4H554.1z"/>
			</g>
			<g class="st2">
				<path class="st3" d="M557.7,269.4c0-3.3,1.8-5.5,4.7-5.5c3.1,0,4.7,2.3,4.7,5.5c0,3.3-1.8,5.5-4.7,5.5
					C559.3,274.9,557.7,272.7,557.7,269.4z M559.6,269.4c0,2.6,0.9,4.1,2.9,4.1c2,0,2.8-1.6,2.8-4.1c0-2.6-0.8-4.1-2.9-4.1
					C560.5,265.2,559.6,266.8,559.6,269.4z"/>
				<path class="st3" d="M576.7,268.2c0-0.8,0-1.6-0.4-2.1c-0.4-0.5-1-0.7-1.7-0.7c-2,0-2.9,1.3-2.9,3v6.3H570v-10.5h1.7v1.8h0
					c0.5-1.1,1.7-2,3.4-2c2,0,3.4,1,3.4,3.5v7.3h-1.8V268.2z"/>
			</g>
			<g class="st2">
				<path class="st3" d="M584.4,261.1v3.1h2.6v1.4h-2.6v6.2c0,1.1,0.5,1.6,1.6,1.6c0.5,0,1.2-0.1,1.2-0.1v1.5c0,0-0.7,0.1-1.7,0.1
					c-2.1,0-2.9-1-2.9-2.8v-6.5h-1.9v-1.3h0.3c1.4,0,1.7-0.3,1.7-2.4v-0.8H584.4z"/>
			</g>
			<g class="st2">
				<path class="st3" d="M589.5,264.1h1.7v2h0c0.5-1.1,1.8-2.2,3.3-2.2h0.2v1.9h-0.3c-1.9,0-3.1,1.1-3.1,3.1v5.7h-1.8V264.1z"/>
			</g>
			<g class="st2">
				<path class="st3" d="M596.2,269.4c0-3.3,1.8-5.5,4.7-5.5c3.1,0,4.7,2.3,4.7,5.5c0,3.3-1.8,5.5-4.7,5.5
					C597.8,274.9,596.2,272.7,596.2,269.4z M598.1,269.4c0,2.6,0.9,4.1,2.9,4.1c2,0,2.8-1.6,2.8-4.1c0-2.6-0.8-4.1-2.9-4.1
					C599,265.2,598.1,266.8,598.1,269.4z"/>
				<path class="st3" d="M608.5,258.9h1.8v15.8h-1.8V258.9z"/>
				<path class="st3" d="M619.2,266.8c-0.1-0.9-0.9-1.5-2.1-1.5s-2.1,0.7-2.1,1.7c0,0.9,0.5,1.3,1.6,1.4l1.6,0.2
					c2.2,0.3,3,1.2,3,3.1c0,2.1-1.7,3.3-4.1,3.3c-2.2,0-4-1-4.1-3.2h1.8c0.1,0.8,0.5,1.9,2.4,1.9c1.4,0,2.3-0.7,2.3-1.8
					c0-0.8-0.2-1.3-1.7-1.5l-1.6-0.2c-1.9-0.3-2.9-1.1-2.9-2.9c0-1.9,1.4-3.2,3.8-3.2c2.3,0,3.6,1.1,3.8,2.9H619.2z"/>
			</g>
		</g>
		<g>
			<g class="st2">
				<path class="st3" d="M547.9,299.2h1.7v2h0c0.5-1.1,1.8-2.2,3.3-2.2h0.2v1.9h-0.3c-1.9,0-3.1,1.1-3.1,3.1v5.7h-1.8V299.2z"/>
			</g>
			<g class="st2">
				<path class="st3" d="M559.3,310c-3.2,0-4.8-2.3-4.8-5.5c0-3.1,1.7-5.6,4.7-5.6c3.2,0,4.4,2.4,4.4,5.1v0.9h-7.3
					c0.1,2.2,1,3.7,3,3.7c1.8,0,2.2-1,2.4-1.6h1.7C563.1,308.8,561.6,310,559.3,310z M561.8,303.4c0-1.8-0.7-3.1-2.6-3.1
					c-1.7,0-2.6,1.3-2.8,3.2h5.4V303.4z"/>
			</g>
			<g class="st2">
				<path class="st3" d="M568.7,309.7h-1.8v-9.2H565v-1.4h1.9v-2.4c0-2.2,1.2-2.9,3.2-2.9c0.4,0,0.8,0,1.1,0.1v1.5
					c-0.2,0-0.5-0.1-1-0.1c-1,0-1.5,0.4-1.5,1.6v2.1h2.5v1.4h-2.5V309.7z"/>
			</g>
			<g class="st2">
				<path class="st3" d="M575.3,305.7c0,0.8,0,1.6,0.4,2.1c0.4,0.5,0.9,0.7,1.6,0.7c2,0,2.9-1.3,2.9-3.6v-5.7h1.8v10.5h-1.7v-1.8h0
					c-0.5,1.1-1.6,2.1-3.3,2.1c-2,0-3.4-1-3.4-3.5v-7.3h1.8V305.7z"/>
			</g>
			<g class="st2">
				<path class="st3" d="M590.9,301.8c-0.1-0.9-0.9-1.5-2.1-1.5s-2.1,0.7-2.1,1.7c0,0.9,0.5,1.3,1.6,1.4l1.6,0.2
					c2.2,0.3,3,1.2,3,3.1c0,2.1-1.7,3.3-4.1,3.3c-2.2,0-4-1-4.1-3.2h1.8c0.1,0.8,0.5,1.9,2.4,1.9c1.4,0,2.3-0.7,2.3-1.8
					c0-0.8-0.2-1.3-1.7-1.5l-1.6-0.2c-1.9-0.3-2.9-1.1-2.9-2.9c0-1.9,1.4-3.2,3.8-3.2c2.3,0,3.6,1.1,3.8,2.9H590.9z"/>
			</g>
			<g class="st2">
				<path class="st3" d="M599.7,310c-3.2,0-4.8-2.3-4.8-5.5c0-3.1,1.7-5.6,4.7-5.6c3.2,0,4.4,2.4,4.4,5.1v0.9h-7.3
					c0.1,2.2,1,3.7,3,3.7c1.8,0,2.2-1,2.4-1.6h1.7C603.5,308.8,601.9,310,599.7,310z M602.2,303.4c0-1.8-0.7-3.1-2.6-3.1
					c-1.7,0-2.6,1.3-2.8,3.2h5.4V303.4z"/>
			</g>
			<g class="st2">
				<path class="st3" d="M606.8,299.2h1.7v2h0c0.5-1.1,1.8-2.2,3.3-2.2h0.2v1.9h-0.3c-1.9,0-3.1,1.1-3.1,3.1v5.7h-1.8V299.2z"/>
			</g>
			<g class="st2">
				<path class="st3" d="M619.6,301.8c-0.1-0.9-0.9-1.5-2.1-1.5s-2.1,0.7-2.1,1.7c0,0.9,0.5,1.3,1.6,1.4l1.6,0.2
					c2.2,0.3,3,1.2,3,3.1c0,2.1-1.7,3.3-4.1,3.3c-2.2,0-4-1-4.1-3.2h1.8c0.1,0.8,0.5,1.9,2.4,1.9c1.4,0,2.3-0.7,2.3-1.8
					c0-0.8-0.2-1.3-1.7-1.5l-1.6-0.2c-1.9-0.3-2.9-1.1-2.9-2.9c0-1.9,1.4-3.2,3.8-3.2c2.3,0,3.6,1.1,3.8,2.9H619.6z"/>
			</g>
		</g>
		<g>
			<g class="st2">
				<path class="st3" d="M93.3,314h-2.5v-1.1h0.4c0.9,0,1.5-0.2,1.9-0.6c0.4-0.4,0.5-0.9,0.6-1.7h1.3v12.6h-1.5V314z"/>
			</g>
			<g class="st2">
				<path class="st3" d="M97.8,321.2h2.1v2.1h-2.1V321.2z"/>
			</g>
			<g class="st2">
				<path class="st3" d="M106.1,310.5c2.8,0,4.5,2.1,4.5,6.5c0,4.4-1.8,6.5-4.5,6.5c-2.8,0-4.5-2.2-4.5-6.5
					C101.6,312.7,103.4,310.5,106.1,310.5z M109,317.1c0-3.5-1.1-5.3-2.9-5.3c-1.8,0-2.9,1.7-2.9,5.3c0,3.5,1.1,5.2,2.9,5.2
					C107.9,322.3,109,320.5,109,317.1z"/>
			</g>
			<g class="st2">
				<path class="st3" d="M112.8,313.7c0-2.1,1.3-3.1,2.9-3.1c1.6,0,2.9,1,2.9,3.1c0,2-1.3,3.1-2.9,3.1
					C114,316.8,112.8,315.8,112.8,313.7z M123.4,310h1.4l-9.3,14h-1.4L123.4,310z M117.1,313.7c0-1.3-0.6-2-1.5-2
					c-0.9,0-1.5,0.6-1.5,2c0,1.3,0.6,2,1.5,2C116.5,315.7,117.1,315.1,117.1,313.7z M120.3,320.3c0-2.1,1.3-3.1,2.9-3.1
					c1.6,0,2.9,1,2.9,3.1c0,2-1.3,3.1-2.9,3.1C121.5,323.4,120.3,322.4,120.3,320.3z M124.7,320.3c0-1.3-0.6-2-1.5-2
					c-0.9,0-1.5,0.6-1.5,2c0,1.3,0.6,2,1.5,2C124.1,322.3,124.7,321.7,124.7,320.3z"/>
			</g>
		</g>
		<g>
			<g class="st2">
				<path class="st3" d="M92.2,409.2c2.8,0,4.5,2.1,4.5,6.5c0,4.4-1.8,6.5-4.5,6.5c-2.8,0-4.5-2.2-4.5-6.5
					C87.7,411.3,89.5,409.2,92.2,409.2z M95.1,415.7c0-3.5-1.1-5.3-2.9-5.3c-1.8,0-2.9,1.7-2.9,5.3c0,3.5,1.1,5.2,2.9,5.2
					C94,421,95.1,419.1,95.1,415.7z"/>
			</g>
			<g class="st2">
				<path class="st3" d="M98.4,419.9h2.1v2.1h-2.1V419.9z"/>
			</g>
			<g class="st2">
				<path class="st3" d="M106.6,415c-1,0-1.9,0.4-2.3,1.1H103l0.5-6.7h6.7v1.3h-5.4l-0.3,4h0c0.4-0.5,1.3-1,2.4-1
					c2,0,3.9,1.2,3.9,4.2c0,2.6-1.7,4.3-4.3,4.3c-2.8,0-3.9-1.8-4-3.5h1.5c0.1,1.6,1.1,2.2,2.5,2.2c1.3,0,2.7-0.9,2.7-3
					C109.3,416,108.1,415,106.6,415z"/>
			</g>
			<g class="st2">
				<path class="st3" d="M112.8,412.4c0-2.1,1.3-3.1,2.9-3.1c1.6,0,2.9,1,2.9,3.1c0,2-1.3,3.1-2.9,3.1
					C114,415.5,112.8,414.4,112.8,412.4z M123.4,408.7h1.4l-9.3,14h-1.4L123.4,408.7z M117.1,412.4c0-1.3-0.6-2-1.5-2
					c-0.9,0-1.5,0.6-1.5,2c0,1.3,0.6,2,1.5,2C116.5,414.4,117.1,413.7,117.1,412.4z M120.3,419c0-2.1,1.3-3.1,2.9-3.1
					c1.6,0,2.9,1,2.9,3.1c0,2-1.3,3.1-2.9,3.1C121.5,422.1,120.3,421,120.3,419z M124.7,419c0-1.3-0.6-2-1.5-2c-0.9,0-1.5,0.6-1.5,2
					c0,1.3,0.6,2,1.5,2C124.1,421,124.7,420.3,124.7,419z"/>
			</g>
		</g>
		<g class="st2">
			<path class="st3" d="M106.1,507.8c2.8,0,4.5,2.1,4.5,6.5c0,4.4-1.8,6.5-4.5,6.5c-2.8,0-4.5-2.2-4.5-6.5
				C101.6,509.9,103.4,507.8,106.1,507.8z M109,514.4c0-3.5-1.1-5.3-2.9-5.3c-1.8,0-2.9,1.7-2.9,5.3c0,3.5,1.1,5.2,2.9,5.2
				C107.9,519.6,109,517.8,109,514.4z"/>
		</g>
		<g class="st2">
			<path class="st3" d="M112.8,511c0-2.1,1.3-3.1,2.9-3.1c1.6,0,2.9,1,2.9,3.1c0,2-1.3,3.1-2.9,3.1C114,514.1,112.8,513.1,112.8,511
				z M123.4,507.3h1.4l-9.3,14h-1.4L123.4,507.3z M117.2,511c0-1.3-0.6-2-1.5-2c-0.9,0-1.5,0.6-1.5,2c0,1.3,0.6,2,1.5,2
				C116.6,513,117.2,512.4,117.2,511z M120.3,517.6c0-2.1,1.3-3.1,2.9-3.1c1.6,0,2.9,1,2.9,3.1c0,2-1.3,3.1-2.9,3.1
				C121.6,520.7,120.3,519.7,120.3,517.6z M124.7,517.6c0-1.3-0.6-2-1.5-2c-0.9,0-1.5,0.6-1.5,2c0,1.3,0.6,2,1.5,2
				C124.1,519.6,124.7,519,124.7,517.6z"/>
		</g>
		<g>
			<g class="st2">
				<path class="st3" d="M788.4,532.9c2.8,0,4.5,2.1,4.5,6.5c0,4.4-1.8,6.5-4.5,6.5c-2.8,0-4.5-2.2-4.5-6.5
					C783.9,535,785.7,532.9,788.4,532.9z M791.3,539.4c0-3.5-1.1-5.3-2.9-5.3c-1.8,0-2.9,1.7-2.9,5.3c0,3.5,1.1,5.2,2.9,5.2
					C790.1,544.7,791.3,542.9,791.3,539.4z"/>
			</g>
		</g>
		<g>
			<g class="st2">
				<path class="st3" d="M887.2,576.5l-4.6-7.4h1.8l3.5,6h0l3.7-6h1.7l-4.6,7.3v5.7h-1.6V576.5z"/>
			</g>
			<g class="st2">
				<path class="st3" d="M897.1,582.2c-2.7,0-4-2-4-4.7c0-2.7,1.4-4.7,4-4.7c2.7,0,3.7,2.1,3.7,4.3v0.8h-6.2
					c0.1,1.9,0.9,3.1,2.5,3.1c1.5,0,1.9-0.9,2-1.4h1.5C900.3,581.2,899,582.2,897.1,582.2z M899.2,576.6c0-1.5-0.6-2.7-2.2-2.7
					c-1.4,0-2.2,1.1-2.4,2.8h4.6V576.6z"/>
				<path class="st3" d="M902.8,575.5c0-1.6,1.2-2.7,3.4-2.7c2.2,0,3.3,0.9,3.3,3.3v3.7c0,0.7,0.2,1,0.8,1v1.2h-0.2
					c-1.4,0-1.9-0.5-2.1-1.6h0c-0.5,1.1-1.5,1.7-2.9,1.7c-1.8,0-2.8-1-2.8-2.6c0-1,0.4-1.8,1.3-2.3c0.9-0.5,2.3-0.7,4.3-0.7v-0.4
					c0-1.6-0.6-2.2-1.9-2.2c-1.3,0-1.8,0.8-1.9,1.5H902.8z M908,577.9v-0.2c-1.9,0.1-3,0.2-3.6,0.7c-0.3,0.3-0.5,0.6-0.5,1.1
					c0,0.9,0.6,1.4,1.6,1.4C906.6,580.9,908,580.2,908,577.9z"/>
			</g>
			<g class="st2">
				<path class="st3" d="M912.6,573.1h1.4v1.7h0c0.4-0.9,1.5-1.9,2.8-1.9h0.2v1.6h-0.3c-1.6,0-2.7,0.9-2.7,2.7v4.9h-1.5V573.1z"/>
			</g>
			<g class="st2">
				<path class="st3" d="M923.5,575.3c-0.1-0.8-0.7-1.3-1.8-1.3s-1.8,0.6-1.8,1.4c0,0.7,0.4,1.1,1.3,1.2l1.4,0.2
					c1.9,0.3,2.5,1.1,2.5,2.6c0,1.8-1.5,2.8-3.5,2.8c-1.9,0-3.4-0.8-3.5-2.8h1.5c0.1,0.7,0.5,1.6,2,1.6c1.2,0,2-0.6,2-1.5
					c0-0.7-0.2-1.1-1.4-1.3l-1.4-0.2c-1.6-0.3-2.4-0.9-2.4-2.5c0-1.6,1.2-2.7,3.2-2.7c1.9,0,3,0.9,3.2,2.5H923.5z"/>
			</g>
			<g class="st2">
				<path class="st3" d="M936.6,575.3c-0.1-0.8-0.7-1.3-1.8-1.3c-1.1,0-1.8,0.6-1.8,1.4c0,0.7,0.4,1.1,1.3,1.2l1.4,0.2
					c1.9,0.3,2.5,1.1,2.5,2.6c0,1.8-1.5,2.8-3.5,2.8c-1.9,0-3.4-0.8-3.5-2.8h1.5c0.1,0.7,0.5,1.6,2,1.6c1.2,0,2-0.6,2-1.5
					c0-0.7-0.2-1.1-1.4-1.3l-1.4-0.2c-1.6-0.3-2.4-0.9-2.4-2.5c0-1.6,1.2-2.7,3.2-2.7c1.9,0,3,0.9,3.2,2.5H936.6z"/>
			</g>
			<g class="st2">
				<path class="st3" d="M940.8,569.4h1.6v1.6h-1.6V569.4z M940.9,573.1h1.5v9h-1.5V573.1z"/>
				<path class="st3" d="M951.3,576.5c0-0.6,0-1.4-0.3-1.8c-0.3-0.4-0.8-0.6-1.4-0.6c-1.7,0-2.4,1.1-2.4,2.5v5.4h-1.5v-9h1.4v1.5h0
					c0.4-0.9,1.5-1.7,2.9-1.7c1.7,0,2.9,0.8,2.9,2.9v6.2h-1.5V576.5z"/>
			</g>
			<g class="st2">
				<path class="st3" d="M961.2,575.8c-0.1-0.9-0.7-1.8-2-1.8c-1.6,0-2.5,1.4-2.5,3.5c0,2.1,0.6,3.5,2.4,3.5c1.7,0,2.1-1.3,2.2-1.9
					h1.4c-0.2,2.1-1.7,3.1-3.6,3.1c-2.6,0-4-1.8-4-4.6c0-2.7,1.5-4.7,4-4.7c1.8,0,3.4,0.8,3.6,2.9H961.2z"/>
			</g>
			<g class="st2">
				<path class="st3" d="M968.4,582.2c-2.7,0-4-2-4-4.7c0-2.7,1.4-4.7,4-4.7c2.7,0,3.7,2.1,3.7,4.3v0.8h-6.2
					c0.1,1.9,0.9,3.1,2.5,3.1c1.5,0,1.9-0.9,2-1.4h1.5C971.6,581.2,970.3,582.2,968.4,582.2z M970.5,576.6c0-1.5-0.6-2.7-2.2-2.7
					c-1.4,0-2.2,1.1-2.4,2.8h4.6V576.6z"/>
			</g>
			<g class="st2">
				<path class="st3" d="M979.1,573.1h1.4v1.7h0c0.4-0.9,1.5-1.9,2.8-1.9h0.2v1.6h-0.3c-1.6,0-2.7,0.9-2.7,2.7v4.9h-1.5V573.1z"/>
			</g>
			<g class="st2">
				<path class="st3" d="M985.2,575.5c0-1.6,1.2-2.7,3.4-2.7c2.2,0,3.3,0.9,3.3,3.3v3.7c0,0.7,0.2,1,0.8,1v1.2h-0.2
					c-1.4,0-1.9-0.5-2.1-1.6h0c-0.5,1.1-1.5,1.7-2.9,1.7c-1.8,0-2.8-1-2.8-2.6c0-1,0.4-1.8,1.3-2.3c0.9-0.5,2.3-0.7,4.3-0.7v-0.4
					c0-1.6-0.6-2.2-1.9-2.2c-1.3,0-1.8,0.8-1.9,1.5H985.2z M990.4,577.9v-0.2c-1.9,0.1-3,0.2-3.6,0.7c-0.3,0.3-0.5,0.6-0.5,1.1
					c0,0.9,0.6,1.4,1.6,1.4C989,580.9,990.4,580.2,990.4,577.9z"/>
				<path class="st3" d="M1000.7,576.5c0-0.6,0-1.4-0.3-1.8c-0.3-0.4-0.8-0.6-1.4-0.6c-1.7,0-2.4,1.1-2.4,2.5v5.4H995v-9h1.4v1.5h0
					c0.4-0.9,1.5-1.7,2.9-1.7c1.7,0,2.9,0.8,2.9,2.9v6.2h-1.5V576.5z"/>
				<path class="st3" d="M1012.5,582h-1.5v-1.5h-0.1c-0.5,0.9-1.4,1.7-2.8,1.7c-1.9,0-3.7-1.2-3.7-4.6c0-3.1,1.6-4.8,3.9-4.8
					c1.3,0,2.2,0.7,2.6,1.6h0v-5.8h1.5V582z M1011,577.2c0-1.9-1-3.1-2.4-3.1c-1.7,0-2.5,1.4-2.5,3.5c0,2,0.6,3.5,2.4,3.5
					c1.6,0,2.5-1.3,2.5-2.9V577.2z"/>
				<path class="st3" d="M1014.9,577.5c0-2.8,1.5-4.7,4-4.7c2.7,0,4,1.9,4,4.7c0,2.8-1.5,4.7-4,4.7
					C1016.3,582.2,1014.9,580.3,1014.9,577.5z M1016.5,577.5c0,2.2,0.7,3.5,2.5,3.5c1.7,0,2.4-1.3,2.4-3.5c0-2.2-0.7-3.5-2.4-3.5
					C1017.3,574,1016.5,575.3,1016.5,577.5z"/>
				<path class="st3" d="M1025.3,573.1h1.4v1.5h0c0.4-0.9,1.4-1.7,2.9-1.7c1.4,0,2.4,0.6,2.7,1.9h0c0.3-0.9,1.4-1.9,2.9-1.9
					c1.7,0,2.8,0.8,2.8,2.9v6.2h-1.5v-5.5c0-0.6,0-1.3-0.3-1.8c-0.3-0.4-0.8-0.6-1.4-0.6c-1.7,0-2.4,1.1-2.4,2.5v5.4h-1.5v-5.5
					c0-0.6,0-1.3-0.3-1.8c-0.3-0.4-0.8-0.6-1.4-0.6c-1.7,0-2.4,1.1-2.4,2.5v5.4h-1.5V573.1z"/>
				<path class="st3" d="M1041.3,569.4h1.6v1.6h-1.6V569.4z M1041.3,573.1h1.5v9h-1.5V573.1z"/>
				<path class="st3" d="M1045.6,573.1h6.7v1.3l-5.3,6.4h5.4v1.3h-7.1v-1.3l5.2-6.4h-5V573.1z"/>
				<path class="st3" d="M1054.5,575.5c0-1.6,1.2-2.7,3.4-2.7c2.2,0,3.3,0.9,3.3,3.3v3.7c0,0.7,0.2,1,0.8,1v1.2h-0.2
					c-1.4,0-1.9-0.5-2.1-1.6h0c-0.5,1.1-1.5,1.7-2.9,1.7c-1.8,0-2.8-1-2.8-2.6c0-1,0.4-1.8,1.3-2.3c0.9-0.5,2.3-0.7,4.3-0.7v-0.4
					c0-1.6-0.6-2.2-1.9-2.2c-1.3,0-1.8,0.8-1.9,1.5H1054.5z M1059.7,577.9v-0.2c-1.9,0.1-3,0.2-3.6,0.7c-0.3,0.3-0.5,0.6-0.5,1.1
					c0,0.9,0.6,1.4,1.6,1.4C1058.3,580.9,1059.7,580.2,1059.7,577.9z"/>
			</g>
			<g class="st2">
				<path class="st3" d="M1066.1,570.5v2.6h2.2v1.2h-2.2v5.3c0,1,0.4,1.3,1.4,1.3c0.5,0,1-0.1,1-0.1v1.3c0,0-0.6,0.1-1.4,0.1
					c-1.8,0-2.4-0.8-2.4-2.4v-5.5h-1.6v-1.1h0.3c1.2,0,1.5-0.3,1.5-2v-0.6H1066.1z"/>
			</g>
			<g class="st2">
				<path class="st3" d="M1070.6,569.4h1.6v1.6h-1.6V569.4z M1070.6,573.1h1.5v9h-1.5V573.1z"/>
				<path class="st3" d="M1074.5,577.5c0-2.8,1.5-4.7,4-4.7c2.7,0,4,1.9,4,4.7c0,2.8-1.5,4.7-4,4.7
					C1075.9,582.2,1074.5,580.3,1074.5,577.5z M1076.1,577.5c0,2.2,0.7,3.5,2.5,3.5c1.7,0,2.4-1.3,2.4-3.5c0-2.2-0.7-3.5-2.4-3.5
					C1076.9,574,1076.1,575.3,1076.1,577.5z"/>
				<path class="st3" d="M1090.7,576.5c0-0.6,0-1.4-0.3-1.8c-0.3-0.4-0.8-0.6-1.4-0.6c-1.7,0-2.4,1.1-2.4,2.5v5.4h-1.5v-9h1.4v1.5h0
					c0.4-0.9,1.5-1.7,2.9-1.7c1.7,0,2.9,0.8,2.9,2.9v6.2h-1.5V576.5z"/>
			</g>
		</g>
		<g>
			<g class="st2">
				<path class="st3" d="M861.4,536.9c0-2.5,1.8-4,4.1-4c2.8,0,3.9,1.7,3.9,3.4c0,1.7-0.7,2.7-2.8,4.7l-3.4,3.3v0h6.3v1.4h-8.4v-1.2
					l4.3-4.3c1.4-1.5,2.3-2.4,2.3-3.8c0-1.3-0.8-2.2-2.3-2.2c-1.3,0-2.5,0.8-2.5,2.8H861.4z"/>
			</g>
		</g>
		<g>
			<g class="st2">
				<path class="st3" d="M950.8,542.6v3.1h-1.5v-3.1h-5.9v-1.2l5.7-8.3h1.7v8.2h1.6v1.3H950.8z M949.3,541.3v-6.4h0
					c0,0-0.2,0.5-0.8,1.3l-3.5,5.1H949.3z"/>
			</g>
		</g>
		<g>
			<g class="st2">
				<path class="st3" d="M1028.8,535.8c-0.2-1-0.9-1.7-2.2-1.7c-2.2,0-3,2.3-3.1,5.3h0.1c0.6-1.1,1.8-1.8,3.2-1.8
					c1.9,0,3.9,1.2,3.9,4c0,2.5-1.6,4.3-4.3,4.3c-2.3,0-4.4-1.1-4.4-5.8c0-4.8,1.5-7.2,4.6-7.2c2.3,0,3.5,1.1,3.7,2.9H1028.8z
					 M1029,541.7c0-1.9-1.2-2.9-2.7-2.9c-1.5,0-2.7,0.9-2.7,2.9c0,2,1.3,2.9,2.7,2.9C1027.7,544.6,1029,543.8,1029,541.7z"/>
			</g>
		</g>
		<g>
			<g class="st2">
				<path class="st3" d="M1105.7,532.9c2.4,0,4,1.5,4,3.4c0,1.5-1,2.6-2.1,2.9v0c1.1,0.3,2.4,1.2,2.4,3.1c0,2-1.7,3.6-4.4,3.6
					c-2.7,0-4.3-1.5-4.3-3.6c0-1.9,1.4-2.8,2.4-3.1v0c-1-0.3-2-1.4-2-2.9C1101.8,534.4,1103.3,532.9,1105.7,532.9z M1108.5,542.3
					c0-1.7-1.3-2.4-2.8-2.4c-1.4,0-2.8,0.7-2.8,2.4s1.3,2.4,2.8,2.4C1107.3,544.7,1108.5,544,1108.5,542.3z M1103.3,536.4
					c0,1.5,1.1,2.3,2.4,2.3c1.2,0,2.4-0.8,2.4-2.3c0-1.6-1.1-2.3-2.4-2.3C1104.4,534.1,1103.3,534.8,1103.3,536.4z"/>
			</g>
		</g>
		<g>
			<g class="st2">
				<path class="st3" d="M1180.1,536.4h-2.5v-1.1h0.4c0.8,0,1.5-0.2,1.9-0.6c0.4-0.4,0.5-0.9,0.6-1.7h1.3v12.6h-1.5V536.4z"/>
				<path class="st3" d="M1189.4,532.9c2.8,0,4.5,2.1,4.5,6.5c0,4.4-1.8,6.5-4.5,6.5c-2.8,0-4.5-2.2-4.5-6.5
					C1184.9,535,1186.7,532.9,1189.4,532.9z M1192.3,539.4c0-3.5-1.1-5.3-2.9-5.3c-1.8,0-2.9,1.7-2.9,5.3c0,3.5,1.1,5.2,2.9,5.2
					C1191.2,544.7,1192.3,542.9,1192.3,539.4z"/>
			</g>
		</g>
		<g>
			<g class="st2">
				<path class="st3" d="M735.8,215.4h-2.5v-1.1h0.4c0.9,0,1.5-0.2,1.9-0.6c0.4-0.4,0.5-0.9,0.6-1.7h1.3v12.6h-1.5V215.4z"/>
			</g>
			<g class="st2">
				<path class="st3" d="M740.3,222.6h2.1v2.1h-2.1V222.6z"/>
			</g>
			<g class="st2">
				<path class="st3" d="M748.5,217.7c-1,0-1.9,0.4-2.3,1.1h-1.3l0.5-6.7h6.7v1.3h-5.4l-0.3,4h0c0.4-0.5,1.3-1,2.4-1
					c2,0,3.9,1.2,3.9,4.2c0,2.6-1.7,4.3-4.3,4.3c-2.8,0-3.9-1.8-4-3.5h1.5c0.1,1.6,1.1,2.2,2.5,2.2c1.3,0,2.7-0.9,2.7-3
					C751.2,218.7,750,217.7,748.5,217.7z"/>
			</g>
			<g class="st2">
				<path class="st3" d="M754.7,215.1c0-2.1,1.3-3.1,2.9-3.1c1.6,0,2.9,1,2.9,3.1c0,2-1.3,3.1-2.9,3.1
					C756,218.2,754.7,217.1,754.7,215.1z M765.3,211.4h1.4l-9.3,14H756L765.3,211.4z M759.1,215.1c0-1.3-0.6-2-1.5-2
					c-0.9,0-1.5,0.6-1.5,2c0,1.3,0.6,2,1.5,2C758.5,217.1,759.1,216.4,759.1,215.1z M762.2,221.7c0-2.1,1.3-3.1,2.9-3.1
					c1.6,0,2.9,1,2.9,3.1c0,2-1.3,3.1-2.9,3.1C763.5,224.8,762.2,223.7,762.2,221.7z M766.6,221.7c0-1.3-0.6-2-1.5-2
					c-0.9,0-1.5,0.6-1.5,2c0,1.3,0.6,2,1.5,2C766,223.7,766.6,223,766.6,221.7z"/>
			</g>
		</g>
		<g>
			<g class="st2">
				<path class="st3" d="M1193.8,338.2c0-1.9,1.5-3.1,4-3.1c2.6,0,3.9,1.1,3.9,3.9v4.3c0,0.8,0.2,1.2,1,1.2v1.5h-0.2
					c-1.7,0-2.2-0.6-2.4-1.9h0c-0.6,1.2-1.8,2-3.4,2c-2.1,0-3.3-1.1-3.3-3c0-1.2,0.5-2.1,1.6-2.7c1.1-0.6,2.7-0.8,5.1-0.9V339
					c0-1.9-0.7-2.6-2.2-2.6c-1.6,0-2.1,0.9-2.2,1.8H1193.8z M1199.9,341.1v-0.2c-2.3,0.1-3.6,0.3-4.3,0.8c-0.4,0.3-0.6,0.7-0.6,1.3
					c0,1.1,0.7,1.7,1.8,1.7C1198.3,344.6,1199.9,343.7,1199.9,341.1z"/>
				<path class="st3" d="M1211.6,338.5c-0.1-1.1-0.9-2.1-2.4-2.1c-1.9,0-2.9,1.7-2.9,4.1c0,2.4,0.7,4.1,2.9,4.1c2,0,2.5-1.5,2.6-2.3
					h1.7c-0.3,2.4-2,3.7-4.3,3.7c-3,0-4.7-2.1-4.7-5.5c0-3.2,1.8-5.6,4.7-5.6c2.1,0,4,1,4.2,3.4H1211.6z"/>
				<path class="st3" d="M1222.4,338.5c-0.1-1.1-0.9-2.1-2.4-2.1c-1.9,0-2.9,1.7-2.9,4.1c0,2.4,0.7,4.1,2.9,4.1c2,0,2.5-1.5,2.6-2.3
					h1.7c-0.3,2.4-2,3.7-4.3,3.7c-3,0-4.7-2.1-4.7-5.5c0-3.2,1.8-5.6,4.7-5.6c2.1,0,4,1,4.2,3.4H1222.4z"/>
			</g>
			<g class="st2">
				<path class="st3" d="M1230.8,346.1c-3.2,0-4.8-2.3-4.8-5.5c0-3.1,1.7-5.6,4.7-5.6c3.2,0,4.4,2.4,4.4,5.1v0.9h-7.3
					c0.1,2.2,1,3.7,3,3.7c1.8,0,2.2-1,2.4-1.6h1.7C1234.7,344.9,1233.1,346.1,1230.8,346.1z M1233.3,339.5c0-1.8-0.7-3.1-2.6-3.1
					c-1.7,0-2.6,1.3-2.8,3.2h5.4V339.5z"/>
			</g>
			<g class="st2">
				<path class="st3" d="M1237.9,335.3h1.7v1.8h0c0.6-1.1,1.8-2,3.4-2c2.2,0,4.2,1.4,4.2,5.4c0,3.8-2,5.7-4.4,5.7
					c-1.5,0-2.8-0.9-3.2-1.8h0v5.3h-1.8V335.3z M1242.7,344.7c1.9,0,2.8-1.5,2.8-4.3c0-2.2-0.7-3.9-2.8-3.9c-1.9,0-3,1.6-3,3.4v1.1
					C1239.7,343.1,1240.7,344.7,1242.7,344.7z"/>
			</g>
			<g class="st2">
				<path class="st3" d="M1252.4,332.3v3.1h2.6v1.4h-2.6v6.2c0,1.1,0.5,1.6,1.6,1.6c0.5,0,1.2-0.1,1.2-0.1v1.5c0,0-0.7,0.1-1.7,0.1
					c-2.1,0-2.9-1-2.9-2.8v-6.5h-1.9v-1.3h0.3c1.4,0,1.7-0.3,1.7-2.4v-0.8H1252.4z"/>
			</g>
			<g class="st2">
				<path class="st3" d="M1256.7,340.6c0-3.3,1.8-5.5,4.7-5.5c3.1,0,4.7,2.3,4.7,5.5c0,3.3-1.8,5.5-4.7,5.5
					C1258.2,346.1,1256.7,343.9,1256.7,340.6z M1258.5,340.6c0,2.6,0.9,4.1,2.9,4.1c2,0,2.8-1.6,2.8-4.1c0-2.6-0.8-4.1-2.9-4.1
					C1259.5,336.4,1258.5,338,1258.5,340.6z"/>
			</g>
			<g class="st2">
				<path class="st3" d="M1268.9,335.3h1.7v2h0c0.5-1.1,1.8-2.2,3.3-2.2h0.2v1.9h-0.3c-1.9,0-3.1,1.1-3.1,3.1v5.7h-1.8V335.3z"/>
			</g>
			<g class="st2">
				<path class="st3" d="M1281.8,338c-0.1-0.9-0.9-1.5-2.1-1.5s-2.1,0.7-2.1,1.7c0,0.9,0.5,1.3,1.6,1.4l1.6,0.2c2.2,0.3,3,1.2,3,3.1
					c0,2.1-1.7,3.3-4.1,3.3c-2.2,0-4-1-4.1-3.2h1.8c0.1,0.8,0.5,1.9,2.4,1.9c1.4,0,2.3-0.7,2.3-1.8c0-0.8-0.2-1.3-1.7-1.5l-1.6-0.2
					c-1.9-0.3-2.9-1.1-2.9-2.9c0-1.9,1.4-3.2,3.8-3.2c2.3,0,3.6,1.1,3.8,2.9H1281.8z"/>
			</g>
		</g>
		<g>
			<g class="st2">
				<path class="st3" d="M730.6,314h-2.5v-1.1h0.4c0.9,0,1.5-0.2,1.9-0.6c0.4-0.4,0.5-0.9,0.6-1.7h1.3v12.6h-1.5V314z"/>
			</g>
			<g class="st2">
				<path class="st3" d="M735.1,321.2h2.1v2.1h-2.1V321.2z"/>
			</g>
			<g class="st2">
				<path class="st3" d="M743.4,310.5c2.8,0,4.5,2.1,4.5,6.5c0,4.4-1.8,6.5-4.5,6.5c-2.8,0-4.5-2.2-4.5-6.5
					C738.9,312.7,740.7,310.5,743.4,310.5z M746.3,317.1c0-3.5-1.1-5.3-2.9-5.3c-1.8,0-2.9,1.7-2.9,5.3c0,3.5,1.1,5.2,2.9,5.2
					C745.2,322.3,746.3,320.5,746.3,317.1z"/>
			</g>
			<g class="st2">
				<path class="st3" d="M750.1,313.7c0-2.1,1.3-3.1,2.9-3.1c1.6,0,2.9,1,2.9,3.1c0,2-1.3,3.1-2.9,3.1
					C751.4,316.8,750.1,315.8,750.1,313.7z M760.7,310h1.4l-9.3,14h-1.4L760.7,310z M754.5,313.7c0-1.3-0.6-2-1.5-2
					c-0.9,0-1.5,0.6-1.5,2c0,1.3,0.6,2,1.5,2C753.9,315.7,754.5,315.1,754.5,313.7z M757.6,320.3c0-2.1,1.3-3.1,2.9-3.1
					c1.6,0,2.9,1,2.9,3.1c0,2-1.3,3.1-2.9,3.1C758.9,323.4,757.6,322.4,757.6,320.3z M762,320.3c0-1.3-0.6-2-1.5-2
					c-0.9,0-1.5,0.6-1.5,2c0,1.3,0.6,2,1.5,2C761.4,322.3,762,321.7,762,320.3z"/>
			</g>
		</g>
		<g>
			<g class="st2">
				<path class="st3" d="M729.5,409.2c2.8,0,4.5,2.1,4.5,6.5c0,4.4-1.8,6.5-4.5,6.5c-2.8,0-4.5-2.2-4.5-6.5
					C725,411.3,726.8,409.2,729.5,409.2z M732.4,415.7c0-3.5-1.1-5.3-2.9-5.3c-1.8,0-2.9,1.7-2.9,5.3c0,3.5,1.1,5.2,2.9,5.2
					C731.3,421,732.4,419.1,732.4,415.7z"/>
			</g>
			<g class="st2">
				<path class="st3" d="M735.7,419.9h2.1v2.1h-2.1V419.9z"/>
			</g>
			<g class="st2">
				<path class="st3" d="M743.9,415c-1,0-1.9,0.4-2.3,1.1h-1.3l0.5-6.7h6.7v1.3h-5.4l-0.3,4h0c0.4-0.5,1.3-1,2.4-1
					c2,0,3.9,1.2,3.9,4.2c0,2.6-1.7,4.3-4.3,4.3c-2.8,0-3.9-1.8-4-3.5h1.5c0.1,1.6,1.1,2.2,2.5,2.2c1.3,0,2.7-0.9,2.7-3
					C746.6,416,745.4,415,743.9,415z"/>
			</g>
			<g class="st2">
				<path class="st3" d="M750.1,412.4c0-2.1,1.3-3.1,2.9-3.1c1.6,0,2.9,1,2.9,3.1c0,2-1.3,3.1-2.9,3.1
					C751.4,415.5,750.1,414.4,750.1,412.4z M760.7,408.7h1.4l-9.3,14h-1.4L760.7,408.7z M754.5,412.4c0-1.3-0.6-2-1.5-2
					c-0.9,0-1.5,0.6-1.5,2c0,1.3,0.6,2,1.5,2C753.9,414.4,754.5,413.7,754.5,412.4z M757.6,419c0-2.1,1.3-3.1,2.9-3.1
					c1.6,0,2.9,1,2.9,3.1c0,2-1.3,3.1-2.9,3.1C758.9,422.1,757.6,421,757.6,419z M762,419c0-1.3-0.6-2-1.5-2c-0.9,0-1.5,0.6-1.5,2
					c0,1.3,0.6,2,1.5,2C761.4,421,762,420.3,762,419z"/>
			</g>
		</g>
		<g class="st2">
			<path class="st3" d="M743.4,507.8c2.8,0,4.5,2.1,4.5,6.5c0,4.4-1.8,6.5-4.5,6.5c-2.8,0-4.5-2.2-4.5-6.5
				C738.9,509.9,740.7,507.8,743.4,507.8z M746.3,514.4c0-3.5-1.1-5.3-2.9-5.3c-1.8,0-2.9,1.7-2.9,5.3c0,3.5,1.1,5.2,2.9,5.2
				C745.2,519.6,746.3,517.8,746.3,514.4z"/>
		</g>
		<g class="st2">
			<path class="st3" d="M750.1,511c0-2.1,1.3-3.1,2.9-3.1c1.6,0,2.9,1,2.9,3.1c0,2-1.3,3.1-2.9,3.1
				C751.4,514.1,750.1,513.1,750.1,511z M760.7,507.3h1.4l-9.3,14h-1.4L760.7,507.3z M754.5,511c0-1.3-0.6-2-1.5-2
				c-0.9,0-1.5,0.6-1.5,2c0,1.3,0.6,2,1.5,2C753.9,513,754.5,512.4,754.5,511z M757.6,517.6c0-2.1,1.3-3.1,2.9-3.1
				c1.6,0,2.9,1,2.9,3.1c0,2-1.3,3.1-2.9,3.1C758.9,520.7,757.6,519.7,757.6,517.6z M762,517.6c0-1.3-0.6-2-1.5-2
				c-0.9,0-1.5,0.6-1.5,2c0,1.3,0.6,2,1.5,2C761.4,519.6,762,519,762,517.6z"/>
		</g>
		<g class="st2">
			<path class="st3" d="M81.5,83c0,7.1,3.2,11.5,8.7,11.5c4.9,0,6.9-3.3,7.2-6.4h3.4c-0.4,5.2-4.4,9.1-10.7,9.1
				c-7.2,0-12.2-4.6-12.2-14.3c0-9,5.1-14.3,12.3-14.3c4.7,0,10,2.5,10.6,8.6h-3.5c-0.5-2.8-2.6-5.9-7.1-5.9
				C84.6,71.5,81.5,76.2,81.5,83z"/>
		</g>
		<g class="st2">
			<path class="st3" d="M116.2,85.1h-6.1v11.7h-3.3V69.2h10c2,0,3.8,0.4,5.3,1.2c2.2,1.2,3.6,3.3,3.6,6.5c0,5.2-3.4,6.9-5.9,7.6v0.1
				l6.1,12.1h-3.9L116.2,85.1z M116.4,82.3c3.2,0,5.7-1.5,5.7-5.3c0-3.4-2.3-5-5.5-5h-6.5v10.4H116.4z"/>
		</g>
		<g class="st2">
			<path class="st3" d="M133.5,83c0,7.1,3.2,11.5,8.7,11.5c4.9,0,6.9-3.3,7.2-6.4h3.4c-0.4,5.2-4.4,9.1-10.7,9.1
				C135,97.3,130,92.7,130,83c0-9,5.1-14.3,12.3-14.3c4.7,0,10,2.5,10.6,8.6h-3.5c-0.5-2.8-2.6-5.9-7.1-5.9
				C136.6,71.5,133.5,76.2,133.5,83z"/>
			<path class="st3" d="M183.6,96.8h-3.1v-3.1h-0.1c-1,1.9-3.1,3.6-6,3.6c-4,0-7.7-2.5-7.7-9.8c0-6.5,3.4-10.1,8.2-10.1
				c2.8,0,4.7,1.6,5.4,3.3h0.1V68.4h3.2V96.8z M180.4,86.5c0-4-2.1-6.6-5.1-6.6c-3.6,0-5.3,2.9-5.3,7.3c0,4.3,1.3,7.4,5,7.4
				c3.3,0,5.4-2.7,5.4-6.1V86.5z"/>
			<path class="st3" d="M190.3,70h3.4v3.5h-3.4V70z M190.4,77.8h3.3v19h-3.3V77.8z"/>
		</g>
		<g class="st2">
			<path class="st3" d="M199,83c0.1-3.3,2.6-5.7,7.2-5.7c4.7,0,7,2,7,7.1v7.7c0,1.5,0.3,2.1,1.7,2.2v2.6h-0.4c-3,0-4-1.1-4.4-3.3
				h-0.1c-1,2.2-3.3,3.5-6.1,3.5c-3.8,0-6-2.1-6-5.4c0-2.1,0.9-3.8,2.8-4.8c2-1,4.9-1.4,9.2-1.5v-0.8c0-3.4-1.3-4.8-4-4.8
				c-2.8,0-3.9,1.6-4,3.2H199z M210,88.2v-0.4c-4.1,0.2-6.4,0.5-7.7,1.4c-0.7,0.5-1,1.3-1,2.3c0,1.9,1.3,3,3.3,3
				C207,94.5,210,92.8,210,88.2z"/>
		</g>
		<g class="st2">
			<path class="st3" d="M218.4,98.7h3.1c0.4,1.6,1.6,2.7,4.7,2.7c3.6,0,5.4-1.3,5.4-5.5V93h0c-1,1.9-3.2,3.5-6,3.5
				c-4,0-7.6-2.5-7.6-9.5c0-6.3,3.3-9.7,8-9.7c3.1,0,4.9,1.7,5.7,3.5h0.1v-3h3.1v18.5c0,5.3-3.5,7.6-8.6,7.6
				C222.5,103.9,218.8,102.6,218.4,98.7z M231.7,86.2c0-3.8-2.1-6.4-5.4-6.4c-3.4,0-5,2.8-5,7.1c0,4.2,1.2,7.1,5.2,7.1
				c3.1,0,5.3-2.7,5.3-5.9V86.2z"/>
			<path class="st3" d="M253.6,85.1c0-1.4,0-2.9-0.7-3.8c-0.6-0.9-1.7-1.3-3-1.3c-3.5,0-5.1,2.3-5.1,5.4v11.4h-3.2v-19h3.1V81h0.1
				c0.9-1.9,3.1-3.7,6.1-3.7c3.6,0,6,1.7,6,6.2v13.2h-3.2V85.1z"/>
		</g>
		<g class="st2">
			<path class="st3" d="M261.4,87.3c0-5.9,3.2-9.9,8.5-9.9c5.7,0,8.5,4.1,8.5,9.9c0,5.9-3.2,10-8.5,10
				C264.2,97.2,261.4,93.2,261.4,87.3z M264.7,87.3c0,4.6,1.5,7.5,5.2,7.5c3.5,0,5.1-2.8,5.1-7.5c0-4.6-1.5-7.5-5.1-7.5
				C266.4,79.8,264.7,82.6,264.7,87.3z"/>
			<path class="st3" d="M293,82.5c-0.2-1.7-1.5-2.8-3.8-2.8s-3.7,1.3-3.7,3.1c0,1.5,0.9,2.3,2.8,2.6l2.9,0.4c4,0.6,5.4,2.2,5.4,5.5
				c0,3.8-3.1,5.9-7.4,5.9c-3.9,0-7.2-1.8-7.4-5.8h3.2c0.1,1.5,1,3.3,4.3,3.3c2.6,0,4.2-1.2,4.2-3.2c0-1.5-0.4-2.3-3-2.8l-2.9-0.4
				c-3.4-0.5-5.2-1.9-5.2-5.3c0-3.3,2.6-5.8,6.9-5.8c4.1,0,6.4,1.9,6.8,5.2H293z"/>
		</g>
		<g class="st2">
			<path class="st3" d="M308.4,97.2c-5.8,0-8.6-4.2-8.6-9.9c0-5.6,3-10,8.5-10c5.7,0,7.9,4.4,7.9,9.2v1.7h-13.1
				c0.2,3.9,1.8,6.6,5.4,6.6c3.2,0,4-1.8,4.3-3h3.1C315.3,95.1,312.5,97.2,308.4,97.2z M312.9,85.4c-0.1-3.2-1.3-5.6-4.6-5.6
				c-3,0-4.7,2.4-5.1,5.8h9.7V85.4z"/>
			<path class="st3" d="M330.7,82.5c-0.2-1.7-1.5-2.8-3.8-2.8s-3.7,1.3-3.7,3.1c0,1.5,0.9,2.3,2.8,2.6l2.9,0.4
				c4,0.6,5.4,2.2,5.4,5.5c0,3.8-3.1,5.9-7.4,5.9c-3.9,0-7.2-1.8-7.4-5.8h3.2c0.1,1.5,1,3.3,4.3,3.3c2.6,0,4.2-1.2,4.2-3.2
				c0-1.5-0.4-2.3-3-2.8l-2.9-0.4c-3.4-0.5-5.2-1.9-5.2-5.3c0-3.3,2.6-5.8,6.9-5.8c4.1,0,6.4,1.9,6.8,5.2H330.7z"/>
		</g>
		<g class="st2">
			<path class="st3" d="M715.2,83c0,7.1,3.2,11.5,8.7,11.5c4.9,0,6.9-3.3,7.2-6.4h3.4c-0.4,5.2-4.4,9.1-10.7,9.1
				c-7.2,0-12.2-4.6-12.2-14.3c0-9,5.1-14.3,12.3-14.3c4.7,0,10,2.5,10.6,8.6H731c-0.5-2.8-2.6-5.9-7.1-5.9
				C718.2,71.5,715.2,76.2,715.2,83z"/>
		</g>
		<g class="st2">
			<path class="st3" d="M749.9,85.1h-6.1v11.7h-3.3V69.2h10c2,0,3.8,0.4,5.3,1.2c2.2,1.2,3.6,3.3,3.6,6.5c0,5.2-3.4,6.9-5.9,7.6v0.1
				l6.1,12.1h-3.9L749.9,85.1z M750.1,82.3c3.2,0,5.7-1.5,5.7-5.3c0-3.4-2.3-5-5.5-5h-6.5v10.4H750.1z"/>
		</g>
		<g class="st2">
			<path class="st3" d="M767.2,83c0,7.1,3.2,11.5,8.7,11.5c4.9,0,6.9-3.3,7.2-6.4h3.4c-0.4,5.2-4.4,9.1-10.7,9.1
				c-7.2,0-12.2-4.6-12.2-14.3c0-9,5.1-14.3,12.3-14.3c4.7,0,10,2.5,10.6,8.6H783c-0.5-2.8-2.6-5.9-7.1-5.9
				C770.3,71.5,767.2,76.2,767.2,83z"/>
			<path class="st3" d="M817.3,96.8h-3.1v-3.1h-0.1c-1,1.9-3.1,3.6-6,3.6c-4,0-7.7-2.5-7.7-9.8c0-6.5,3.4-10.1,8.2-10.1
				c2.8,0,4.7,1.6,5.4,3.3h0.1V68.4h3.2V96.8z M814.1,86.5c0-4-2.1-6.6-5.1-6.6c-3.6,0-5.3,2.9-5.3,7.3c0,4.3,1.3,7.4,5,7.4
				c3.3,0,5.4-2.7,5.4-6.1V86.5z"/>
			<path class="st3" d="M824,70h3.4v3.5H824V70z M824.1,77.8h3.3v19h-3.3V77.8z"/>
		</g>
		<g class="st2">
			<path class="st3" d="M832.7,83c0.1-3.3,2.6-5.7,7.2-5.7c4.7,0,7,2,7,7.1v7.7c0,1.5,0.3,2.1,1.7,2.2v2.6h-0.4c-3,0-4-1.1-4.4-3.3
				h-0.1c-1,2.2-3.3,3.5-6.1,3.5c-3.8,0-6-2.1-6-5.4c0-2.1,0.9-3.8,2.8-4.8c2-1,4.9-1.4,9.2-1.5v-0.8c0-3.4-1.3-4.8-4-4.8
				c-2.8,0-3.9,1.6-4,3.2H832.7z M843.7,88.2v-0.4c-4.1,0.2-6.4,0.5-7.7,1.4c-0.7,0.5-1,1.3-1,2.3c0,1.9,1.3,3,3.3,3
				C840.7,94.5,843.7,92.8,843.7,88.2z"/>
		</g>
		<g class="st2">
			<path class="st3" d="M852.1,98.7h3.1c0.4,1.6,1.6,2.7,4.7,2.7c3.6,0,5.4-1.3,5.4-5.5V93h0c-1,1.9-3.2,3.5-6,3.5
				c-4,0-7.6-2.5-7.6-9.5c0-6.3,3.3-9.7,8-9.7c3.1,0,4.9,1.7,5.7,3.5h0.1v-3h3.1v18.5c0,5.3-3.5,7.6-8.6,7.6
				C856.2,103.9,852.5,102.6,852.1,98.7z M865.3,86.2c0-3.8-2.1-6.4-5.4-6.4c-3.4,0-5,2.8-5,7.1c0,4.2,1.2,7.1,5.2,7.1
				c3.1,0,5.3-2.7,5.3-5.9V86.2z"/>
			<path class="st3" d="M887.3,85.1c0-1.4,0-2.9-0.7-3.8c-0.6-0.9-1.7-1.3-3-1.3c-3.5,0-5.1,2.3-5.1,5.4v11.4h-3.2v-19h3.1V81h0.1
				c0.9-1.9,3.1-3.7,6.1-3.7c3.6,0,6,1.7,6,6.2v13.2h-3.2V85.1z"/>
		</g>
		<g class="st2">
			<path class="st3" d="M895,87.3c0-5.9,3.2-9.9,8.5-9.9c5.7,0,8.5,4.1,8.5,9.9c0,5.9-3.2,10-8.5,10C897.9,97.2,895,93.2,895,87.3z
				 M898.4,87.3c0,4.6,1.5,7.5,5.2,7.5c3.5,0,5.1-2.8,5.1-7.5c0-4.6-1.5-7.5-5.1-7.5C900.1,79.8,898.4,82.6,898.4,87.3z"/>
			<path class="st3" d="M926.7,82.5c-0.2-1.7-1.5-2.8-3.8-2.8c-2.2,0-3.7,1.3-3.7,3.1c0,1.5,0.9,2.3,2.8,2.6l2.9,0.4
				c4,0.6,5.4,2.2,5.4,5.5c0,3.8-3.1,5.9-7.4,5.9c-3.9,0-7.2-1.8-7.4-5.8h3.2c0.1,1.5,1,3.3,4.3,3.3c2.6,0,4.2-1.2,4.2-3.2
				c0-1.5-0.4-2.3-3-2.8l-2.9-0.4c-3.4-0.5-5.2-1.9-5.2-5.3c0-3.3,2.6-5.8,6.9-5.8c4.1,0,6.4,1.9,6.8,5.2H926.7z"/>
		</g>
		<g class="st2">
			<path class="st3" d="M942.1,97.2c-5.8,0-8.6-4.2-8.6-9.9c0-5.6,3-10,8.5-10c5.7,0,7.9,4.4,7.9,9.2v1.7h-13.1
				c0.2,3.9,1.8,6.6,5.4,6.6c3.2,0,4-1.8,4.3-3h3.1C949,95.1,946.2,97.2,942.1,97.2z M946.6,85.4c-0.1-3.2-1.3-5.6-4.6-5.6
				c-3,0-4.7,2.4-5.1,5.8h9.7V85.4z"/>
			<path class="st3" d="M964.4,82.5c-0.2-1.7-1.5-2.8-3.8-2.8c-2.2,0-3.7,1.3-3.7,3.1c0,1.5,0.9,2.3,2.8,2.6l2.9,0.4
				c4,0.6,5.4,2.2,5.4,5.5c0,3.8-3.1,5.9-7.4,5.9c-3.9,0-7.2-1.8-7.4-5.8h3.2c0.1,1.5,1,3.3,4.3,3.3c2.6,0,4.2-1.2,4.2-3.2
				c0-1.5-0.4-2.3-3-2.8l-2.9-0.4c-3.4-0.5-5.2-1.9-5.2-5.3c0-3.3,2.6-5.8,6.9-5.8c4.1,0,6.4,1.9,6.8,5.2H964.4z"/>
		</g>
		<path class="st4" d="M144.3,513.6l14.6-2l5.4-14.2l13.8-2.2l24.1-12.5l20.1-14.3l11.2-6.7h39.7l13.8-3.6l14.3-17l18.3-13.8l4-5.4
			l10.3-4.8l13.4-16.8l13-7.8l8-4.9l12.5-18.8l13-8.1l11.6-17.1c0,0,10.7-10.9,12-11.4s13.4-3.1,13.4-3.1l17.9-11l8.9-15.8l10.3-5.8
			l7.6-8c0,0,6.7-10.7,8.9-10.7s13-3.7,13-3.7l6.2-9.5l9.8-10.4l10.3-4.9l14-11.6"/>
		<path class="st5" d="M145.5,514.9L171,502l53.1-24.2l16.1-8.5l34.7-14.3l14-6.2l38.4-21l21-13l21-17.4l32.1-22.8l17-13.8l17.9-9.8
			l17.4-12l12-9.4l19.2-11.4l16.1-14.5c0,0,11.2-12.1,12.5-12.5s12.5-2.2,12.5-2.2l11.8-12.5"/>
		<path class="st6" d="M145.5,514.9l45.5-19.2l22.3-4c0,0,7.1-8.9,9.4-8.9h14.7c0,0,23.2-29,25-29s28.9-10.7,28.9-10.7l19.7-1.8
			l26.8-16l14.3-4.1l16.1-16h9.8l18.8-15.4l14.3-2l39.3-26.9l29-11.9l24.5-22.3c0,0,11.2-9.1,12.5-8.4c1.3,0.7,9.4,0,9.4,0l10.3-12"
			/>
		<g>
			<line class="st7" x1="792.5" y1="513.6" x2="795.8" y2="513.2"/>
			<line class="st8" x1="797.8" y1="512.9" x2="802.8" y2="512.2"/>
			<polyline class="st7" points="803.8,512.1 807.1,511.6 808.2,508.5 			"/>
			<line class="st9" x1="809" y1="506.5" x2="810.9" y2="501.5"/>
			<polyline class="st7" points="811.3,500.5 812.4,497.5 815.7,496.9 			"/>
			<path class="st10" d="M818.9,496.4l7.3-1.2l24.1-12.5l20.1-14.3l11.2-6.7h39.7l13.8-3.6l14.3-17l18.3-13.8l4-5.4l10.3-4.8
				l13.4-16.8l13-7.8l8-4.9l12.5-18.8l12.9-8.1l11.6-17.1c0,0,10.7-10.9,12.1-11.4c1.3-0.5,13.4-3.1,13.4-3.1l17.9-11l8.9-15.8
				l10.3-5.8l7.6-8c0,0,6.7-10.7,8.9-10.7s12.9-3.7,12.9-3.7l6.2-9.6l9.8-10.4l10.3-4.9l10.2-8.5"/>
			<line class="st7" x1="1183.3" y1="239.7" x2="1185.9" y2="237.6"/>
		</g>
		<path class="st7" d="M790.9,509.8c0,0-0.6-3.3,1.6-4.7c2.1-1.4,4-12.9,4-12.9l3.7-6.9l5.5-31l8.8-13.1l11.5-4.9l17.1-18.5l24-14.5
			l22.2-4l18.5-6.9l22.2-2.7c0,0,12.5-4.3,14.3-5c1.8-0.6,32.8,0,32.8,0l13.9-9.1l26.8-4h33.7l39.8-6l17.6-10l17.1-3.4l23.1-5.5
			h15.2l18.5-4.5"/>
	</g>
</g>
</svg>
