<?xml version="1.0" encoding="utf-8"?>
<!-- Generator: Adobe Illustrator 28.0.0, SVG Export Plug-In . SVG Version: 6.00 Build 0)  -->
<svg version="1.1" id="Layer_1" xmlns="http://www.w3.org/2000/svg" xmlns:xlink="http://www.w3.org/1999/xlink" x="0px" y="0px"
	 viewBox="0 0 1366 787" style="enable-background:new 0 0 1366 787;" xml:space="preserve">
<style type="text/css">
	.st0{fill:#FFFFFF;}
	.st1{enable-background:new    ;}
	.st2{fill:#231F20;}
	.st3{fill:none;stroke:#231F20;stroke-width:0.75;stroke-miterlimit:10;}
	.st4{fill:none;stroke:#F15B40;stroke-width:3;stroke-linejoin:round;}
	.st5{fill:none;stroke:#FFCA05;stroke-width:3;stroke-linejoin:round;}
	.st6{fill:none;stroke:#60C3AD;stroke-width:3;stroke-linejoin:round;}
	.st7{fill:none;stroke:#231F20;stroke-width:0.77;stroke-miterlimit:10;stroke-dasharray:0,0,6.17,3.08;}
	.st8{fill:none;stroke:#231F20;stroke-width:0.77;stroke-miterlimit:10;stroke-dasharray:0,0,6.15,3.07;}
</style>
<g>
	<g id="Layer_1_00000064317633608765495140000018302807498356157868_">
		<rect x="1.5" y="1.5" class="st0" width="1362.9" height="783.9"/>
		<path d="M1362.9,3v780.8H3.1V3H1362.9 M1366,0H0v787h1366L1366,0L1366,0L1366,0z"/>
		<g class="st1">
			<path class="st2" d="M81.5,85.4c0,7.1,3.2,11.5,8.7,11.5c4.9,0,6.9-3.3,7.2-6.4h3.4c-0.4,5.2-4.4,9.1-10.7,9.1
				c-7.2,0-12.2-4.6-12.2-14.3c0-9,5.1-14.3,12.3-14.3c4.7,0,10,2.5,10.6,8.6h-3.5c-0.5-2.8-2.6-5.9-7.1-5.9
				C84.6,73.9,81.5,78.5,81.5,85.4z"/>
		</g>
		<g class="st1">
			<path class="st2" d="M116.2,87.4h-6.1v11.7h-3.3V71.6h10c2,0,3.8,0.4,5.3,1.2c2.2,1.2,3.6,3.3,3.6,6.5c0,5.2-3.4,6.9-5.9,7.6V87
				l6.1,12.1h-3.9L116.2,87.4z M116.4,84.7c3.2,0,5.7-1.5,5.7-5.3c0-3.4-2.3-5-5.5-5h-6.5v10.4H116.4z"/>
		</g>
		<g class="st1">
			<path class="st2" d="M133.5,85.4c0,7.1,3.2,11.5,8.7,11.5c4.9,0,6.9-3.3,7.2-6.4h3.4c-0.4,5.2-4.4,9.1-10.7,9.1
				C135,99.6,130,95,130,85.4c0-9,5.1-14.3,12.3-14.3c4.7,0,10,2.5,10.6,8.6h-3.5c-0.5-2.8-2.6-5.9-7.1-5.9
				C136.6,73.9,133.5,78.5,133.5,85.4z"/>
			<path class="st2" d="M183.6,99.1h-3.1V96h-0.1c-1,1.9-3.1,3.6-6,3.6c-4,0-7.7-2.5-7.7-9.8c0-6.5,3.4-10.1,8.2-10.1
				c2.8,0,4.7,1.6,5.4,3.3h0.1V70.7h3.2V99.1z M180.4,88.9c0-4-2.1-6.6-5.1-6.6c-3.6,0-5.3,2.9-5.3,7.3c0,4.3,1.3,7.4,5,7.4
				c3.3,0,5.4-2.7,5.4-6.1V88.9z"/>
			<path class="st2" d="M190.3,72.3h3.4v3.5h-3.4V72.3z M190.4,80.1h3.3v19h-3.3V80.1z"/>
		</g>
		<g class="st1">
			<path class="st2" d="M199,85.3c0.1-3.3,2.6-5.7,7.2-5.7c4.7,0,7,2,7,7.1v7.7c0,1.5,0.3,2.1,1.7,2.2v2.6h-0.4c-3,0-4-1.1-4.4-3.3
				h-0.1c-1,2.2-3.3,3.5-6.1,3.5c-3.8,0-6-2.1-6-5.4c0-2.1,0.9-3.8,2.8-4.8c2-1,4.9-1.4,9.2-1.5v-0.8c0-3.4-1.3-4.8-4-4.8
				c-2.8,0-3.9,1.6-4,3.2H199z M210,90.5v-0.4c-4.1,0.2-6.4,0.5-7.7,1.4c-0.7,0.5-1,1.3-1,2.3c0,1.9,1.3,3,3.3,3
				C207,96.8,210,95.2,210,90.5z"/>
		</g>
		<g class="st1">
			<path class="st2" d="M218.4,101h3.1c0.4,1.6,1.6,2.7,4.7,2.7c3.6,0,5.4-1.3,5.4-5.5v-2.8h0c-1,1.9-3.2,3.5-6,3.5
				c-4,0-7.6-2.5-7.6-9.5c0-6.3,3.3-9.7,8-9.7c3.1,0,4.9,1.7,5.7,3.5h0.1v-3h3.1v18.5c0,5.3-3.5,7.6-8.6,7.6
				C222.5,106.3,218.8,104.9,218.4,101z M231.7,88.6c0-3.8-2.1-6.4-5.4-6.4c-3.4,0-5,2.8-5,7.1c0,4.2,1.2,7.1,5.2,7.1
				c3.1,0,5.3-2.7,5.3-5.9V88.6z"/>
			<path class="st2" d="M253.6,87.4c0-1.4,0-2.9-0.7-3.8c-0.6-0.9-1.7-1.3-3-1.3c-3.5,0-5.1,2.3-5.1,5.4v11.4h-3.2v-19h3.1v3.2h0.1
				c0.9-1.9,3.1-3.7,6.1-3.7c3.6,0,6,1.7,6,6.2v13.2h-3.2V87.4z"/>
		</g>
		<g class="st1">
			<path class="st2" d="M261.4,89.6c0-5.9,3.2-9.9,8.5-9.9c5.7,0,8.5,4.1,8.5,9.9c0,5.9-3.2,10-8.5,10
				C264.2,99.6,261.4,95.5,261.4,89.6z M264.7,89.6c0,4.6,1.5,7.5,5.2,7.5c3.5,0,5.1-2.8,5.1-7.5c0-4.6-1.5-7.5-5.1-7.5
				C266.4,82.2,264.7,85,264.7,89.6z"/>
			<path class="st2" d="M293,84.9c-0.2-1.7-1.5-2.8-3.8-2.8s-3.7,1.3-3.7,3.1c0,1.5,0.9,2.3,2.8,2.6l2.9,0.4c4,0.6,5.4,2.2,5.4,5.5
				c0,3.8-3.1,5.9-7.4,5.9c-3.9,0-7.2-1.8-7.4-5.8h3.2c0.1,1.5,1,3.3,4.3,3.3c2.6,0,4.2-1.2,4.2-3.2c0-1.5-0.4-2.3-3-2.8l-2.9-0.4
				c-3.4-0.5-5.2-1.9-5.2-5.3c0-3.3,2.6-5.8,6.9-5.8c4.1,0,6.4,1.9,6.8,5.2H293z"/>
		</g>
		<g class="st1">
			<path class="st2" d="M308.4,99.6c-5.8,0-8.6-4.2-8.6-9.9c0-5.6,3-10,8.5-10c5.7,0,7.9,4.4,7.9,9.2v1.7h-13.1
				c0.2,3.9,1.8,6.6,5.4,6.6c3.2,0,4-1.8,4.3-3h3.1C315.3,97.4,312.5,99.6,308.4,99.6z M312.9,87.7c-0.1-3.2-1.3-5.6-4.6-5.6
				c-3,0-4.7,2.4-5.1,5.8h9.7V87.7z"/>
			<path class="st2" d="M330.7,84.9c-0.2-1.7-1.5-2.8-3.8-2.8s-3.7,1.3-3.7,3.1c0,1.5,0.9,2.3,2.8,2.6l2.9,0.4
				c4,0.6,5.4,2.2,5.4,5.5c0,3.8-3.1,5.9-7.4,5.9c-3.9,0-7.2-1.8-7.4-5.8h3.2c0.1,1.5,1,3.3,4.3,3.3c2.6,0,4.2-1.2,4.2-3.2
				c0-1.5-0.4-2.3-3-2.8l-2.9-0.4c-3.4-0.5-5.2-1.9-5.2-5.3c0-3.3,2.6-5.8,6.9-5.8c4.1,0,6.4,1.9,6.8,5.2H330.7z"/>
		</g>
		<g>
			<g class="st1">
				<path class="st2" d="M89.9,542.8H96v1.9H80.1v-4.8c0-3.1,1.5-5.5,4.9-5.5c3.4,0,5,2.4,5,5.6V542.8z M88.4,540.1
					c0-2.3-1.1-3.6-3.4-3.6c-2.4,0-3.3,1.3-3.3,3.6v2.8h6.7V540.1z"/>
				<path class="st2" d="M96.3,527.8c0,3.4-2.4,5-5.7,5c-3.3,0-5.8-1.8-5.8-4.9c0-3.3,2.5-4.6,5.3-4.6h1v7.6c2.3-0.1,3.8-1,3.8-3.1
					c0-1.8-1.1-2.3-1.7-2.5v-1.8C95,523.8,96.3,525.4,96.3,527.8z M89.4,525.1c-1.8,0-3.3,0.8-3.3,2.7c0,1.8,1.4,2.7,3.4,2.9v-5.6
					H89.4z"/>
			</g>
			<g class="st1">
				<path class="st2" d="M85,520.4v-1.8h2.1v0c-1.1-0.5-2.3-1.9-2.3-3.5v-0.2h2v0.4c0,2,1.1,3.3,3.3,3.3h6v1.9H85z"/>
			</g>
			<g class="st1">
				<path class="st2" d="M88.3,506c-1.1,0.1-2.1,0.9-2.1,2.5c0,2,1.7,3,4.3,3c2.5,0,4.3-0.8,4.3-3c0-2.1-1.5-2.6-2.4-2.7v-1.8
					c2.5,0.3,3.8,2.1,3.8,4.5c0,3.2-2.2,4.9-5.7,4.9c-3.4,0-5.8-1.8-5.8-4.9c0-2.2,1-4.2,3.6-4.4V506z"/>
			</g>
			<g class="st1">
				<path class="st2" d="M96.3,497.2c0,3.4-2.4,5-5.7,5c-3.3,0-5.8-1.8-5.8-4.9c0-3.3,2.5-4.6,5.3-4.6h1v7.6c2.3-0.1,3.8-1,3.8-3.1
					c0-1.8-1.1-2.3-1.7-2.5v-1.8C95,493.2,96.3,494.8,96.3,497.2z M89.4,494.6c-1.8,0-3.3,0.8-3.3,2.7c0,1.8,1.4,2.7,3.4,2.9v-5.6
					H89.4z"/>
			</g>
			<g class="st1">
				<path class="st2" d="M89.2,482.8c-0.8,0-1.7,0-2.2,0.4c-0.5,0.4-0.7,1-0.7,1.7c0,2,1.3,3,3.1,3H96v1.9H85V488h1.9v0
					c-1.1-0.5-2.1-1.8-2.1-3.5c0-2.1,1-3.5,3.6-3.5H96v1.9H89.2z"/>
				<path class="st2" d="M81.8,474.8H85v-2.7h1.4v2.7h6.5c1.2,0,1.6-0.5,1.6-1.7c0-0.6-0.1-1.2-0.1-1.2H96c0,0,0.1,0.8,0.1,1.7
					c0,2.1-1,3-2.9,3h-6.8v2h-1.4v-0.3c0-1.5-0.4-1.8-2.5-1.8h-0.8V474.8z"/>
			</g>
			<g class="st1">
				<path class="st2" d="M85,463.9v-1.8h2.1v0c-1.1-0.5-2.3-1.9-2.3-3.5v-0.2h2v0.4c0,2,1.1,3.3,3.3,3.3h6v1.9H85z"/>
			</g>
			<g class="st1">
				<path class="st2" d="M96.3,451.9c0,3.4-2.4,5-5.7,5c-3.3,0-5.8-1.8-5.8-4.9c0-3.3,2.5-4.6,5.3-4.6h1v7.6c2.3-0.1,3.8-1,3.8-3.1
					c0-1.8-1.1-2.3-1.7-2.5v-1.8C95,448,96.3,449.6,96.3,451.9z M89.4,449.3c-1.8,0-3.3,0.8-3.3,2.7c0,1.8,1.4,2.7,3.4,2.9v-5.6
					H89.4z"/>
			</g>
			<g class="st1">
				<path class="st2" d="M96,435.5v1.8h-1.8v0.1c1.1,0.6,2.1,1.8,2.1,3.5c0,2.3-1.5,4.5-5.7,4.5c-3.8,0-5.8-2-5.8-4.7
					c0-1.6,0.9-2.7,1.9-3.1v0h-7.1v-1.9H96z M90.1,437.4c-2.3,0-3.8,1.2-3.8,3c0,2.1,1.7,3.1,4.3,3.1c2.5,0,4.3-0.7,4.3-2.9
					c0-1.9-1.5-3.1-3.5-3.1H90.1z"/>
				<path class="st2" d="M91.8,429.8c0.8,0,1.7,0,2.2-0.4c0.5-0.4,0.7-1,0.7-1.7c0-2-1.4-3-3.8-3H85v-1.9h11v1.8h-1.9v0
					c1.1,0.5,2.1,1.7,2.1,3.5c0,2.1-1,3.5-3.6,3.5H85v-1.9H91.8z"/>
				<path class="st2" d="M88.3,412.5c-1.1,0.1-2.1,0.9-2.1,2.5c0,2,1.7,3,4.3,3c2.5,0,4.3-0.8,4.3-3c0-2.1-1.5-2.6-2.4-2.7v-1.8
					c2.5,0.3,3.8,2.1,3.8,4.5c0,3.2-2.2,4.9-5.7,4.9c-3.4,0-5.8-1.8-5.8-4.9c0-2.2,1-4.2,3.6-4.4V412.5z"/>
			</g>
			<g class="st1">
				<path class="st2" d="M81.8,405.4H85v-2.7h1.4v2.7h6.5c1.2,0,1.6-0.5,1.6-1.7c0-0.6-0.1-1.2-0.1-1.2H96c0,0,0.1,0.8,0.1,1.7
					c0,2.1-1,3-2.9,3h-6.8v2h-1.4V409c0-1.5-0.4-1.8-2.5-1.8h-0.8V405.4z"/>
			</g>
			<g class="st1">
				<path class="st2" d="M80.5,400v-2h2v2H80.5z M85,400v-1.9h11v1.9H85z"/>
				<path class="st2" d="M90.5,395.1c-3.4,0-5.8-1.9-5.8-4.9c0-3.3,2.4-4.9,5.8-4.9c3.4,0,5.8,1.9,5.8,4.9
					C96.3,393.5,93.9,395.1,90.5,395.1z M90.5,393.2c2.7,0,4.3-0.9,4.3-3c0-2-1.6-2.9-4.3-2.9c-2.7,0-4.3,0.9-4.3,3
					C86.2,392.2,87.8,393.2,90.5,393.2z"/>
				<path class="st2" d="M89.2,375.4c-0.8,0-1.7,0-2.2,0.4c-0.5,0.4-0.7,1-0.7,1.7c0,2,1.3,3,3.1,3H96v1.9H85v-1.8h1.9v0
					c-1.1-0.5-2.1-1.8-2.1-3.5c0-2.1,1-3.5,3.6-3.5H96v1.9H89.2z"/>
			</g>
		</g>
		<g>
			<g class="st1">
				<path class="st2" d="M132.2,296.1c-1,0-1.9,0.4-2.3,1.1h-1.3l0.5-6.7h6.7v1.3h-5.4l-0.3,4h0c0.4-0.5,1.3-1,2.4-1
					c2,0,3.9,1.2,3.9,4.2c0,2.6-1.7,4.3-4.3,4.3c-2.8,0-3.9-1.8-4-3.5h1.5c0.1,1.6,1.1,2.2,2.5,2.2c1.3,0,2.7-0.9,2.7-3
					C134.8,297.1,133.7,296.1,132.2,296.1z"/>
				<path class="st2" d="M143.3,290.3c2.8,0,4.5,2.1,4.5,6.5c0,4.4-1.8,6.5-4.5,6.5c-2.8,0-4.5-2.2-4.5-6.5
					C138.8,292.4,140.6,290.3,143.3,290.3z M146.2,296.8c0-3.5-1.1-5.3-2.9-5.3c-1.8,0-2.9,1.7-2.9,5.3c0,3.5,1.1,5.2,2.9,5.2
					C145,302.1,146.2,300.3,146.2,296.8z"/>
			</g>
		</g>
		<g>
			<g class="st1">
				<path class="st2" d="M129.3,364.9c0-2.5,1.8-4,4.1-4c2.8,0,3.9,1.7,3.9,3.4c0,1.7-0.7,2.7-2.8,4.7l-3.4,3.3v0h6.3v1.4H129v-1.2
					l4.3-4.3c1.4-1.5,2.3-2.4,2.3-3.8c0-1.3-0.9-2.2-2.3-2.2c-1.3,0-2.5,0.8-2.5,2.8H129.3z"/>
			</g>
			<g class="st1">
				<path class="st2" d="M143.6,366.6c-1,0-1.9,0.4-2.3,1.1h-1.3l0.5-6.7h6.7v1.3h-5.4l-0.3,4h0c0.4-0.5,1.3-1,2.4-1
					c2,0,3.9,1.2,3.9,4.2c0,2.6-1.7,4.3-4.3,4.3c-2.8,0-3.9-1.8-4-3.5h1.5c0.1,1.6,1.1,2.2,2.5,2.2c1.3,0,2.7-0.9,2.7-3
					C146.2,367.7,145.1,366.6,143.6,366.6z"/>
			</g>
		</g>
		<g>
			<g class="st1">
				<path class="st2" d="M142.4,430.3c3.2,0,5.3,2.5,5.3,7.6c0,5.1-2,7.6-5.3,7.6c-3.2,0-5.2-2.5-5.2-7.6
					C137.2,432.8,139.2,430.3,142.4,430.3z M145.7,437.9c0-4.1-1.3-6.1-3.3-6.1c-2,0-3.3,2-3.3,6.1c0,4,1.2,6.1,3.3,6.1
					C144.4,443.9,145.7,441.8,145.7,437.9z"/>
			</g>
		</g>
		<g class="st1">
			<path class="st2" d="M123.2,508.5h4.7v1.4h-4.7V508.5z"/>
		</g>
		<g class="st1">
			<path class="st2" d="M129.3,506c0-2.5,1.8-4,4.1-4c2.8,0,3.9,1.7,3.9,3.4c0,1.7-0.7,2.7-2.8,4.7l-3.4,3.3v0h6.3v1.4H129v-1.2
				l4.3-4.3c1.4-1.5,2.3-2.4,2.3-3.8c0-1.3-0.9-2.2-2.3-2.2c-1.3,0-2.5,0.8-2.5,2.8H129.3z"/>
		</g>
		<g class="st1">
			<path class="st2" d="M143.6,507.8c-1,0-1.9,0.4-2.3,1.1h-1.3l0.5-6.7h6.7v1.3h-5.4l-0.3,4h0c0.4-0.5,1.3-1,2.4-1
				c2,0,3.9,1.2,3.9,4.2c0,2.6-1.7,4.3-4.3,4.3c-2.8,0-3.9-1.8-4-3.5h1.5c0.1,1.6,1.1,2.2,2.5,2.2c1.3,0,2.7-0.9,2.7-3
				C146.2,508.8,145.1,507.8,143.6,507.8z"/>
		</g>
		<g class="st1">
			<path class="st2" d="M121.5,579h4.7v1.4h-4.7V579z"/>
		</g>
		<g class="st1">
			<path class="st2" d="M132.2,578.3c-1,0-1.9,0.4-2.3,1.1h-1.3l0.5-6.7h6.7v1.3h-5.4l-0.3,4h0c0.4-0.5,1.3-1,2.4-1
				c2,0,3.9,1.2,3.9,4.2c0,2.6-1.7,4.3-4.3,4.3c-2.8,0-3.9-1.8-4-3.5h1.5c0.1,1.6,1.1,2.2,2.5,2.2c1.3,0,2.7-0.9,2.7-3
				C134.9,579.4,133.7,578.3,132.2,578.3z"/>
			<path class="st2" d="M143.3,572.5c2.8,0,4.5,2.1,4.5,6.5c0,4.4-1.8,6.5-4.5,6.5c-2.8,0-4.5-2.2-4.5-6.5
				C138.8,574.7,140.6,572.5,143.3,572.5z M146.2,579.1c0-3.5-1.1-5.3-2.9-5.3c-1.8,0-2.9,1.7-2.9,5.3c0,3.5,1.1,5.2,2.9,5.2
				C145.1,584.3,146.2,582.5,146.2,579.1z"/>
		</g>
		<g class="st1">
			<path class="st2" d="M124.3,649.6h4.7v1.4h-4.7V649.6z"/>
		</g>
		<g class="st1">
			<path class="st2" d="M136,644.6h-6.2v-1.4h8v1l-5.3,11.6h-1.6L136,644.6z"/>
			<path class="st2" d="M143.6,648.9c-1,0-1.9,0.4-2.3,1.1h-1.3l0.5-6.7h6.7v1.3h-5.4l-0.3,4h0c0.4-0.5,1.3-1,2.4-1
				c2,0,3.9,1.2,3.9,4.2c0,2.6-1.7,4.3-4.3,4.3c-2.8,0-3.9-1.8-4-3.5h1.5c0.1,1.6,1.1,2.2,2.5,2.2c1.3,0,2.7-0.9,2.7-3
				C146.2,649.9,145.1,648.9,143.6,648.9z"/>
		</g>
		<polyline class="st3" points="163,293.7 163,656.9 658.6,656.9 		"/>
		<polyline class="st3" points="751.7,293.7 751.7,656.9 1247.3,656.9 		"/>
		<g>
			<g class="st1">
				<path class="st2" d="M323.4,720.1l-4.6-7.4h1.8l3.5,6h0l3.7-6h1.7l-4.6,7.3v5.7h-1.6V720.1z"/>
			</g>
			<g class="st1">
				<path class="st2" d="M333.3,725.9c-2.7,0-4-2-4-4.7c0-2.7,1.4-4.7,4-4.7c2.7,0,3.7,2.1,3.7,4.3v0.8h-6.2
					c0.1,1.9,0.9,3.1,2.5,3.1c1.5,0,1.9-0.9,2-1.4h1.5C336.5,724.9,335.2,725.9,333.3,725.9z M335.4,720.3c0-1.5-0.6-2.7-2.2-2.7
					c-1.4,0-2.2,1.1-2.4,2.8h4.6V720.3z"/>
				<path class="st2" d="M339,719.1c0-1.6,1.2-2.7,3.4-2.7c2.2,0,3.3,0.9,3.3,3.3v3.7c0,0.7,0.2,1,0.8,1v1.2h-0.2
					c-1.4,0-1.9-0.5-2.1-1.6h0c-0.5,1.1-1.5,1.7-2.9,1.7c-1.8,0-2.8-1-2.8-2.6c0-1,0.4-1.8,1.3-2.3c0.9-0.5,2.3-0.7,4.3-0.7v-0.4
					c0-1.6-0.6-2.2-1.9-2.2c-1.3,0-1.8,0.8-1.9,1.5H339z M344.2,721.6v-0.2c-1.9,0.1-3,0.2-3.6,0.7c-0.3,0.3-0.5,0.6-0.5,1.1
					c0,0.9,0.6,1.4,1.6,1.4C342.8,724.6,344.2,723.8,344.2,721.6z"/>
			</g>
			<g class="st1">
				<path class="st2" d="M348.8,716.7h1.4v1.7h0c0.4-0.9,1.5-1.9,2.8-1.9h0.2v1.6H353c-1.6,0-2.7,0.9-2.7,2.7v4.9h-1.5V716.7z"/>
			</g>
			<g class="st1">
				<path class="st2" d="M359.7,718.9c-0.1-0.8-0.7-1.3-1.8-1.3c-1.1,0-1.8,0.6-1.8,1.4c0,0.7,0.4,1.1,1.3,1.2l1.4,0.2
					c1.9,0.3,2.5,1.1,2.5,2.6c0,1.8-1.5,2.8-3.5,2.8c-1.9,0-3.4-0.8-3.5-2.8h1.5c0.1,0.7,0.5,1.6,2,1.6c1.2,0,2-0.6,2-1.5
					c0-0.7-0.2-1.1-1.4-1.3l-1.4-0.2c-1.6-0.3-2.4-0.9-2.4-2.5c0-1.6,1.2-2.7,3.2-2.7c1.9,0,3,0.9,3.2,2.5H359.7z"/>
			</g>
			<g class="st1">
				<path class="st2" d="M372.8,718.9c-0.1-0.8-0.7-1.3-1.8-1.3c-1.1,0-1.8,0.6-1.8,1.4c0,0.7,0.4,1.1,1.3,1.2l1.4,0.2
					c1.9,0.3,2.5,1.1,2.5,2.6c0,1.8-1.5,2.8-3.5,2.8c-1.9,0-3.4-0.8-3.5-2.8h1.5c0.1,0.7,0.5,1.6,2,1.6c1.2,0,2-0.6,2-1.5
					c0-0.7-0.2-1.1-1.4-1.3l-1.4-0.2c-1.6-0.3-2.4-0.9-2.4-2.5c0-1.6,1.2-2.7,3.2-2.7c1.9,0,3,0.9,3.2,2.5H372.8z"/>
			</g>
			<g class="st1">
				<path class="st2" d="M377,713h1.6v1.6H377V713z M377.1,716.7h1.5v9h-1.5V716.7z"/>
				<path class="st2" d="M387.5,720.1c0-0.6,0-1.4-0.3-1.8c-0.3-0.4-0.8-0.6-1.4-0.6c-1.7,0-2.4,1.1-2.4,2.5v5.4h-1.5v-9h1.4v1.5h0
					c0.4-0.9,1.5-1.7,2.9-1.7c1.7,0,2.9,0.8,2.9,2.9v6.2h-1.5V720.1z"/>
			</g>
			<g class="st1">
				<path class="st2" d="M397.4,719.4c-0.1-0.9-0.7-1.8-2-1.8c-1.6,0-2.5,1.4-2.5,3.5c0,2.1,0.6,3.5,2.4,3.5c1.7,0,2.1-1.3,2.2-1.9
					h1.4c-0.2,2.1-1.7,3.1-3.6,3.1c-2.6,0-4-1.8-4-4.6c0-2.7,1.5-4.7,4-4.7c1.8,0,3.4,0.8,3.6,2.9H397.4z"/>
			</g>
			<g class="st1">
				<path class="st2" d="M404.6,725.9c-2.7,0-4-2-4-4.7c0-2.7,1.4-4.7,4-4.7c2.7,0,3.7,2.1,3.7,4.3v0.8h-6.2
					c0.1,1.9,0.9,3.1,2.5,3.1c1.5,0,1.9-0.9,2-1.4h1.5C407.8,724.9,406.5,725.9,404.6,725.9z M406.7,720.3c0-1.5-0.6-2.7-2.2-2.7
					c-1.4,0-2.2,1.1-2.4,2.8h4.6V720.3z"/>
			</g>
			<g class="st1">
				<path class="st2" d="M415.3,716.7h1.4v1.7h0c0.4-0.9,1.5-1.9,2.8-1.9h0.2v1.6h-0.3c-1.6,0-2.7,0.9-2.7,2.7v4.9h-1.5V716.7z"/>
			</g>
			<g class="st1">
				<path class="st2" d="M421.4,719.1c0-1.6,1.2-2.7,3.4-2.7c2.2,0,3.3,0.9,3.3,3.3v3.7c0,0.7,0.2,1,0.8,1v1.2h-0.2
					c-1.4,0-1.9-0.5-2.1-1.6h0c-0.5,1.1-1.5,1.7-2.9,1.7c-1.8,0-2.8-1-2.8-2.6c0-1,0.4-1.8,1.3-2.3c0.9-0.5,2.3-0.7,4.3-0.7v-0.4
					c0-1.6-0.6-2.2-1.9-2.2c-1.3,0-1.8,0.8-1.9,1.5H421.4z M426.6,721.6v-0.2c-1.9,0.1-3,0.2-3.6,0.7c-0.3,0.3-0.5,0.6-0.5,1.1
					c0,0.9,0.6,1.4,1.6,1.4C425.2,724.6,426.6,723.8,426.6,721.6z"/>
				<path class="st2" d="M436.9,720.1c0-0.6,0-1.4-0.3-1.8c-0.3-0.4-0.8-0.6-1.4-0.6c-1.7,0-2.4,1.1-2.4,2.5v5.4h-1.5v-9h1.4v1.5h0
					c0.4-0.9,1.5-1.7,2.9-1.7c1.7,0,2.9,0.8,2.9,2.9v6.2h-1.5V720.1z"/>
				<path class="st2" d="M448.7,725.7h-1.5v-1.5h-0.1c-0.5,0.9-1.4,1.7-2.8,1.7c-1.9,0-3.7-1.2-3.7-4.6c0-3.1,1.6-4.8,3.9-4.8
					c1.3,0,2.2,0.7,2.6,1.6h0v-5.8h1.5V725.7z M447.2,720.8c0-1.9-1-3.1-2.4-3.1c-1.7,0-2.5,1.4-2.5,3.5c0,2,0.6,3.5,2.4,3.5
					c1.6,0,2.5-1.3,2.5-2.9V720.8z"/>
				<path class="st2" d="M451.1,721.2c0-2.8,1.5-4.7,4-4.7c2.7,0,4,1.9,4,4.7c0,2.8-1.5,4.7-4,4.7
					C452.5,725.9,451.1,724,451.1,721.2z M452.7,721.2c0,2.2,0.7,3.5,2.5,3.5c1.7,0,2.4-1.3,2.4-3.5c0-2.2-0.7-3.5-2.4-3.5
					C453.5,717.7,452.7,719,452.7,721.2z"/>
				<path class="st2" d="M461.5,716.7h1.4v1.5h0c0.4-0.9,1.4-1.7,2.9-1.7c1.4,0,2.4,0.6,2.7,1.9h0c0.3-0.9,1.4-1.9,2.9-1.9
					c1.7,0,2.8,0.8,2.8,2.9v6.2h-1.5v-5.5c0-0.6,0-1.3-0.3-1.8c-0.3-0.4-0.8-0.6-1.4-0.6c-1.7,0-2.4,1.1-2.4,2.5v5.4h-1.5v-5.5
					c0-0.6,0-1.3-0.3-1.8c-0.3-0.4-0.8-0.6-1.4-0.6c-1.7,0-2.4,1.1-2.4,2.5v5.4h-1.5V716.7z"/>
				<path class="st2" d="M477.5,713h1.6v1.6h-1.6V713z M477.5,716.7h1.5v9h-1.5V716.7z"/>
				<path class="st2" d="M481.8,716.7h6.7v1.3l-5.3,6.4h5.4v1.3h-7.1v-1.3l5.2-6.4h-5V716.7z"/>
				<path class="st2" d="M490.7,719.1c0-1.6,1.2-2.7,3.4-2.7c2.2,0,3.3,0.9,3.3,3.3v3.7c0,0.7,0.2,1,0.8,1v1.2H498
					c-1.4,0-1.9-0.5-2.1-1.6h0c-0.5,1.1-1.5,1.7-2.9,1.7c-1.8,0-2.8-1-2.8-2.6c0-1,0.4-1.8,1.3-2.3c0.9-0.5,2.3-0.7,4.3-0.7v-0.4
					c0-1.6-0.6-2.2-1.9-2.2c-1.3,0-1.8,0.8-1.9,1.5H490.7z M495.9,721.6v-0.2c-1.9,0.1-3,0.2-3.6,0.7c-0.3,0.3-0.5,0.6-0.5,1.1
					c0,0.9,0.6,1.4,1.6,1.4C494.5,724.6,495.9,723.8,495.9,721.6z"/>
			</g>
			<g class="st1">
				<path class="st2" d="M502.3,714.1v2.6h2.2v1.2h-2.2v5.3c0,1,0.4,1.3,1.4,1.3c0.5,0,1-0.1,1-0.1v1.3c0,0-0.6,0.1-1.4,0.1
					c-1.8,0-2.4-0.8-2.4-2.4v-5.5h-1.6v-1.1h0.3c1.2,0,1.5-0.3,1.5-2v-0.6H502.3z"/>
			</g>
			<g class="st1">
				<path class="st2" d="M506.8,713h1.6v1.6h-1.6V713z M506.8,716.7h1.5v9h-1.5V716.7z"/>
				<path class="st2" d="M510.7,721.2c0-2.8,1.5-4.7,4-4.7c2.7,0,4,1.9,4,4.7c0,2.8-1.5,4.7-4,4.7
					C512.1,725.9,510.7,724,510.7,721.2z M512.3,721.2c0,2.2,0.7,3.5,2.5,3.5c1.7,0,2.4-1.3,2.4-3.5c0-2.2-0.7-3.5-2.4-3.5
					C513.1,717.7,512.3,719,512.3,721.2z"/>
				<path class="st2" d="M526.9,720.1c0-0.6,0-1.4-0.3-1.8c-0.3-0.4-0.8-0.6-1.4-0.6c-1.7,0-2.4,1.1-2.4,2.5v5.4h-1.5v-9h1.4v1.5h0
					c0.4-0.9,1.5-1.7,2.9-1.7c1.7,0,2.9,0.8,2.9,2.9v6.2h-1.5V720.1z"/>
			</g>
		</g>
		<g>
			<g class="st1">
				<path class="st2" d="M907.3,720.1l-4.6-7.4h1.8l3.5,6h0l3.7-6h1.7l-4.6,7.3v5.7h-1.6V720.1z"/>
			</g>
			<g class="st1">
				<path class="st2" d="M917.2,725.9c-2.7,0-4-2-4-4.7c0-2.7,1.4-4.7,4-4.7c2.7,0,3.7,2.1,3.7,4.3v0.8h-6.2
					c0.1,1.9,0.9,3.1,2.5,3.1c1.5,0,1.9-0.9,2-1.4h1.5C920.5,724.9,919.1,725.9,917.2,725.9z M919.3,720.3c0-1.5-0.6-2.7-2.2-2.7
					c-1.4,0-2.2,1.1-2.4,2.8h4.6V720.3z"/>
				<path class="st2" d="M923,719.1c0-1.6,1.2-2.7,3.4-2.7c2.2,0,3.3,0.9,3.3,3.3v3.7c0,0.7,0.2,1,0.8,1v1.2h-0.2
					c-1.4,0-1.9-0.5-2.1-1.6h0c-0.5,1.1-1.5,1.7-2.9,1.7c-1.8,0-2.8-1-2.8-2.6c0-1,0.4-1.8,1.3-2.3c0.9-0.5,2.3-0.7,4.3-0.7v-0.4
					c0-1.6-0.6-2.2-1.9-2.2c-1.3,0-1.8,0.8-1.9,1.5H923z M928.2,721.6v-0.2c-1.9,0.1-3,0.2-3.6,0.7c-0.3,0.3-0.5,0.6-0.5,1.1
					c0,0.9,0.6,1.4,1.6,1.4C926.8,724.6,928.2,723.8,928.2,721.6z"/>
			</g>
			<g class="st1">
				<path class="st2" d="M932.7,716.7h1.4v1.7h0c0.4-0.9,1.5-1.9,2.8-1.9h0.2v1.6h-0.3c-1.6,0-2.7,0.9-2.7,2.7v4.9h-1.5V716.7z"/>
			</g>
			<g class="st1">
				<path class="st2" d="M943.6,718.9c-0.1-0.8-0.7-1.3-1.8-1.3s-1.8,0.6-1.8,1.4c0,0.7,0.4,1.1,1.3,1.2l1.4,0.2
					c1.9,0.3,2.5,1.1,2.5,2.6c0,1.8-1.5,2.8-3.5,2.8c-1.9,0-3.4-0.8-3.5-2.8h1.5c0.1,0.7,0.5,1.6,2,1.6c1.2,0,2-0.6,2-1.5
					c0-0.7-0.2-1.1-1.4-1.3l-1.4-0.2c-1.6-0.3-2.4-0.9-2.4-2.5c0-1.6,1.2-2.7,3.2-2.7c1.9,0,3,0.9,3.2,2.5H943.6z"/>
			</g>
			<g class="st1">
				<path class="st2" d="M956.8,718.9c-0.1-0.8-0.7-1.3-1.8-1.3c-1.1,0-1.8,0.6-1.8,1.4c0,0.7,0.4,1.1,1.3,1.2l1.4,0.2
					c1.9,0.3,2.5,1.1,2.5,2.6c0,1.8-1.5,2.8-3.5,2.8c-1.9,0-3.4-0.8-3.5-2.8h1.5c0.1,0.7,0.5,1.6,2,1.6c1.2,0,2-0.6,2-1.5
					c0-0.7-0.2-1.1-1.4-1.3l-1.4-0.2c-1.6-0.3-2.4-0.9-2.4-2.5c0-1.6,1.2-2.7,3.2-2.7c1.9,0,3,0.9,3.2,2.5H956.8z"/>
			</g>
			<g class="st1">
				<path class="st2" d="M961,713h1.6v1.6H961V713z M961,716.7h1.5v9H961V716.7z"/>
				<path class="st2" d="M971.4,720.1c0-0.6,0-1.4-0.3-1.8c-0.3-0.4-0.8-0.6-1.4-0.6c-1.7,0-2.4,1.1-2.4,2.5v5.4h-1.5v-9h1.4v1.5h0
					c0.4-0.9,1.5-1.7,2.9-1.7c1.7,0,2.9,0.8,2.9,2.9v6.2h-1.5V720.1z"/>
			</g>
			<g class="st1">
				<path class="st2" d="M981.3,719.4c-0.1-0.9-0.7-1.8-2-1.8c-1.6,0-2.5,1.4-2.5,3.5c0,2.1,0.6,3.5,2.4,3.5c1.7,0,2.1-1.3,2.2-1.9
					h1.4c-0.2,2.1-1.7,3.1-3.6,3.1c-2.6,0-4-1.8-4-4.6c0-2.7,1.5-4.7,4-4.7c1.8,0,3.4,0.8,3.6,2.9H981.3z"/>
			</g>
			<g class="st1">
				<path class="st2" d="M988.5,725.9c-2.7,0-4-2-4-4.7c0-2.7,1.4-4.7,4-4.7c2.7,0,3.7,2.1,3.7,4.3v0.8H986c0.1,1.9,0.8,3.1,2.5,3.1
					c1.5,0,1.9-0.9,2-1.4h1.5C991.8,724.9,990.4,725.9,988.5,725.9z M990.6,720.3c0-1.5-0.6-2.7-2.2-2.7c-1.4,0-2.2,1.1-2.4,2.8h4.6
					V720.3z"/>
			</g>
			<g class="st1">
				<path class="st2" d="M999.2,716.7h1.4v1.7h0c0.4-0.9,1.5-1.9,2.8-1.9h0.2v1.6h-0.3c-1.6,0-2.7,0.9-2.7,2.7v4.9h-1.5V716.7z"/>
			</g>
			<g class="st1">
				<path class="st2" d="M1005.4,719.1c0-1.6,1.2-2.7,3.4-2.7c2.2,0,3.3,0.9,3.3,3.3v3.7c0,0.7,0.2,1,0.8,1v1.2h-0.2
					c-1.4,0-1.9-0.5-2.1-1.6h0c-0.5,1.1-1.5,1.7-2.9,1.7c-1.8,0-2.8-1-2.8-2.6c0-1,0.4-1.8,1.3-2.3c0.9-0.5,2.3-0.7,4.3-0.7v-0.4
					c0-1.6-0.6-2.2-1.9-2.2c-1.3,0-1.8,0.8-1.9,1.5H1005.4z M1010.6,721.6v-0.2c-1.9,0.1-3,0.2-3.6,0.7c-0.3,0.3-0.5,0.6-0.5,1.1
					c0,0.9,0.6,1.4,1.6,1.4C1009.2,724.6,1010.6,723.8,1010.6,721.6z"/>
				<path class="st2" d="M1020.8,720.1c0-0.6,0-1.4-0.3-1.8c-0.3-0.4-0.8-0.6-1.4-0.6c-1.7,0-2.4,1.1-2.4,2.5v5.4h-1.5v-9h1.4v1.5h0
					c0.4-0.9,1.5-1.7,2.9-1.7c1.7,0,2.9,0.8,2.9,2.9v6.2h-1.5V720.1z"/>
				<path class="st2" d="M1032.6,725.7h-1.5v-1.5h-0.1c-0.5,0.9-1.4,1.7-2.8,1.7c-1.9,0-3.7-1.2-3.7-4.6c0-3.1,1.6-4.8,3.9-4.8
					c1.3,0,2.2,0.7,2.6,1.6h0v-5.8h1.5V725.7z M1031.1,720.8c0-1.9-1-3.1-2.4-3.1c-1.7,0-2.5,1.4-2.5,3.5c0,2,0.6,3.5,2.4,3.5
					c1.6,0,2.5-1.3,2.5-2.9V720.8z"/>
				<path class="st2" d="M1035,721.2c0-2.8,1.5-4.7,4-4.7c2.7,0,4,1.9,4,4.7c0,2.8-1.5,4.7-4,4.7C1036.4,725.9,1035,724,1035,721.2z
					 M1036.6,721.2c0,2.2,0.7,3.5,2.5,3.5c1.7,0,2.4-1.3,2.4-3.5c0-2.2-0.7-3.5-2.4-3.5C1037.4,717.7,1036.6,719,1036.6,721.2z"/>
				<path class="st2" d="M1045.5,716.7h1.4v1.5h0c0.4-0.9,1.4-1.7,2.9-1.7c1.4,0,2.4,0.6,2.7,1.9h0c0.3-0.9,1.4-1.9,2.9-1.9
					c1.7,0,2.8,0.8,2.8,2.9v6.2h-1.5v-5.5c0-0.6,0-1.3-0.3-1.8c-0.3-0.4-0.8-0.6-1.4-0.6c-1.7,0-2.4,1.1-2.4,2.5v5.4h-1.5v-5.5
					c0-0.6,0-1.3-0.3-1.8c-0.3-0.4-0.8-0.6-1.4-0.6c-1.7,0-2.4,1.1-2.4,2.5v5.4h-1.5V716.7z"/>
				<path class="st2" d="M1061.4,713h1.6v1.6h-1.6V713z M1061.4,716.7h1.5v9h-1.5V716.7z"/>
				<path class="st2" d="M1065.7,716.7h6.7v1.3l-5.3,6.4h5.4v1.3h-7.1v-1.3l5.2-6.4h-5V716.7z"/>
				<path class="st2" d="M1074.6,719.1c0-1.6,1.2-2.7,3.4-2.7c2.2,0,3.3,0.9,3.3,3.3v3.7c0,0.7,0.2,1,0.8,1v1.2h-0.2
					c-1.4,0-1.9-0.5-2.1-1.6h0c-0.5,1.1-1.5,1.7-2.9,1.7c-1.8,0-2.8-1-2.8-2.6c0-1,0.4-1.8,1.3-2.3c0.9-0.5,2.3-0.7,4.3-0.7v-0.4
					c0-1.6-0.6-2.2-1.9-2.2c-1.3,0-1.8,0.8-1.9,1.5H1074.6z M1079.8,721.6v-0.2c-1.9,0.1-3,0.2-3.6,0.7c-0.3,0.3-0.5,0.6-0.5,1.1
					c0,0.9,0.6,1.4,1.6,1.4C1078.4,724.6,1079.8,723.8,1079.8,721.6z"/>
			</g>
			<g class="st1">
				<path class="st2" d="M1086.3,714.1v2.6h2.2v1.2h-2.2v5.3c0,1,0.4,1.3,1.4,1.3c0.5,0,1-0.1,1-0.1v1.3c0,0-0.6,0.1-1.4,0.1
					c-1.8,0-2.4-0.8-2.4-2.4v-5.5h-1.6v-1.1h0.3c1.2,0,1.5-0.3,1.5-2v-0.6H1086.3z"/>
			</g>
			<g class="st1">
				<path class="st2" d="M1090.7,713h1.6v1.6h-1.6V713z M1090.7,716.7h1.5v9h-1.5V716.7z"/>
				<path class="st2" d="M1094.7,721.2c0-2.8,1.5-4.7,4-4.7c2.7,0,4,1.9,4,4.7c0,2.8-1.5,4.7-4,4.7
					C1096,725.9,1094.7,724,1094.7,721.2z M1096.2,721.2c0,2.2,0.7,3.5,2.5,3.5c1.7,0,2.4-1.3,2.4-3.5c0-2.2-0.7-3.5-2.4-3.5
					C1097,717.7,1096.2,719,1096.2,721.2z"/>
				<path class="st2" d="M1110.8,720.1c0-0.6,0-1.4-0.3-1.8c-0.3-0.4-0.8-0.6-1.4-0.6c-1.7,0-2.4,1.1-2.4,2.5v5.4h-1.5v-9h1.4v1.5h0
					c0.4-0.9,1.5-1.7,2.9-1.7c1.7,0,2.9,0.8,2.9,2.9v6.2h-1.5V720.1z"/>
			</g>
		</g>
		<g>
			<g class="st1">
				<path class="st2" d="M778.9,676.5c2.8,0,4.5,2.1,4.5,6.5c0,4.4-1.8,6.5-4.5,6.5c-2.8,0-4.5-2.2-4.5-6.5
					C774.4,678.7,776.1,676.5,778.9,676.5z M781.8,683.1c0-3.5-1.1-5.3-2.9-5.3c-1.8,0-2.9,1.7-2.9,5.3c0,3.5,1.1,5.2,2.9,5.2
					C780.6,688.3,781.8,686.5,781.8,683.1z"/>
			</g>
		</g>
		<g>
			<g class="st1">
				<path class="st2" d="M915,682.3c-1,0-1.9,0.4-2.3,1.1h-1.3l0.5-6.7h6.7v1.3h-5.4l-0.3,4h0c0.4-0.5,1.3-1,2.4-1
					c2,0,3.9,1.2,3.9,4.2c0,2.6-1.7,4.3-4.3,4.3c-2.8,0-3.9-1.8-4-3.5h1.5c0.1,1.6,1.1,2.2,2.5,2.2c1.3,0,2.7-0.9,2.7-3
					C917.7,683.4,916.5,682.3,915,682.3z"/>
			</g>
		</g>
		<g>
			<g class="st1">
				<path class="st2" d="M1057.2,680h-2.5v-1.1h0.4c0.8,0,1.5-0.2,1.9-0.6c0.4-0.4,0.5-0.9,0.6-1.7h1.3v12.6h-1.5V680z"/>
				<path class="st2" d="M1066.6,676.5c2.8,0,4.5,2.1,4.5,6.5c0,4.4-1.8,6.5-4.5,6.5c-2.8,0-4.5-2.2-4.5-6.5
					C1062.1,678.7,1063.9,676.5,1066.6,676.5z M1069.5,683.1c0-3.5-1.1-5.3-2.9-5.3c-1.8,0-2.9,1.7-2.9,5.3c0,3.5,1.1,5.2,2.9,5.2
					C1068.4,688.3,1069.5,686.5,1069.5,683.1z"/>
			</g>
		</g>
		<g>
			<g class="st1">
				<path class="st2" d="M1204.1,680h-2.5v-1.1h0.4c0.8,0,1.5-0.2,1.9-0.6c0.4-0.4,0.5-0.9,0.6-1.7h1.3v12.6h-1.5V680z"/>
				<path class="st2" d="M1213,682.3c-1,0-1.9,0.4-2.3,1.1h-1.3l0.5-6.7h6.7v1.3h-5.4l-0.3,4h0c0.4-0.5,1.3-1,2.4-1
					c2,0,3.9,1.2,3.9,4.2c0,2.6-1.7,4.3-4.3,4.3c-2.8,0-3.9-1.8-4-3.5h1.5c0.1,1.6,1.1,2.2,2.5,2.2c1.3,0,2.7-0.9,2.7-3
					C1215.6,683.4,1214.5,682.3,1213,682.3z"/>
			</g>
		</g>
		<g>
			<g class="st1">
				<path class="st2" d="M193.5,676.5c2.8,0,4.5,2.1,4.5,6.5c0,4.4-1.8,6.5-4.5,6.5c-2.8,0-4.5-2.2-4.5-6.5
					C189,678.7,190.8,676.5,193.5,676.5z M196.4,683.1c0-3.5-1.1-5.3-2.9-5.3c-1.8,0-2.9,1.7-2.9,5.3c0,3.5,1.1,5.2,2.9,5.2
					C195.3,688.3,196.4,686.5,196.4,683.1z"/>
			</g>
		</g>
		<g>
			<g class="st1">
				<path class="st2" d="M329.7,682.3c-1,0-1.9,0.4-2.3,1.1h-1.3l0.5-6.7h6.7v1.3h-5.4l-0.3,4h0c0.4-0.5,1.3-1,2.4-1
					c2,0,3.9,1.2,3.9,4.2c0,2.6-1.7,4.3-4.3,4.3c-2.8,0-3.9-1.8-4-3.5h1.5c0.1,1.6,1.1,2.2,2.5,2.2c1.3,0,2.7-0.9,2.7-3
					C332.4,683.4,331.2,682.3,329.7,682.3z"/>
			</g>
		</g>
		<g>
			<g class="st1">
				<path class="st2" d="M471.9,680h-2.5v-1.1h0.4c0.9,0,1.5-0.2,1.9-0.6c0.4-0.4,0.5-0.9,0.6-1.7h1.3v12.6h-1.5V680z"/>
				<path class="st2" d="M481.3,676.5c2.8,0,4.5,2.1,4.5,6.5c0,4.4-1.8,6.5-4.5,6.5c-2.8,0-4.5-2.2-4.5-6.5
					C476.8,678.7,478.5,676.5,481.3,676.5z M484.2,683.1c0-3.5-1.1-5.3-2.9-5.3c-1.8,0-2.9,1.7-2.9,5.3c0,3.5,1.1,5.2,2.9,5.2
					C483,688.3,484.2,686.5,484.2,683.1z"/>
			</g>
		</g>
		<g>
			<g class="st1">
				<path class="st2" d="M618.8,680h-2.5v-1.1h0.4c0.8,0,1.5-0.2,1.9-0.6c0.4-0.4,0.5-0.9,0.6-1.7h1.3v12.6h-1.5V680z"/>
				<path class="st2" d="M627.6,682.3c-1,0-1.9,0.4-2.3,1.1H624l0.5-6.7h6.7v1.3h-5.4l-0.3,4h0c0.4-0.5,1.3-1,2.4-1
					c2,0,3.9,1.2,3.9,4.2c0,2.6-1.7,4.3-4.3,4.3c-2.8,0-3.9-1.8-4-3.5h1.5c0.1,1.6,1.1,2.2,2.5,2.2c1.3,0,2.7-0.9,2.7-3
					C630.3,683.4,629.1,682.3,627.6,682.3z"/>
			</g>
		</g>
		<g class="st1">
			<path class="st2" d="M739.5,85.4c0,7.1,3.2,11.5,8.7,11.5c4.9,0,6.9-3.3,7.2-6.4h3.4c-0.4,5.2-4.4,9.1-10.7,9.1
				c-7.2,0-12.2-4.6-12.2-14.3c0-9,5.1-14.3,12.3-14.3c4.7,0,10,2.5,10.6,8.6h-3.5c-0.5-2.8-2.6-5.9-7.1-5.9
				C742.6,73.9,739.5,78.5,739.5,85.4z"/>
		</g>
		<g class="st1">
			<path class="st2" d="M774.2,87.4h-6.1v11.7h-3.3V71.6h10c2,0,3.8,0.4,5.3,1.2c2.2,1.2,3.6,3.3,3.6,6.5c0,5.2-3.4,6.9-5.9,7.6V87
				l6.1,12.1h-3.9L774.2,87.4z M774.5,84.7c3.2,0,5.7-1.5,5.7-5.3c0-3.4-2.3-5-5.5-5h-6.5v10.4H774.5z"/>
		</g>
		<g class="st1">
			<path class="st2" d="M791.6,85.4c0,7.1,3.2,11.5,8.7,11.5c4.9,0,6.9-3.3,7.2-6.4h3.4c-0.4,5.2-4.4,9.1-10.7,9.1
				c-7.2,0-12.2-4.6-12.2-14.3c0-9,5.1-14.3,12.3-14.3c4.7,0,10,2.5,10.6,8.6h-3.5c-0.5-2.8-2.6-5.9-7.1-5.9
				C794.7,73.9,791.6,78.5,791.6,85.4z"/>
			<path class="st2" d="M826.4,80.1h3.1v3.2h0.1c0.9-1.9,3.1-3.7,6.1-3.7c2.9,0,5,1.3,5.7,3.9h0.1c0.7-2,3.1-3.9,6.2-3.9
				c3.6,0,6,1.7,6,6.2v13.2h-3.2V87.4c0-1.4,0-2.8-0.7-3.8c-0.6-0.9-1.7-1.2-3-1.2c-3.5,0-5.1,2.3-5.1,5.4v11.4h-3.2V87.4
				c0-1.4,0-2.8-0.7-3.7c-0.6-0.9-1.7-1.3-3-1.3c-3.5,0-5.1,2.3-5.1,5.3v11.4h-3.2V80.1z"/>
			<path class="st2" d="M858.6,89.6c0-5.9,3.2-9.9,8.5-9.9c5.7,0,8.5,4.1,8.5,9.9c0,5.9-3.2,10-8.5,10
				C861.4,99.6,858.6,95.5,858.6,89.6z M861.9,89.6c0,4.6,1.5,7.5,5.2,7.5c3.5,0,5.1-2.8,5.1-7.5c0-4.6-1.5-7.5-5.1-7.5
				C863.6,82.2,861.9,85,861.9,89.6z"/>
		</g>
		<g class="st1">
			<path class="st2" d="M879.9,80.1h3.1v3.6h0.1c0.9-2,3.2-3.9,6-3.9h0.3v3.4h-0.6c-3.4,0-5.6,1.9-5.6,5.6v10.3h-3.2V80.1z"/>
		</g>
		<g class="st1">
			<path class="st2" d="M898.4,74.6v5.5h4.7v2.5h-4.7v11.2c0,2,0.8,2.8,2.9,2.8c1,0,2.1-0.2,2.1-0.2v2.7c0,0-1.3,0.2-3,0.2
				c-3.7,0-5.2-1.8-5.2-5V82.6h-3.5v-2.4h0.6c2.6,0,3.1-0.6,3.1-4.2v-1.4H898.4z"/>
		</g>
		<g class="st1">
			<path class="st2" d="M908,85.3c0.1-3.3,2.6-5.7,7.2-5.7c4.7,0,7,2,7,7.1v7.7c0,1.5,0.3,2.1,1.7,2.2v2.6h-0.4c-3,0-4-1.1-4.4-3.3
				h-0.1c-1,2.2-3.3,3.5-6.1,3.5c-3.8,0-6-2.1-6-5.4c0-2.1,0.9-3.8,2.8-4.8c2-1,4.9-1.4,9.2-1.5v-0.8c0-3.4-1.3-4.8-4-4.8
				c-2.8,0-3.9,1.6-4,3.2H908z M919,90.5v-0.4c-4.1,0.2-6.4,0.5-7.7,1.4c-0.7,0.5-1,1.3-1,2.3c0,1.9,1.3,3,3.3,3
				C916,96.8,919,95.2,919,90.5z"/>
			<path class="st2" d="M928.6,70.7h3.2v28.4h-3.2V70.7z"/>
			<path class="st2" d="M938.5,72.3h3.4v3.5h-3.4V72.3z M938.6,80.1h3.3v19h-3.3V80.1z"/>
		</g>
		<g class="st1">
			<path class="st2" d="M952.1,74.6v5.5h4.7v2.5h-4.7v11.2c0,2,0.8,2.8,2.9,2.8c1,0,2.1-0.2,2.1-0.2v2.7c0,0-1.3,0.2-3,0.2
				c-3.7,0-5.2-1.8-5.2-5V82.6h-3.5v-2.4h0.6c2.6,0,3.1-0.6,3.1-4.2v-1.4H952.1z"/>
		</g>
		<g class="st1">
			<path class="st2" d="M959.5,80.1h3.2l4,11.9c0.6,1.8,0.9,3,0.9,3h0.1c0,0,0.3-1.2,0.9-3l3.9-11.8h3.2l-6.9,20.2
				c-1.5,4.4-2.8,6-6.9,6c-0.7,0-1.4-0.1-1.9-0.2v-2.7c0.6,0.1,1.3,0.2,1.7,0.2c2.4,0,3.2-0.9,4-3.5l0.4-1L959.5,80.1z"/>
		</g>
		<g class="st1">
			<path class="st2" d="M1126.6,135.1h2l5.8,9.7c0.4,0.7,0.7,1.3,0.7,1.3h0.1v-10.9h1.5v13h-2l-5.8-9.7c-0.5-0.8-0.7-1.3-0.7-1.3h0
				v10.9h-1.5V135.1z"/>
			<path class="st2" d="M1145.4,134.9c3.2,0,5.9,2.1,5.9,6.7c0,4.6-2.7,6.7-5.9,6.7c-3.2,0-5.8-2.1-5.8-6.7
				C1139.6,137,1142.3,134.9,1145.4,134.9z M1149.6,141.6c0-3.6-1.7-5.5-4.2-5.5c-2.4,0-4.1,1.8-4.1,5.5c0,3.6,1.7,5.4,4.1,5.4
				C1147.8,147.1,1149.6,145.1,1149.6,141.6z"/>
		</g>
		<g class="st1">
			<path class="st2" d="M1158.6,142.6h-2.9v5.5h-1.6v-13h4.7c1,0,1.8,0.2,2.5,0.6c1,0.6,1.7,1.6,1.7,3.1c0,2.4-1.6,3.3-2.8,3.6v0
				l2.9,5.7h-1.8L1158.6,142.6z M1158.7,141.3c1.5,0,2.7-0.7,2.7-2.5c0-1.6-1.1-2.4-2.6-2.4h-3.1v4.9H1158.7z"/>
		</g>
		<g class="st1">
			<path class="st2" d="M1166.9,141.6c0,3.4,1.5,5.4,4.1,5.4c2.3,0,3.2-1.5,3.4-3h1.6c-0.2,2.4-2.1,4.3-5,4.3
				c-3.4,0-5.8-2.2-5.8-6.7c0-4.2,2.4-6.7,5.8-6.7c2.2,0,4.7,1.2,5,4.1h-1.7c-0.2-1.3-1.2-2.8-3.3-2.8
				C1168.4,136.2,1166.9,138.4,1166.9,141.6z"/>
		</g>
		<g class="st1">
			<path class="st2" d="M1180,141.6c0,3.4,1.5,5.4,4.1,5.4c2.3,0,3.2-1.5,3.4-3h1.6c-0.2,2.4-2.1,4.3-5,4.3c-3.4,0-5.8-2.2-5.8-6.7
				c0-4.2,2.4-6.7,5.8-6.7c2.2,0,4.7,1.2,5,4.1h-1.7c-0.2-1.3-1.2-2.8-3.3-2.8C1181.4,136.2,1180,138.4,1180,141.6z"/>
		</g>
		<g class="st1">
			<path class="st2" d="M1198.8,144.2h-5.2l-1.3,3.9h-1.6l4.6-13h1.9l4.7,13h-1.7L1198.8,144.2z M1195.6,138.3l-1.6,4.7h4.3
				l-1.6-4.7c-0.3-0.8-0.5-1.6-0.5-1.6h0C1196.1,136.7,1195.9,137.5,1195.6,138.3z"/>
			<path class="st2" d="M1205.8,143.1v5h-1.6v-13h3.9c2.5,0,4.5,1.2,4.5,4c0,2.8-1.9,4-4.6,4H1205.8z M1208,141.8c1.9,0,3-0.9,3-2.8
				c0-1.9-1.1-2.7-2.9-2.7h-2.2v5.5H1208z"/>
			<path class="st2" d="M1221.8,150.3c-1-1.9-2.3-4.4-2.3-7.8c0-3.5,1.3-5.9,2.3-7.8h1.2c-1,2.1-1.9,4.3-1.9,7.8
				c0,3.5,0.9,5.7,1.9,7.8H1221.8z"/>
			<path class="st2" d="M1225.2,139.1h1.4v1.5h0c0.4-0.9,1.4-1.7,2.9-1.7c1.4,0,2.4,0.6,2.7,1.9h0c0.3-0.9,1.4-1.9,2.9-1.9
				c1.7,0,2.8,0.8,2.8,2.9v6.2h-1.5v-5.5c0-0.6,0-1.3-0.3-1.8c-0.3-0.4-0.8-0.6-1.4-0.6c-1.7,0-2.4,1.1-2.4,2.5v5.4h-1.5v-5.5
				c0-0.6,0-1.3-0.3-1.8c-0.3-0.4-0.8-0.6-1.4-0.6c-1.7,0-2.4,1.1-2.4,2.5v5.4h-1.5V139.1z"/>
		</g>
		<g class="st1">
			<path class="st2" d="M1244.4,148.3c-2.7,0-4-2-4-4.7c0-2.7,1.4-4.7,4-4.7c2.7,0,3.7,2.1,3.7,4.3v0.8h-6.2
				c0.1,1.9,0.9,3.1,2.5,3.1c1.5,0,1.9-0.9,2-1.4h1.5C1247.7,147.3,1246.3,148.3,1244.4,148.3z M1246.5,142.7c0-1.5-0.6-2.7-2.2-2.7
				c-1.4,0-2.2,1.1-2.4,2.8h4.6V142.7z"/>
		</g>
		<g class="st1">
			<path class="st2" d="M1256.1,142.6c0-0.6,0-1.4-0.3-1.8c-0.3-0.4-0.8-0.6-1.4-0.6c-1.7,0-2.4,1.1-2.4,2.5v5.4h-1.5v-9h1.4v1.5h0
				c0.4-0.9,1.5-1.7,2.9-1.7c1.7,0,2.9,0.8,2.9,2.9v6.2h-1.5V142.6z"/>
			<path class="st2" d="M1261.6,142.5c0-3.5-0.9-5.7-1.9-7.8h1.2c1,1.9,2.3,4.4,2.3,7.8c0,3.4-1.3,5.9-2.3,7.8h-1.2
				C1260.7,148.2,1261.6,145.9,1261.6,142.5z"/>
		</g>
		<g class="st1">
			<path class="st2" d="M1126.4,169.2h1.6v7.5c0,1.2,0,2.6,0.7,3.4c0.6,0.8,1.5,1.1,2.7,1.1c1.2,0,2.1-0.3,2.7-1.1
				c0.6-0.8,0.6-2.2,0.6-3.4v-7.5h1.6v8.7c0,3.3-2,4.6-4.9,4.6c-3,0-4.9-1.3-4.9-4.6V169.2z"/>
			<path class="st2" d="M1141.2,182.2h-1.6v-13h1.6v6.7l6.1-6.7h1.9l-5,5.5l5.4,7.5h-1.9l-4.5-6.4l-1.9,2.1V182.2z"/>
		</g>
		<g class="st1">
			<path class="st2" d="M1153.4,182.2h-1.6v-13h7.8v1.4h-6.2v4.7h5.7v1.4h-5.7V182.2z"/>
		</g>
		<g class="st1">
			<path class="st2" d="M1169,172.7c-0.2-1.3-0.9-2.4-2.7-2.4c-1.8,0-2.7,1-2.7,2.2c0,1.2,0.6,1.9,2.2,2.2l1.8,0.3
				c2.5,0.5,3.4,1.7,3.4,3.6c0,2.4-1.6,3.9-4.7,3.9c-3,0-4.7-1.6-4.9-3.9h1.6c0.2,1.4,1.2,2.6,3.2,2.6c2.3,0,3.1-1.1,3.1-2.5
				c0-1.1-0.6-1.9-2.2-2.2l-1.8-0.3c-2.5-0.5-3.5-1.8-3.5-3.5c0-2.1,1.7-3.6,4.4-3.6c2.8,0,4.2,1.5,4.3,3.7H1169z"/>
		</g>
		<g class="st1">
			<path class="st2" d="M1180.7,172.7c-0.2-1.3-0.9-2.4-2.7-2.4c-1.8,0-2.7,1-2.7,2.2c0,1.2,0.6,1.9,2.2,2.2l1.8,0.3
				c2.5,0.5,3.4,1.7,3.4,3.6c0,2.4-1.6,3.9-4.7,3.9c-3,0-4.7-1.6-4.9-3.9h1.6c0.2,1.4,1.2,2.6,3.2,2.6c2.3,0,3.1-1.1,3.1-2.5
				c0-1.1-0.6-1.9-2.2-2.2l-1.8-0.3c-2.5-0.5-3.5-1.8-3.5-3.5c0-2.1,1.7-3.6,4.4-3.6c2.8,0,4.2,1.5,4.3,3.7H1180.7z"/>
		</g>
		<g class="st1">
			<path class="st2" d="M1194.5,170.6h-4.5v11.6h-1.6v-11.6h-4.5v-1.4h10.6V170.6z"/>
		</g>
		<g class="st1">
			<path class="st2" d="M1126.6,203.4h2l5.8,9.7c0.4,0.7,0.7,1.3,0.7,1.3h0.1v-10.9h1.5v13h-2l-5.8-9.7c-0.5-0.8-0.7-1.3-0.7-1.3h0
				v10.9h-1.5V203.4z"/>
		</g>
		<g class="st1">
			<path class="st2" d="M1139.1,211.9c0-2.8,1.5-4.7,4-4.7c2.7,0,4,1.9,4,4.7c0,2.8-1.5,4.7-4,4.7
				C1140.5,216.6,1139.1,214.7,1139.1,211.9z M1140.7,211.9c0,2.2,0.7,3.5,2.5,3.5c1.7,0,2.4-1.3,2.4-3.5c0-2.2-0.7-3.5-2.4-3.5
				C1141.5,208.4,1140.7,209.7,1140.7,211.9z"/>
		</g>
		<g class="st1">
			<path class="st2" d="M1149.5,207.4h1.4v1.7h0c0.4-0.9,1.5-1.9,2.8-1.9h0.2v1.6h-0.3c-1.6,0-2.7,0.9-2.7,2.7v4.9h-1.5V207.4z"/>
		</g>
		<g class="st1">
			<path class="st2" d="M1163.2,216.4h-1.5v-1.5h-0.1c-0.5,0.9-1.4,1.7-2.8,1.7c-1.9,0-3.7-1.2-3.7-4.6c0-3.1,1.6-4.8,3.9-4.8
				c1.3,0,2.2,0.7,2.6,1.6h0V203h1.5V216.4z M1161.7,211.5c0-1.9-1-3.1-2.4-3.1c-1.7,0-2.5,1.4-2.5,3.5c0,2,0.6,3.5,2.4,3.5
				c1.6,0,2.5-1.3,2.5-2.9V211.5z"/>
			<path class="st2" d="M1166.6,203.4h1.6v13h-1.6V203.4z"/>
			<path class="st2" d="M1172.8,209.9c0,3.4,1.5,5.4,4.1,5.4c2.3,0,3.2-1.5,3.4-3h1.6c-0.2,2.4-2.1,4.3-5,4.3
				c-3.4,0-5.8-2.2-5.8-6.7c0-4.2,2.4-6.7,5.8-6.7c2.2,0,4.7,1.2,5,4.1h-1.7c-0.2-1.3-1.2-2.8-3.3-2.8
				C1174.3,204.5,1172.8,206.6,1172.8,209.9z"/>
			<path class="st2" d="M1185.9,209.9c0,3.4,1.5,5.4,4.1,5.4c2.3,0,3.2-1.5,3.4-3h1.6c-0.2,2.4-2.1,4.3-5,4.3
				c-3.4,0-5.8-2.2-5.8-6.7c0-4.2,2.4-6.7,5.8-6.7c2.2,0,4.7,1.2,5,4.1h-1.7c-0.2-1.3-1.2-2.8-3.3-2.8
				C1187.3,204.5,1185.9,206.6,1185.9,209.9z"/>
		</g>
		<line class="st4" x1="1066.3" y1="141.3" x2="1114.3" y2="141.3"/>
		<line class="st5" x1="1066.3" y1="175.2" x2="1114.3" y2="175.2"/>
		<line class="st6" x1="1066.3" y1="209.2" x2="1114.3" y2="209.2"/>
		<line class="st7" x1="189.9" y1="436.1" x2="658.6" y2="436.1"/>
		<line class="st8" x1="775.5" y1="436.1" x2="1240.8" y2="436.1"/>
		<path class="st5" d="M246,550.2l7.3-22.6l9.4-3.3l9-19.4c0,0,7.8-21.3,9.4-21.7s8.2-5.1,8.2-5.1l10.6-23.6l12.2-10.7l18.7-2.7
			l5-11.5H348l18.4-14.8h7.8l10.2-9.2l8.6-1.9l11.8-10.2l19.6-6.9c0,0,22.4-5,24-4.3s23.6-8.6,23.6-8.6H520l16.7-4.6l20.4-3.6h16.3
			l13.5,5.8l17.1-5.8l16.7-2l15.1,2h20.2"/>
		<path class="st6" d="M247.8,645.9l5.2-22.2l4.9-14.3l15.1-16.6l13.9-14.8l16.3-36l13.5-39.3l11.4-19.9l21.2-25.9l10.2-13l7.8-14.2
			l6.5-2.3c0,0,15.1-19.4,16.3-19.4s7.8,0.9,10.6,0s13.9-6,13.9-6s15.1-4.6,16.3-5.1s7.3-5.1,7.3-5.1l15.9-2.3l10.2-2.8h17.1"/>
		<path class="st5" d="M832.2,360.3l3.1,8.6l4.3-16.3h3.2l5.7,28c0,0,3.8-19.9,4.3-17.2s3.5,15.3,3.5,15.3l4.6-17.1l2.2,20.6
			l10.2-18.9l5.2,15.4l6.2-11.3l9.2,2.4l1.3-11.9l3.8-5.4l6.5,10.9l7-10.9l7-2.5l4.1,11.5l5.1-3.7l5.4,5.5l4-3.2l7.3,9.2l8.9-4
			l8.9-2l4,6.1l5.9-0.6c0,0,3.2-7.7,4-7.3c0.8,0.5,3.2,4.6,3.2,4.6l4.9-6.2l3.5,0.3l3.3,7.1l5.3-1.2l14.6-16.1l8.1-6.5l9.7,9.5
			l8.6,4.8h18.6l4.7,3.7l7.8-8.8l5.9,2.4l12.7-5.5l16.2-1.9l5.9,7.3l5.1-1.8l9.4-5.2l8.6-1.9l6.2-4.3l6.8,2.9l4.1,3.3l40.5-1.2
			l8.4,3.4l5.7,3.4l12.2,1.5l2.7,4.1l19.7-1.4"/>
		<path class="st6" d="M832.2,556.5h6.3l7.6-30.3l5.2,30.3l3.4-26.2c3.2-3.7,3.8-19.7,5.4-17.9c1.6,1.8,8.6,13.8,8.6,13.8l10.3-69.5
			L891,610.4l4.9,6.2l3.8,34.5l10.3-18.5l9.2-95.5v-6.8l4.7-0.5l2.9-19l6.1,7.4c0,0,4.5-10.6,4.9-8.3s2.4,8.3,2.4,8.3l4.9-6.5l4,3.9
			l7.7-5.8c0,0,15-40.2,16.2-39.8c1.2,0.5,5.3,4.8,5.3,4.8l4-21.5l10.2-6.4l2.7,1.1l7.7-1.1v-19.5l5.5-5.5l8.7,2.8l15-22.2l4.7,9.7
			l7.1,0.5c0,0,2-9.7,3.2-10.2c1.2-0.5,12.2,0,12.2,0l2.9,5.1h4.4"/>
		<polyline class="st4" points="247.8,537.1 272.2,473.1 303.8,421.3 330.8,398.5 355.4,375 384.8,371.2 411,365.5 419.6,378.8 
			427.2,382.3 438.6,382.3 459.3,365.5 468.5,355.3 496.8,355.3 524.5,355.3 576.7,333.8 590.8,338.7 596.8,337.5 607.7,330.1 
			612,330.1 626.5,339.3 631.1,339.9 648,330.1 656.1,335.6 		"/>
		<path class="st4" d="M832.2,422.2l19.1-30c0,0,6.8,9.7,7.2,8.3c0.4-1.4-2.4-18.8,0-18.2s26.8-37.8,29-37.3
			c2.2,0.5,23.2-2.7,23.2-2.7l24.3-16.6c0,0,22.3-23.8,23.7-22.3s16.4-1.5,18,0s15.5,2.9,15.5,2.9l2.7,5.5l2.1,12.5l11.2-8.3
			l8.3,1.4l12.5,11.5l8.5,13.9h4.1l23.5-20.3l24.7-1.9l11.3-6.5l15-16.6l4.9,12l8.5-2.3l26.7-13.4h6.5l10.1,12.5l7.7,6.9l24.3,2.3
			l8.5,7.4l13.4-0.5V339l6.5,9.2l7.8,0.9"/>
	</g>
</g>
</svg>
