<svg viewBox="0 0 508 114" xmlns="http://www.w3.org/2000/svg"><style>:root { --primary : #fff; }</style><title>Watch on YouTube Icon</title><desc>Watch on YouTube icon for video media</desc><path style="fill:var(--primary, #22181C)" d="M253.06 92.036c.887-2.315 1.332-6.099 1.332-11.35V58.561c0-5.096-.445-8.82-1.332-11.177-.888-2.355-2.452-3.533-4.69-3.533-2.163 0-3.689 1.178-4.576 3.533-.888 2.356-1.332 6.081-1.332 11.177v22.125c0 5.251.424 9.035 1.275 11.35.848 2.317 2.391 3.475 4.633 3.475 2.238 0 3.802-1.157 4.69-3.475Zm-17.953 11.12c-3.206-2.159-5.485-5.52-6.834-10.078-1.352-4.554-2.027-10.616-2.027-18.184v-10.31c0-7.644.771-13.785 2.316-18.417 1.544-4.633 3.956-8.01 7.24-10.135 3.281-2.122 7.587-3.185 12.916-3.185 5.25 0 9.458 1.082 12.625 3.243 3.165 2.162 5.482 5.542 6.95 10.135 1.466 4.596 2.2 10.715 2.2 18.36v10.31c0 7.567-.714 13.65-2.142 18.243-1.43 4.594-3.747 7.954-6.951 10.076-3.205 2.124-7.548 3.186-13.03 3.186-5.639 0-10.06-1.082-13.263-3.243m248.054-57.98c-.809 1.004-1.352 2.645-1.621 4.922-.272 2.279-.404 5.734-.404 10.367v5.097h11.697v-5.097c0-4.555-.155-8.01-.463-10.367-.309-2.354-.868-4.014-1.678-4.98-.812-.965-2.067-1.449-3.766-1.449-1.699 0-2.954.504-3.765 1.507Zm-2.025 29.885v3.59c0 4.558.132 7.974.404 10.251.269 2.279.828 3.94 1.68 4.982.849 1.042 2.16 1.564 3.938 1.564 2.392 0 4.035-.927 4.923-2.781.887-1.853 1.369-4.942 1.447-9.267l13.785.812c.077.62.116 1.468.116 2.547 0 6.565-1.795 11.47-5.387 14.712-3.589 3.242-8.669 4.864-15.232 4.864-7.875 0-13.398-2.47-16.563-7.414-3.168-4.94-4.751-12.585-4.751-22.934V63.593c0-10.656 1.642-18.435 4.924-23.34 3.281-4.904 8.9-7.355 16.854-7.355 5.482 0 9.691 1.004 12.626 3.011 2.933 2.01 4.999 5.137 6.197 9.383 1.197 4.247 1.796 10.117 1.796 17.607v12.163h-26.757m-284.954-1.33L177.996 8.054h15.868l6.371 29.77c1.623 7.338 2.819 13.593 3.591 18.765h.464c.54-3.706 1.737-9.922 3.59-18.65l6.603-29.885h15.869l-18.417 65.678v31.509h-15.753V73.732m125.93-39.497v71.005h-12.51l-1.391-8.688h-.347c-3.398 6.564-8.495 9.845-15.29 9.845-4.711 0-8.185-1.543-10.425-4.633-2.24-3.087-3.359-7.915-3.359-14.478V34.234h15.985v52.124c0 3.168.348 5.426 1.043 6.776.695 1.353 1.853 2.027 3.475 2.027 1.39 0 2.722-.423 3.995-1.275 1.275-.849 2.22-1.928 2.839-3.241v-56.41h15.985m81.985 0v71.005h-12.511l-1.39-8.688h-.346c-3.401 6.564-8.497 9.845-15.291 9.845-4.711 0-8.185-1.543-10.425-4.633-2.24-3.087-3.359-7.915-3.359-14.478V34.234h15.985v52.124c0 3.168.347 5.426 1.041 6.776.696 1.353 1.855 2.027 3.476 2.027 1.391 0 2.723-.423 3.996-1.275 1.275-.849 2.22-1.928 2.839-3.241v-56.41h15.985"/><path style="fill:var(--primary, #22181C)" d="M365.538 20.914h-15.869v84.326h-15.637V20.914h-15.869V8.056h47.375v12.858Zm76.811 53.634c0 5.175-.215 9.23-.639 12.162-.424 2.937-1.138 5.021-2.142 6.255-1.004 1.236-2.358 1.854-4.054 1.854a7.406 7.406 0 0 1-3.649-.927c-1.121-.618-2.026-1.544-2.722-2.78v-40.31c.54-1.93 1.466-3.513 2.78-4.75 1.313-1.233 2.739-1.852 4.285-1.852 1.622 0 2.876.637 3.765 1.91.887 1.275 1.505 3.418 1.853 6.43.348 3.011.523 7.297.523 12.857v9.151Zm14.652-28.963c-.967-4.477-2.531-7.72-4.692-9.73-2.163-2.006-5.136-3.01-8.919-3.01-2.934 0-5.676.83-8.224 2.49a16.928 16.928 0 0 0-5.907 6.544h-.118l.002-37.415h-15.405v100.774h13.203l1.623-6.717h.347c1.234 2.393 3.088 4.285 5.559 5.675 2.471 1.39 5.214 2.085 8.226 2.085 5.403 0 9.381-2.491 11.93-7.471 2.548-4.982 3.823-12.76 3.823-23.34V64.233c0-7.953-.484-14.17-1.448-18.65"/><path fill-rule="evenodd" clip-rule="evenodd" style="fill:var(--primary, #22181C)" d="M144.276 3.393a20.283 20.283 0 0 1 14.32 14.32c3.384 12.632 3.384 38.986 3.384 38.986s0 26.356-3.384 38.987a20.283 20.283 0 0 1-14.32 14.32c-12.633 3.386-63.283 3.386-63.283 3.386s-50.65 0-63.283-3.386a20.284 20.284 0 0 1-14.32-14.32C.007 83.055.007 56.7.007 56.7s0-26.355 3.385-38.987a20.285 20.285 0 0 1 14.32-14.32C30.34.009 80.992.009 80.992.009s50.651 0 63.283 3.385Zm-37.404 53.305L64.79 32.401v48.594l42.082-24.297Z"/></svg>
